G04 #@! TF.GenerationSoftware,KiCad,Pcbnew,(5.1.8)-1*
G04 #@! TF.CreationDate,2023-08-31T22:35:52+02:00*
G04 #@! TF.ProjectId,RC Exhaust System,52432045-7868-4617-9573-742053797374,rev?*
G04 #@! TF.SameCoordinates,Original*
G04 #@! TF.FileFunction,Copper,L1,Top*
G04 #@! TF.FilePolarity,Positive*
%FSLAX46Y46*%
G04 Gerber Fmt 4.6, Leading zero omitted, Abs format (unit mm)*
G04 Created by KiCad (PCBNEW (5.1.8)-1) date 2023-08-31 22:35:52*
%MOMM*%
%LPD*%
G01*
G04 APERTURE LIST*
G04 #@! TA.AperFunction,ComponentPad*
%ADD10C,1.600000*%
G04 #@! TD*
G04 #@! TA.AperFunction,ComponentPad*
%ADD11O,1.600000X1.600000*%
G04 #@! TD*
G04 #@! TA.AperFunction,ComponentPad*
%ADD12O,1.700000X1.700000*%
G04 #@! TD*
G04 #@! TA.AperFunction,ComponentPad*
%ADD13R,1.700000X1.700000*%
G04 #@! TD*
G04 #@! TA.AperFunction,ComponentPad*
%ADD14R,1.600000X1.600000*%
G04 #@! TD*
G04 #@! TA.AperFunction,ComponentPad*
%ADD15R,1.200000X1.200000*%
G04 #@! TD*
G04 #@! TA.AperFunction,ComponentPad*
%ADD16C,1.200000*%
G04 #@! TD*
G04 #@! TA.AperFunction,ComponentPad*
%ADD17R,1.800000X1.800000*%
G04 #@! TD*
G04 #@! TA.AperFunction,ComponentPad*
%ADD18C,1.800000*%
G04 #@! TD*
G04 #@! TA.AperFunction,ComponentPad*
%ADD19C,1.500000*%
G04 #@! TD*
G04 #@! TA.AperFunction,ComponentPad*
%ADD20R,1.500000X1.500000*%
G04 #@! TD*
G04 #@! TA.AperFunction,ViaPad*
%ADD21C,0.800000*%
G04 #@! TD*
G04 #@! TA.AperFunction,Conductor*
%ADD22C,0.381000*%
G04 #@! TD*
G04 APERTURE END LIST*
D10*
X78105000Y-93345000D03*
X83105000Y-93345000D03*
X83105000Y-97155000D03*
X78105000Y-97155000D03*
X73660000Y-107950000D03*
D11*
X73660000Y-100330000D03*
X87630000Y-100330000D03*
D10*
X87630000Y-107950000D03*
D12*
X87630000Y-92075000D03*
X87630000Y-94615000D03*
D13*
X87630000Y-97155000D03*
D14*
X84455000Y-100330000D03*
D11*
X76835000Y-107950000D03*
X84455000Y-102870000D03*
X76835000Y-105410000D03*
X84455000Y-105410000D03*
X76835000Y-102870000D03*
X84455000Y-107950000D03*
X76835000Y-100330000D03*
D15*
X76835000Y-88265000D03*
D16*
X76835000Y-86265000D03*
D17*
X74922000Y-117496000D03*
D18*
X77462000Y-117496000D03*
X86462000Y-117496000D03*
D17*
X83922000Y-117496000D03*
D13*
X73660000Y-97155000D03*
D12*
X73660000Y-94615000D03*
X73660000Y-92075000D03*
D19*
X83820000Y-87630000D03*
X81280000Y-87630000D03*
D20*
X86360000Y-87630000D03*
D21*
X79530500Y-105410000D03*
D22*
X81280000Y-87630000D02*
X79375000Y-87630000D01*
X78740000Y-88265000D02*
X76835000Y-88265000D01*
X79375000Y-87630000D02*
X78740000Y-88265000D01*
X86462000Y-117496000D02*
X86462000Y-116307000D01*
X86462000Y-116307000D02*
X85725000Y-115570000D01*
X77462000Y-116213000D02*
X77462000Y-117496000D01*
X78105000Y-115570000D02*
X77462000Y-116213000D01*
X78105000Y-100330000D02*
X76835000Y-100330000D01*
X78740000Y-115570000D02*
X78105000Y-115570000D01*
X85725000Y-115570000D02*
X78740000Y-115570000D01*
X78740000Y-100330000D02*
X78105000Y-100330000D01*
X78740000Y-115570000D02*
X78740000Y-100330000D01*
X78740000Y-99695000D02*
X78105000Y-99060000D01*
X78740000Y-100330000D02*
X78740000Y-99695000D01*
X78105000Y-97155000D02*
X78105000Y-99060000D01*
X76835000Y-94615000D02*
X78105000Y-93345000D01*
X73660000Y-94615000D02*
X76835000Y-94615000D01*
X78105000Y-93345000D02*
X78105000Y-92075000D01*
X78105000Y-92075000D02*
X79375000Y-90805000D01*
X79375000Y-90805000D02*
X83185000Y-90805000D01*
X83185000Y-90805000D02*
X84455000Y-90805000D01*
X84455000Y-90805000D02*
X85090000Y-91440000D01*
X85090000Y-91440000D02*
X85090000Y-93980000D01*
X85725000Y-94615000D02*
X87630000Y-94615000D01*
X85090000Y-93980000D02*
X85725000Y-94615000D01*
X86360000Y-88900000D02*
X84455000Y-90805000D01*
X86360000Y-87630000D02*
X86360000Y-88900000D01*
X73660000Y-92075000D02*
X72390000Y-92075000D01*
X72390000Y-92075000D02*
X71755000Y-92710000D01*
X71755000Y-92710000D02*
X71755000Y-102235000D01*
X72390000Y-102870000D02*
X76835000Y-102870000D01*
X71755000Y-102235000D02*
X72390000Y-102870000D01*
X88900000Y-90805000D02*
X87630000Y-92075000D01*
X88900000Y-84455000D02*
X88900000Y-90805000D01*
X74295000Y-83820000D02*
X88265000Y-83820000D01*
X73660000Y-84455000D02*
X74295000Y-83820000D01*
X88265000Y-83820000D02*
X88900000Y-84455000D01*
X73660000Y-92075000D02*
X73660000Y-84455000D01*
X87630000Y-100330000D02*
X85725000Y-98425000D01*
X85725000Y-98425000D02*
X83820000Y-98425000D01*
X83820000Y-98425000D02*
X82550000Y-99695000D01*
X82550000Y-99695000D02*
X82550000Y-104775000D01*
X82550000Y-104775000D02*
X81915000Y-105410000D01*
X81915000Y-105410000D02*
X79530500Y-105410000D01*
X73660000Y-116234000D02*
X74922000Y-117496000D01*
X73660000Y-107950000D02*
X73660000Y-116234000D01*
X87630000Y-107950000D02*
X87630000Y-114935000D01*
X87630000Y-114935000D02*
X88900000Y-116205000D01*
X88900000Y-116205000D02*
X88900000Y-118745000D01*
X88900000Y-118745000D02*
X87630000Y-120015000D01*
X87630000Y-120015000D02*
X85090000Y-120015000D01*
X83922000Y-118847000D02*
X83922000Y-117496000D01*
X85090000Y-120015000D02*
X83922000Y-118847000D01*
M02*
