G04 #@! TF.GenerationSoftware,KiCad,Pcbnew,(5.1.8)-1*
G04 #@! TF.CreationDate,2023-08-31T22:35:53+02:00*
G04 #@! TF.ProjectId,RC Exhaust System,52432045-7868-4617-9573-742053797374,rev?*
G04 #@! TF.SameCoordinates,Original*
G04 #@! TF.FileFunction,Legend,Top*
G04 #@! TF.FilePolarity,Positive*
%FSLAX46Y46*%
G04 Gerber Fmt 4.6, Leading zero omitted, Abs format (unit mm)*
G04 Created by KiCad (PCBNEW (5.1.8)-1) date 2023-08-31 22:35:53*
%MOMM*%
%LPD*%
G01*
G04 APERTURE LIST*
%ADD10C,0.120000*%
%ADD11C,0.150000*%
G04 APERTURE END LIST*
D10*
X78692000Y-117496000D02*
G75*
G03*
X78692000Y-117496000I-2500000J0D01*
G01*
X73632000Y-115951000D02*
X73632000Y-119041000D01*
X79182000Y-117496462D02*
G75*
G03*
X73632000Y-115951170I-2990000J462D01*
G01*
X79182000Y-117495538D02*
G75*
G02*
X73632000Y-119040830I-2990000J-462D01*
G01*
X82632000Y-115951000D02*
X82632000Y-119041000D01*
X87692000Y-117496000D02*
G75*
G03*
X87692000Y-117496000I-2500000J0D01*
G01*
X88182000Y-117495538D02*
G75*
G02*
X82632000Y-119040830I-2990000J-462D01*
G01*
X88182000Y-117496462D02*
G75*
G03*
X82632000Y-115951170I-2990000J462D01*
G01*
D11*
X75453904Y-113988380D02*
X75453904Y-112988380D01*
X75692000Y-112988380D01*
X75834857Y-113036000D01*
X75930095Y-113131238D01*
X75977714Y-113226476D01*
X76025333Y-113416952D01*
X76025333Y-113559809D01*
X75977714Y-113750285D01*
X75930095Y-113845523D01*
X75834857Y-113940761D01*
X75692000Y-113988380D01*
X75453904Y-113988380D01*
X76977714Y-113988380D02*
X76406285Y-113988380D01*
X76692000Y-113988380D02*
X76692000Y-112988380D01*
X76596761Y-113131238D01*
X76501523Y-113226476D01*
X76406285Y-113274095D01*
X84453904Y-113988380D02*
X84453904Y-112988380D01*
X84692000Y-112988380D01*
X84834857Y-113036000D01*
X84930095Y-113131238D01*
X84977714Y-113226476D01*
X85025333Y-113416952D01*
X85025333Y-113559809D01*
X84977714Y-113750285D01*
X84930095Y-113845523D01*
X84834857Y-113940761D01*
X84692000Y-113988380D01*
X84453904Y-113988380D01*
X85406285Y-113083619D02*
X85453904Y-113036000D01*
X85549142Y-112988380D01*
X85787238Y-112988380D01*
X85882476Y-113036000D01*
X85930095Y-113083619D01*
X85977714Y-113178857D01*
X85977714Y-113274095D01*
X85930095Y-113416952D01*
X85358666Y-113988380D01*
X85977714Y-113988380D01*
M02*
