M48
INCH,TZ
T1C0.0157
T2C0.0236
T3C0.0315
T4C0.0354
T5C0.0394
%
G90
G05
T1
X31311Y-41500
T2
X30250Y-33963
X30250Y-34750
T3
X29000Y-39500
X29000Y-42500
X30250Y-39500
X30250Y-40500
X30250Y-41500
X30250Y-42500
X33250Y-39500
X33250Y-40500
X33250Y-41500
X33250Y-42500
X34500Y-39500
X34500Y-42500
X30750Y-36750
X32719Y-36750
X30750Y-38250
X32719Y-38250
X32000Y-34500
X33000Y-34500
X34000Y-34500
T4
X33040Y-46258
X34040Y-46258
X29497Y-46258
X30497Y-46258
T5
X29000Y-36250
X29000Y-37250
X29000Y-38250
X34500Y-36250
X34500Y-37250
X34500Y-38250
T0
M30
