G04 #@! TF.GenerationSoftware,KiCad,Pcbnew,(5.1.8)-1*
G04 #@! TF.CreationDate,2024-06-23T02:08:37+02:00*
G04 #@! TF.ProjectId,RC Exhaust Digispark,52432045-7868-4617-9573-742044696769,rev?*
G04 #@! TF.SameCoordinates,Original*
G04 #@! TF.FileFunction,Legend,Bot*
G04 #@! TF.FilePolarity,Positive*
%FSLAX46Y46*%
G04 Gerber Fmt 4.6, Leading zero omitted, Abs format (unit mm)*
G04 Created by KiCad (PCBNEW (5.1.8)-1) date 2024-06-23 02:08:37*
%MOMM*%
%LPD*%
G01*
G04 APERTURE LIST*
%ADD10C,0.150000*%
%ADD11C,0.100000*%
G04 APERTURE END LIST*
D10*
X117221000Y-86614000D02*
X121666000Y-86614000D01*
X117221000Y-83566000D02*
X121666000Y-83566000D01*
X117221000Y-86614000D02*
X117221000Y-83566000D01*
X121666000Y-83566000D02*
X121666000Y-86614000D01*
X119380000Y-77851000D02*
X119380000Y-80899000D01*
X115316000Y-80645000D02*
X115316000Y-80899000D01*
X114935000Y-80899000D02*
X114935000Y-77851000D01*
X118872000Y-80899000D02*
X115316000Y-80899000D01*
X114935000Y-77851000D02*
X119380000Y-77851000D01*
X118872000Y-80645000D02*
X118872000Y-80899000D01*
D11*
X122656190Y-83292904D02*
X122656190Y-82492904D01*
X122199047Y-83292904D01*
X122199047Y-82492904D01*
X121665714Y-82492904D02*
X121513333Y-82492904D01*
X121437142Y-82531000D01*
X121360952Y-82607190D01*
X121322857Y-82759571D01*
X121322857Y-83026238D01*
X121360952Y-83178619D01*
X121437142Y-83254809D01*
X121513333Y-83292904D01*
X121665714Y-83292904D01*
X121741904Y-83254809D01*
X121818095Y-83178619D01*
X121856190Y-83026238D01*
X121856190Y-82759571D01*
X121818095Y-82607190D01*
X121741904Y-82531000D01*
X121665714Y-82492904D01*
X121170476Y-83369095D02*
X120560952Y-83369095D01*
X120484761Y-82492904D02*
X120218095Y-83292904D01*
X119951428Y-82492904D01*
X119532380Y-82492904D02*
X119380000Y-82492904D01*
X119303809Y-82531000D01*
X119227619Y-82607190D01*
X119189523Y-82759571D01*
X119189523Y-83026238D01*
X119227619Y-83178619D01*
X119303809Y-83254809D01*
X119380000Y-83292904D01*
X119532380Y-83292904D01*
X119608571Y-83254809D01*
X119684761Y-83178619D01*
X119722857Y-83026238D01*
X119722857Y-82759571D01*
X119684761Y-82607190D01*
X119608571Y-82531000D01*
X119532380Y-82492904D01*
X118465714Y-83292904D02*
X118846666Y-83292904D01*
X118846666Y-82492904D01*
X118389523Y-83369095D02*
X117780000Y-83369095D01*
X117589523Y-83292904D02*
X117589523Y-82492904D01*
X117399047Y-82492904D01*
X117284761Y-82531000D01*
X117208571Y-82607190D01*
X117170476Y-82683380D01*
X117132380Y-82835761D01*
X117132380Y-82950047D01*
X117170476Y-83102428D01*
X117208571Y-83178619D01*
X117284761Y-83254809D01*
X117399047Y-83292904D01*
X117589523Y-83292904D01*
X116789523Y-83292904D02*
X116789523Y-82492904D01*
X116522857Y-82492904D02*
X116256190Y-83292904D01*
X115989523Y-82492904D01*
X118941619Y-81895904D02*
X118941619Y-81095904D01*
X118636857Y-81095904D01*
X118560666Y-81134000D01*
X118522571Y-81172095D01*
X118484476Y-81248285D01*
X118484476Y-81362571D01*
X118522571Y-81438761D01*
X118560666Y-81476857D01*
X118636857Y-81514952D01*
X118941619Y-81514952D01*
X117989238Y-81095904D02*
X117836857Y-81095904D01*
X117760666Y-81134000D01*
X117684476Y-81210190D01*
X117646380Y-81362571D01*
X117646380Y-81629238D01*
X117684476Y-81781619D01*
X117760666Y-81857809D01*
X117836857Y-81895904D01*
X117989238Y-81895904D01*
X118065428Y-81857809D01*
X118141619Y-81781619D01*
X118179714Y-81629238D01*
X118179714Y-81362571D01*
X118141619Y-81210190D01*
X118065428Y-81134000D01*
X117989238Y-81095904D01*
X117379714Y-81095904D02*
X117189238Y-81895904D01*
X117036857Y-81324476D01*
X116884476Y-81895904D01*
X116694000Y-81095904D01*
X116389238Y-81476857D02*
X116122571Y-81476857D01*
X116008285Y-81895904D02*
X116389238Y-81895904D01*
X116389238Y-81095904D01*
X116008285Y-81095904D01*
X115208285Y-81895904D02*
X115474952Y-81514952D01*
X115665428Y-81895904D02*
X115665428Y-81095904D01*
X115360666Y-81095904D01*
X115284476Y-81134000D01*
X115246380Y-81172095D01*
X115208285Y-81248285D01*
X115208285Y-81362571D01*
X115246380Y-81438761D01*
X115284476Y-81476857D01*
X115360666Y-81514952D01*
X115665428Y-81514952D01*
M02*
