G04 #@! TF.GenerationSoftware,KiCad,Pcbnew,(5.1.8)-1*
G04 #@! TF.CreationDate,2024-06-23T02:08:37+02:00*
G04 #@! TF.ProjectId,RC Exhaust Digispark,52432045-7868-4617-9573-742044696769,rev?*
G04 #@! TF.SameCoordinates,Original*
G04 #@! TF.FileFunction,Copper,L2,Bot*
G04 #@! TF.FilePolarity,Positive*
%FSLAX46Y46*%
G04 Gerber Fmt 4.6, Leading zero omitted, Abs format (unit mm)*
G04 Created by KiCad (PCBNEW (5.1.8)-1) date 2024-06-23 02:08:37*
%MOMM*%
%LPD*%
G01*
G04 APERTURE LIST*
G04 #@! TA.AperFunction,ComponentPad*
%ADD10C,1.600000*%
G04 #@! TD*
G04 #@! TA.AperFunction,ComponentPad*
%ADD11O,1.600000X1.600000*%
G04 #@! TD*
G04 #@! TA.AperFunction,ComponentPad*
%ADD12O,1.700000X1.700000*%
G04 #@! TD*
G04 #@! TA.AperFunction,ComponentPad*
%ADD13R,1.700000X1.700000*%
G04 #@! TD*
G04 #@! TA.AperFunction,ComponentPad*
%ADD14O,1.700000X1.950000*%
G04 #@! TD*
G04 #@! TA.AperFunction,ComponentPad*
%ADD15C,1.700000*%
G04 #@! TD*
G04 #@! TA.AperFunction,SMDPad,CuDef*
%ADD16R,1.500000X2.000000*%
G04 #@! TD*
G04 #@! TA.AperFunction,ComponentPad*
%ADD17R,2.200000X2.200000*%
G04 #@! TD*
G04 #@! TA.AperFunction,ComponentPad*
%ADD18O,2.200000X2.200000*%
G04 #@! TD*
G04 #@! TA.AperFunction,ViaPad*
%ADD19C,0.800000*%
G04 #@! TD*
G04 #@! TA.AperFunction,Conductor*
%ADD20C,0.381000*%
G04 #@! TD*
G04 #@! TA.AperFunction,Conductor*
%ADD21C,0.254000*%
G04 #@! TD*
G04 #@! TA.AperFunction,Conductor*
%ADD22C,0.100000*%
G04 #@! TD*
G04 APERTURE END LIST*
D10*
X113665000Y-96520000D03*
D11*
X106045000Y-96520000D03*
X116205000Y-96520000D03*
D10*
X123825000Y-96520000D03*
D12*
X102870000Y-95250000D03*
X102870000Y-92710000D03*
D13*
X102870000Y-90170000D03*
X102870000Y-79375000D03*
D12*
X102870000Y-81915000D03*
X102870000Y-84455000D03*
D10*
X101600000Y-100330000D03*
D11*
X109220000Y-100330000D03*
X115570000Y-85090000D03*
D10*
X123190000Y-85090000D03*
X115570000Y-88265000D03*
D11*
X123190000Y-88265000D03*
G04 #@! TA.AperFunction,ComponentPad*
G36*
G01*
X113450000Y-102960000D02*
X113450000Y-101510000D01*
G75*
G02*
X113700000Y-101260000I250000J0D01*
G01*
X114900000Y-101260000D01*
G75*
G02*
X115150000Y-101510000I0J-250000D01*
G01*
X115150000Y-102960000D01*
G75*
G02*
X114900000Y-103210000I-250000J0D01*
G01*
X113700000Y-103210000D01*
G75*
G02*
X113450000Y-102960000I0J250000D01*
G01*
G37*
G04 #@! TD.AperFunction*
D14*
X116800000Y-102235000D03*
X119300000Y-102235000D03*
X121800000Y-102235000D03*
D15*
X117475000Y-92075000D03*
X120015000Y-92075000D03*
X107315000Y-81915000D03*
X109855000Y-92075000D03*
X112395000Y-92075000D03*
X114935000Y-92075000D03*
X107315000Y-79375000D03*
X107315000Y-84455000D03*
X122555000Y-92075000D03*
D16*
X120396000Y-85090000D03*
X118491000Y-85090000D03*
D17*
X122555000Y-79375000D03*
D18*
X112395000Y-79375000D03*
D16*
X118110000Y-79375000D03*
X116205000Y-79375000D03*
D19*
X120015000Y-83185000D03*
X114300000Y-81915000D03*
D20*
X118491000Y-85090000D02*
X115570000Y-85090000D01*
X123190000Y-85090000D02*
X120396000Y-85090000D01*
X120396000Y-83566000D02*
X120396000Y-85090000D01*
X120015000Y-83185000D02*
X120396000Y-83566000D01*
X114300000Y-81915000D02*
X114300000Y-80645000D01*
X115570000Y-79375000D02*
X116205000Y-79375000D01*
X114300000Y-80645000D02*
X115570000Y-79375000D01*
X122555000Y-79375000D02*
X118110000Y-79375000D01*
D21*
X101489463Y-78170506D02*
X101430498Y-78280820D01*
X101394188Y-78400518D01*
X101381928Y-78525000D01*
X101385000Y-79089250D01*
X101543750Y-79248000D01*
X102743000Y-79248000D01*
X102743000Y-79228000D01*
X102997000Y-79228000D01*
X102997000Y-79248000D01*
X104196250Y-79248000D01*
X104355000Y-79089250D01*
X104358072Y-78525000D01*
X104345812Y-78400518D01*
X104309502Y-78280820D01*
X104250537Y-78170506D01*
X104217295Y-78130000D01*
X106505345Y-78130000D01*
X106368368Y-78221525D01*
X106161525Y-78428368D01*
X105999010Y-78671589D01*
X105887068Y-78941842D01*
X105830000Y-79228740D01*
X105830000Y-79521260D01*
X105887068Y-79808158D01*
X105999010Y-80078411D01*
X106161525Y-80321632D01*
X106368368Y-80528475D01*
X106541729Y-80644311D01*
X106466208Y-80886603D01*
X107315000Y-81735395D01*
X108163792Y-80886603D01*
X108088271Y-80644311D01*
X108261632Y-80528475D01*
X108468475Y-80321632D01*
X108630990Y-80078411D01*
X108742932Y-79808158D01*
X108800000Y-79521260D01*
X108800000Y-79228740D01*
X108742932Y-78941842D01*
X108630990Y-78671589D01*
X108468475Y-78428368D01*
X108261632Y-78221525D01*
X108124655Y-78130000D01*
X111186339Y-78130000D01*
X111047337Y-78269002D01*
X110857463Y-78553169D01*
X110726675Y-78868919D01*
X110660000Y-79204117D01*
X110660000Y-79545883D01*
X110726675Y-79881081D01*
X110857463Y-80196831D01*
X111047337Y-80480998D01*
X111289002Y-80722663D01*
X111573169Y-80912537D01*
X111888919Y-81043325D01*
X112224117Y-81110000D01*
X112565883Y-81110000D01*
X112901081Y-81043325D01*
X113216831Y-80912537D01*
X113474501Y-80740368D01*
X113474500Y-81287497D01*
X113382795Y-81424744D01*
X113304774Y-81613102D01*
X113265000Y-81813061D01*
X113265000Y-82016939D01*
X113304774Y-82216898D01*
X113382795Y-82405256D01*
X113496063Y-82574774D01*
X113640226Y-82718937D01*
X113809744Y-82832205D01*
X113998102Y-82910226D01*
X114198061Y-82950000D01*
X114401939Y-82950000D01*
X114601898Y-82910226D01*
X114790256Y-82832205D01*
X114959774Y-82718937D01*
X115103937Y-82574774D01*
X115217205Y-82405256D01*
X115295226Y-82216898D01*
X115335000Y-82016939D01*
X115335000Y-81813061D01*
X115295226Y-81613102D01*
X115217205Y-81424744D01*
X115125500Y-81287497D01*
X115125500Y-80986932D01*
X115169837Y-80942596D01*
X115210820Y-80964502D01*
X115330518Y-81000812D01*
X115455000Y-81013072D01*
X116955000Y-81013072D01*
X117079482Y-81000812D01*
X117157500Y-80977145D01*
X117235518Y-81000812D01*
X117360000Y-81013072D01*
X118860000Y-81013072D01*
X118984482Y-81000812D01*
X119104180Y-80964502D01*
X119214494Y-80905537D01*
X119311185Y-80826185D01*
X119390537Y-80729494D01*
X119449502Y-80619180D01*
X119485812Y-80499482D01*
X119498072Y-80375000D01*
X119498072Y-80200500D01*
X120816928Y-80200500D01*
X120816928Y-80475000D01*
X120829188Y-80599482D01*
X120865498Y-80719180D01*
X120924463Y-80829494D01*
X121003815Y-80926185D01*
X121100506Y-81005537D01*
X121210820Y-81064502D01*
X121330518Y-81100812D01*
X121455000Y-81113072D01*
X123655000Y-81113072D01*
X123779482Y-81100812D01*
X123899180Y-81064502D01*
X124009494Y-81005537D01*
X124106185Y-80926185D01*
X124185537Y-80829494D01*
X124244502Y-80719180D01*
X124280812Y-80599482D01*
X124293072Y-80475000D01*
X124293072Y-78275000D01*
X124280812Y-78150518D01*
X124274588Y-78130000D01*
X124724921Y-78130000D01*
X124722854Y-95394068D01*
X124504727Y-95248320D01*
X124243574Y-95140147D01*
X123966335Y-95085000D01*
X123683665Y-95085000D01*
X123406426Y-95140147D01*
X123145273Y-95248320D01*
X122910241Y-95405363D01*
X122710363Y-95605241D01*
X122553320Y-95840273D01*
X122445147Y-96101426D01*
X122390000Y-96378665D01*
X122390000Y-96661335D01*
X122445147Y-96938574D01*
X122553320Y-97199727D01*
X122710363Y-97434759D01*
X122910241Y-97634637D01*
X123145273Y-97791680D01*
X123406426Y-97899853D01*
X123683665Y-97955000D01*
X123966335Y-97955000D01*
X124243574Y-97899853D01*
X124504727Y-97791680D01*
X124722585Y-97646113D01*
X124722005Y-102488673D01*
X124653381Y-103188551D01*
X124459512Y-103830677D01*
X124144612Y-104422917D01*
X123720680Y-104942708D01*
X123203852Y-105370266D01*
X122613829Y-105689291D01*
X121973068Y-105887640D01*
X121275088Y-105961000D01*
X104269279Y-105961000D01*
X103569449Y-105892381D01*
X102927323Y-105698512D01*
X102335083Y-105383612D01*
X101815292Y-104959680D01*
X101387734Y-104442852D01*
X101068709Y-103852829D01*
X100870360Y-103212068D01*
X100797000Y-102514088D01*
X100797000Y-101519312D01*
X100920273Y-101601680D01*
X101181426Y-101709853D01*
X101458665Y-101765000D01*
X101741335Y-101765000D01*
X102018574Y-101709853D01*
X102279727Y-101601680D01*
X102514759Y-101444637D01*
X102714637Y-101244759D01*
X102871680Y-101009727D01*
X102979853Y-100748574D01*
X103035000Y-100471335D01*
X103035000Y-100188665D01*
X107785000Y-100188665D01*
X107785000Y-100471335D01*
X107840147Y-100748574D01*
X107948320Y-101009727D01*
X108105363Y-101244759D01*
X108305241Y-101444637D01*
X108540273Y-101601680D01*
X108801426Y-101709853D01*
X109078665Y-101765000D01*
X109361335Y-101765000D01*
X109638574Y-101709853D01*
X109899727Y-101601680D01*
X110036936Y-101510000D01*
X112811928Y-101510000D01*
X112811928Y-102960000D01*
X112828992Y-103133254D01*
X112879528Y-103299850D01*
X112961595Y-103453386D01*
X113072038Y-103587962D01*
X113206614Y-103698405D01*
X113360150Y-103780472D01*
X113526746Y-103831008D01*
X113700000Y-103848072D01*
X114900000Y-103848072D01*
X115073254Y-103831008D01*
X115239850Y-103780472D01*
X115393386Y-103698405D01*
X115527962Y-103587962D01*
X115638405Y-103453386D01*
X115692777Y-103351663D01*
X115744866Y-103415134D01*
X115970987Y-103600706D01*
X116228967Y-103738599D01*
X116508890Y-103823513D01*
X116800000Y-103852185D01*
X117091111Y-103823513D01*
X117371034Y-103738599D01*
X117629014Y-103600706D01*
X117855134Y-103415134D01*
X118040706Y-103189014D01*
X118050000Y-103171626D01*
X118059294Y-103189014D01*
X118244866Y-103415134D01*
X118470987Y-103600706D01*
X118728967Y-103738599D01*
X119008890Y-103823513D01*
X119300000Y-103852185D01*
X119591111Y-103823513D01*
X119871034Y-103738599D01*
X120129014Y-103600706D01*
X120355134Y-103415134D01*
X120540706Y-103189014D01*
X120550000Y-103171626D01*
X120559294Y-103189014D01*
X120744866Y-103415134D01*
X120970987Y-103600706D01*
X121228967Y-103738599D01*
X121508890Y-103823513D01*
X121800000Y-103852185D01*
X122091111Y-103823513D01*
X122371034Y-103738599D01*
X122629014Y-103600706D01*
X122855134Y-103415134D01*
X123040706Y-103189014D01*
X123178599Y-102931033D01*
X123263513Y-102651110D01*
X123285000Y-102432949D01*
X123285000Y-102037050D01*
X123263513Y-101818889D01*
X123178599Y-101538966D01*
X123040706Y-101280986D01*
X122855134Y-101054866D01*
X122629013Y-100869294D01*
X122371033Y-100731401D01*
X122091110Y-100646487D01*
X121800000Y-100617815D01*
X121508889Y-100646487D01*
X121228966Y-100731401D01*
X120970986Y-100869294D01*
X120744866Y-101054866D01*
X120559294Y-101280987D01*
X120550000Y-101298374D01*
X120540706Y-101280986D01*
X120355134Y-101054866D01*
X120129013Y-100869294D01*
X119871033Y-100731401D01*
X119591110Y-100646487D01*
X119300000Y-100617815D01*
X119008889Y-100646487D01*
X118728966Y-100731401D01*
X118470986Y-100869294D01*
X118244866Y-101054866D01*
X118059294Y-101280987D01*
X118050000Y-101298374D01*
X118040706Y-101280986D01*
X117855134Y-101054866D01*
X117629013Y-100869294D01*
X117371033Y-100731401D01*
X117091110Y-100646487D01*
X116800000Y-100617815D01*
X116508889Y-100646487D01*
X116228966Y-100731401D01*
X115970986Y-100869294D01*
X115744866Y-101054866D01*
X115692777Y-101118337D01*
X115638405Y-101016614D01*
X115527962Y-100882038D01*
X115393386Y-100771595D01*
X115239850Y-100689528D01*
X115073254Y-100638992D01*
X114900000Y-100621928D01*
X113700000Y-100621928D01*
X113526746Y-100638992D01*
X113360150Y-100689528D01*
X113206614Y-100771595D01*
X113072038Y-100882038D01*
X112961595Y-101016614D01*
X112879528Y-101170150D01*
X112828992Y-101336746D01*
X112811928Y-101510000D01*
X110036936Y-101510000D01*
X110134759Y-101444637D01*
X110334637Y-101244759D01*
X110491680Y-101009727D01*
X110599853Y-100748574D01*
X110655000Y-100471335D01*
X110655000Y-100188665D01*
X110599853Y-99911426D01*
X110491680Y-99650273D01*
X110334637Y-99415241D01*
X110134759Y-99215363D01*
X109899727Y-99058320D01*
X109638574Y-98950147D01*
X109361335Y-98895000D01*
X109078665Y-98895000D01*
X108801426Y-98950147D01*
X108540273Y-99058320D01*
X108305241Y-99215363D01*
X108105363Y-99415241D01*
X107948320Y-99650273D01*
X107840147Y-99911426D01*
X107785000Y-100188665D01*
X103035000Y-100188665D01*
X102979853Y-99911426D01*
X102871680Y-99650273D01*
X102714637Y-99415241D01*
X102514759Y-99215363D01*
X102279727Y-99058320D01*
X102018574Y-98950147D01*
X101741335Y-98895000D01*
X101458665Y-98895000D01*
X101181426Y-98950147D01*
X100920273Y-99058320D01*
X100797000Y-99140688D01*
X100797000Y-91020000D01*
X101381928Y-91020000D01*
X101394188Y-91144482D01*
X101430498Y-91264180D01*
X101489463Y-91374494D01*
X101568815Y-91471185D01*
X101665506Y-91550537D01*
X101775820Y-91609502D01*
X101848380Y-91631513D01*
X101716525Y-91763368D01*
X101554010Y-92006589D01*
X101442068Y-92276842D01*
X101385000Y-92563740D01*
X101385000Y-92856260D01*
X101442068Y-93143158D01*
X101554010Y-93413411D01*
X101716525Y-93656632D01*
X101923368Y-93863475D01*
X102097760Y-93980000D01*
X101923368Y-94096525D01*
X101716525Y-94303368D01*
X101554010Y-94546589D01*
X101442068Y-94816842D01*
X101385000Y-95103740D01*
X101385000Y-95396260D01*
X101442068Y-95683158D01*
X101554010Y-95953411D01*
X101716525Y-96196632D01*
X101923368Y-96403475D01*
X102166589Y-96565990D01*
X102436842Y-96677932D01*
X102723740Y-96735000D01*
X103016260Y-96735000D01*
X103303158Y-96677932D01*
X103573411Y-96565990D01*
X103816632Y-96403475D01*
X103841442Y-96378665D01*
X104610000Y-96378665D01*
X104610000Y-96661335D01*
X104665147Y-96938574D01*
X104773320Y-97199727D01*
X104930363Y-97434759D01*
X105130241Y-97634637D01*
X105365273Y-97791680D01*
X105626426Y-97899853D01*
X105903665Y-97955000D01*
X106186335Y-97955000D01*
X106463574Y-97899853D01*
X106724727Y-97791680D01*
X106959759Y-97634637D01*
X107159637Y-97434759D01*
X107316680Y-97199727D01*
X107424853Y-96938574D01*
X107480000Y-96661335D01*
X107480000Y-96378665D01*
X112230000Y-96378665D01*
X112230000Y-96661335D01*
X112285147Y-96938574D01*
X112393320Y-97199727D01*
X112550363Y-97434759D01*
X112750241Y-97634637D01*
X112985273Y-97791680D01*
X113246426Y-97899853D01*
X113523665Y-97955000D01*
X113806335Y-97955000D01*
X114083574Y-97899853D01*
X114344727Y-97791680D01*
X114579759Y-97634637D01*
X114779637Y-97434759D01*
X114935000Y-97202241D01*
X115090363Y-97434759D01*
X115290241Y-97634637D01*
X115525273Y-97791680D01*
X115786426Y-97899853D01*
X116063665Y-97955000D01*
X116346335Y-97955000D01*
X116623574Y-97899853D01*
X116884727Y-97791680D01*
X117119759Y-97634637D01*
X117319637Y-97434759D01*
X117476680Y-97199727D01*
X117584853Y-96938574D01*
X117640000Y-96661335D01*
X117640000Y-96378665D01*
X117584853Y-96101426D01*
X117476680Y-95840273D01*
X117319637Y-95605241D01*
X117119759Y-95405363D01*
X116884727Y-95248320D01*
X116623574Y-95140147D01*
X116346335Y-95085000D01*
X116063665Y-95085000D01*
X115786426Y-95140147D01*
X115525273Y-95248320D01*
X115290241Y-95405363D01*
X115090363Y-95605241D01*
X114935000Y-95837759D01*
X114779637Y-95605241D01*
X114579759Y-95405363D01*
X114344727Y-95248320D01*
X114083574Y-95140147D01*
X113806335Y-95085000D01*
X113523665Y-95085000D01*
X113246426Y-95140147D01*
X112985273Y-95248320D01*
X112750241Y-95405363D01*
X112550363Y-95605241D01*
X112393320Y-95840273D01*
X112285147Y-96101426D01*
X112230000Y-96378665D01*
X107480000Y-96378665D01*
X107424853Y-96101426D01*
X107316680Y-95840273D01*
X107159637Y-95605241D01*
X106959759Y-95405363D01*
X106724727Y-95248320D01*
X106463574Y-95140147D01*
X106186335Y-95085000D01*
X105903665Y-95085000D01*
X105626426Y-95140147D01*
X105365273Y-95248320D01*
X105130241Y-95405363D01*
X104930363Y-95605241D01*
X104773320Y-95840273D01*
X104665147Y-96101426D01*
X104610000Y-96378665D01*
X103841442Y-96378665D01*
X104023475Y-96196632D01*
X104185990Y-95953411D01*
X104297932Y-95683158D01*
X104355000Y-95396260D01*
X104355000Y-95103740D01*
X104297932Y-94816842D01*
X104185990Y-94546589D01*
X104023475Y-94303368D01*
X103816632Y-94096525D01*
X103642240Y-93980000D01*
X103816632Y-93863475D01*
X104023475Y-93656632D01*
X104185990Y-93413411D01*
X104297932Y-93143158D01*
X104355000Y-92856260D01*
X104355000Y-92563740D01*
X104297932Y-92276842D01*
X104185990Y-92006589D01*
X104133973Y-91928740D01*
X108370000Y-91928740D01*
X108370000Y-92221260D01*
X108427068Y-92508158D01*
X108539010Y-92778411D01*
X108701525Y-93021632D01*
X108908368Y-93228475D01*
X109151589Y-93390990D01*
X109421842Y-93502932D01*
X109708740Y-93560000D01*
X110001260Y-93560000D01*
X110288158Y-93502932D01*
X110558411Y-93390990D01*
X110801632Y-93228475D01*
X111008475Y-93021632D01*
X111125000Y-92847240D01*
X111241525Y-93021632D01*
X111448368Y-93228475D01*
X111691589Y-93390990D01*
X111961842Y-93502932D01*
X112248740Y-93560000D01*
X112541260Y-93560000D01*
X112828158Y-93502932D01*
X113098411Y-93390990D01*
X113341632Y-93228475D01*
X113548475Y-93021632D01*
X113665000Y-92847240D01*
X113781525Y-93021632D01*
X113988368Y-93228475D01*
X114231589Y-93390990D01*
X114501842Y-93502932D01*
X114788740Y-93560000D01*
X115081260Y-93560000D01*
X115368158Y-93502932D01*
X115638411Y-93390990D01*
X115881632Y-93228475D01*
X116088475Y-93021632D01*
X116205000Y-92847240D01*
X116321525Y-93021632D01*
X116528368Y-93228475D01*
X116771589Y-93390990D01*
X117041842Y-93502932D01*
X117328740Y-93560000D01*
X117621260Y-93560000D01*
X117908158Y-93502932D01*
X118178411Y-93390990D01*
X118421632Y-93228475D01*
X118628475Y-93021632D01*
X118745000Y-92847240D01*
X118861525Y-93021632D01*
X119068368Y-93228475D01*
X119311589Y-93390990D01*
X119581842Y-93502932D01*
X119868740Y-93560000D01*
X120161260Y-93560000D01*
X120448158Y-93502932D01*
X120718411Y-93390990D01*
X120961632Y-93228475D01*
X121168475Y-93021632D01*
X121285000Y-92847240D01*
X121401525Y-93021632D01*
X121608368Y-93228475D01*
X121851589Y-93390990D01*
X122121842Y-93502932D01*
X122408740Y-93560000D01*
X122701260Y-93560000D01*
X122988158Y-93502932D01*
X123258411Y-93390990D01*
X123501632Y-93228475D01*
X123708475Y-93021632D01*
X123870990Y-92778411D01*
X123982932Y-92508158D01*
X124040000Y-92221260D01*
X124040000Y-91928740D01*
X123982932Y-91641842D01*
X123870990Y-91371589D01*
X123708475Y-91128368D01*
X123501632Y-90921525D01*
X123258411Y-90759010D01*
X122988158Y-90647068D01*
X122701260Y-90590000D01*
X122408740Y-90590000D01*
X122121842Y-90647068D01*
X121851589Y-90759010D01*
X121608368Y-90921525D01*
X121401525Y-91128368D01*
X121285000Y-91302760D01*
X121168475Y-91128368D01*
X120961632Y-90921525D01*
X120718411Y-90759010D01*
X120448158Y-90647068D01*
X120161260Y-90590000D01*
X119868740Y-90590000D01*
X119581842Y-90647068D01*
X119311589Y-90759010D01*
X119068368Y-90921525D01*
X118861525Y-91128368D01*
X118745000Y-91302760D01*
X118628475Y-91128368D01*
X118421632Y-90921525D01*
X118178411Y-90759010D01*
X117908158Y-90647068D01*
X117621260Y-90590000D01*
X117328740Y-90590000D01*
X117041842Y-90647068D01*
X116771589Y-90759010D01*
X116528368Y-90921525D01*
X116321525Y-91128368D01*
X116205000Y-91302760D01*
X116088475Y-91128368D01*
X115881632Y-90921525D01*
X115638411Y-90759010D01*
X115368158Y-90647068D01*
X115081260Y-90590000D01*
X114788740Y-90590000D01*
X114501842Y-90647068D01*
X114231589Y-90759010D01*
X113988368Y-90921525D01*
X113781525Y-91128368D01*
X113665000Y-91302760D01*
X113548475Y-91128368D01*
X113341632Y-90921525D01*
X113098411Y-90759010D01*
X112828158Y-90647068D01*
X112541260Y-90590000D01*
X112248740Y-90590000D01*
X111961842Y-90647068D01*
X111691589Y-90759010D01*
X111448368Y-90921525D01*
X111241525Y-91128368D01*
X111125000Y-91302760D01*
X111008475Y-91128368D01*
X110801632Y-90921525D01*
X110558411Y-90759010D01*
X110288158Y-90647068D01*
X110001260Y-90590000D01*
X109708740Y-90590000D01*
X109421842Y-90647068D01*
X109151589Y-90759010D01*
X108908368Y-90921525D01*
X108701525Y-91128368D01*
X108539010Y-91371589D01*
X108427068Y-91641842D01*
X108370000Y-91928740D01*
X104133973Y-91928740D01*
X104023475Y-91763368D01*
X103891620Y-91631513D01*
X103964180Y-91609502D01*
X104074494Y-91550537D01*
X104171185Y-91471185D01*
X104250537Y-91374494D01*
X104309502Y-91264180D01*
X104345812Y-91144482D01*
X104358072Y-91020000D01*
X104355000Y-90455750D01*
X104196250Y-90297000D01*
X102997000Y-90297000D01*
X102997000Y-90317000D01*
X102743000Y-90317000D01*
X102743000Y-90297000D01*
X101543750Y-90297000D01*
X101385000Y-90455750D01*
X101381928Y-91020000D01*
X100797000Y-91020000D01*
X100797000Y-89320000D01*
X101381928Y-89320000D01*
X101385000Y-89884250D01*
X101543750Y-90043000D01*
X102743000Y-90043000D01*
X102743000Y-88843750D01*
X102997000Y-88843750D01*
X102997000Y-90043000D01*
X104196250Y-90043000D01*
X104355000Y-89884250D01*
X104358072Y-89320000D01*
X104345812Y-89195518D01*
X104309502Y-89075820D01*
X104250537Y-88965506D01*
X104171185Y-88868815D01*
X104074494Y-88789463D01*
X103964180Y-88730498D01*
X103844482Y-88694188D01*
X103720000Y-88681928D01*
X103155750Y-88685000D01*
X102997000Y-88843750D01*
X102743000Y-88843750D01*
X102584250Y-88685000D01*
X102020000Y-88681928D01*
X101895518Y-88694188D01*
X101775820Y-88730498D01*
X101665506Y-88789463D01*
X101568815Y-88868815D01*
X101489463Y-88965506D01*
X101430498Y-89075820D01*
X101394188Y-89195518D01*
X101381928Y-89320000D01*
X100797000Y-89320000D01*
X100797000Y-88123665D01*
X114135000Y-88123665D01*
X114135000Y-88406335D01*
X114190147Y-88683574D01*
X114298320Y-88944727D01*
X114455363Y-89179759D01*
X114655241Y-89379637D01*
X114890273Y-89536680D01*
X115151426Y-89644853D01*
X115428665Y-89700000D01*
X115711335Y-89700000D01*
X115988574Y-89644853D01*
X116249727Y-89536680D01*
X116484759Y-89379637D01*
X116684637Y-89179759D01*
X116841680Y-88944727D01*
X116949853Y-88683574D01*
X116963684Y-88614039D01*
X121798096Y-88614039D01*
X121838754Y-88748087D01*
X121958963Y-89002420D01*
X122126481Y-89228414D01*
X122334869Y-89417385D01*
X122576119Y-89562070D01*
X122840960Y-89656909D01*
X123063000Y-89535624D01*
X123063000Y-88392000D01*
X123317000Y-88392000D01*
X123317000Y-89535624D01*
X123539040Y-89656909D01*
X123803881Y-89562070D01*
X124045131Y-89417385D01*
X124253519Y-89228414D01*
X124421037Y-89002420D01*
X124541246Y-88748087D01*
X124581904Y-88614039D01*
X124459915Y-88392000D01*
X123317000Y-88392000D01*
X123063000Y-88392000D01*
X121920085Y-88392000D01*
X121798096Y-88614039D01*
X116963684Y-88614039D01*
X117005000Y-88406335D01*
X117005000Y-88123665D01*
X116963685Y-87915961D01*
X121798096Y-87915961D01*
X121920085Y-88138000D01*
X123063000Y-88138000D01*
X123063000Y-86994376D01*
X123317000Y-86994376D01*
X123317000Y-88138000D01*
X124459915Y-88138000D01*
X124581904Y-87915961D01*
X124541246Y-87781913D01*
X124421037Y-87527580D01*
X124253519Y-87301586D01*
X124045131Y-87112615D01*
X123803881Y-86967930D01*
X123539040Y-86873091D01*
X123317000Y-86994376D01*
X123063000Y-86994376D01*
X122840960Y-86873091D01*
X122576119Y-86967930D01*
X122334869Y-87112615D01*
X122126481Y-87301586D01*
X121958963Y-87527580D01*
X121838754Y-87781913D01*
X121798096Y-87915961D01*
X116963685Y-87915961D01*
X116949853Y-87846426D01*
X116841680Y-87585273D01*
X116684637Y-87350241D01*
X116484759Y-87150363D01*
X116249727Y-86993320D01*
X115988574Y-86885147D01*
X115711335Y-86830000D01*
X115428665Y-86830000D01*
X115151426Y-86885147D01*
X114890273Y-86993320D01*
X114655241Y-87150363D01*
X114455363Y-87350241D01*
X114298320Y-87585273D01*
X114190147Y-87846426D01*
X114135000Y-88123665D01*
X100797000Y-88123665D01*
X100797000Y-80225000D01*
X101381928Y-80225000D01*
X101394188Y-80349482D01*
X101430498Y-80469180D01*
X101489463Y-80579494D01*
X101568815Y-80676185D01*
X101665506Y-80755537D01*
X101775820Y-80814502D01*
X101848380Y-80836513D01*
X101716525Y-80968368D01*
X101554010Y-81211589D01*
X101442068Y-81481842D01*
X101385000Y-81768740D01*
X101385000Y-82061260D01*
X101442068Y-82348158D01*
X101554010Y-82618411D01*
X101716525Y-82861632D01*
X101923368Y-83068475D01*
X102097760Y-83185000D01*
X101923368Y-83301525D01*
X101716525Y-83508368D01*
X101554010Y-83751589D01*
X101442068Y-84021842D01*
X101385000Y-84308740D01*
X101385000Y-84601260D01*
X101442068Y-84888158D01*
X101554010Y-85158411D01*
X101716525Y-85401632D01*
X101923368Y-85608475D01*
X102166589Y-85770990D01*
X102436842Y-85882932D01*
X102723740Y-85940000D01*
X103016260Y-85940000D01*
X103303158Y-85882932D01*
X103573411Y-85770990D01*
X103816632Y-85608475D01*
X104023475Y-85401632D01*
X104185990Y-85158411D01*
X104297932Y-84888158D01*
X104355000Y-84601260D01*
X104355000Y-84308740D01*
X105830000Y-84308740D01*
X105830000Y-84601260D01*
X105887068Y-84888158D01*
X105999010Y-85158411D01*
X106161525Y-85401632D01*
X106368368Y-85608475D01*
X106611589Y-85770990D01*
X106881842Y-85882932D01*
X107168740Y-85940000D01*
X107461260Y-85940000D01*
X107748158Y-85882932D01*
X108018411Y-85770990D01*
X108261632Y-85608475D01*
X108468475Y-85401632D01*
X108630990Y-85158411D01*
X108717869Y-84948665D01*
X114135000Y-84948665D01*
X114135000Y-85231335D01*
X114190147Y-85508574D01*
X114298320Y-85769727D01*
X114455363Y-86004759D01*
X114655241Y-86204637D01*
X114890273Y-86361680D01*
X115151426Y-86469853D01*
X115428665Y-86525000D01*
X115711335Y-86525000D01*
X115988574Y-86469853D01*
X116249727Y-86361680D01*
X116484759Y-86204637D01*
X116684637Y-86004759D01*
X116744278Y-85915500D01*
X117102928Y-85915500D01*
X117102928Y-86090000D01*
X117115188Y-86214482D01*
X117151498Y-86334180D01*
X117210463Y-86444494D01*
X117289815Y-86541185D01*
X117386506Y-86620537D01*
X117496820Y-86679502D01*
X117616518Y-86715812D01*
X117741000Y-86728072D01*
X119241000Y-86728072D01*
X119365482Y-86715812D01*
X119443500Y-86692145D01*
X119521518Y-86715812D01*
X119646000Y-86728072D01*
X121146000Y-86728072D01*
X121270482Y-86715812D01*
X121390180Y-86679502D01*
X121500494Y-86620537D01*
X121597185Y-86541185D01*
X121676537Y-86444494D01*
X121735502Y-86334180D01*
X121771812Y-86214482D01*
X121784072Y-86090000D01*
X121784072Y-85915500D01*
X122015722Y-85915500D01*
X122075363Y-86004759D01*
X122275241Y-86204637D01*
X122510273Y-86361680D01*
X122771426Y-86469853D01*
X123048665Y-86525000D01*
X123331335Y-86525000D01*
X123608574Y-86469853D01*
X123869727Y-86361680D01*
X124104759Y-86204637D01*
X124304637Y-86004759D01*
X124461680Y-85769727D01*
X124569853Y-85508574D01*
X124625000Y-85231335D01*
X124625000Y-84948665D01*
X124569853Y-84671426D01*
X124461680Y-84410273D01*
X124304637Y-84175241D01*
X124104759Y-83975363D01*
X123869727Y-83818320D01*
X123608574Y-83710147D01*
X123331335Y-83655000D01*
X123048665Y-83655000D01*
X122771426Y-83710147D01*
X122510273Y-83818320D01*
X122275241Y-83975363D01*
X122075363Y-84175241D01*
X122015722Y-84264500D01*
X121784072Y-84264500D01*
X121784072Y-84090000D01*
X121771812Y-83965518D01*
X121735502Y-83845820D01*
X121676537Y-83735506D01*
X121597185Y-83638815D01*
X121500494Y-83559463D01*
X121390180Y-83500498D01*
X121270482Y-83464188D01*
X121214928Y-83458717D01*
X121209556Y-83404174D01*
X121162353Y-83248566D01*
X121085699Y-83105158D01*
X121044381Y-83054811D01*
X121010226Y-82883102D01*
X120932205Y-82694744D01*
X120818937Y-82525226D01*
X120674774Y-82381063D01*
X120505256Y-82267795D01*
X120316898Y-82189774D01*
X120116939Y-82150000D01*
X119913061Y-82150000D01*
X119713102Y-82189774D01*
X119524744Y-82267795D01*
X119355226Y-82381063D01*
X119211063Y-82525226D01*
X119097795Y-82694744D01*
X119019774Y-82883102D01*
X118980000Y-83083061D01*
X118980000Y-83286939D01*
X119012818Y-83451928D01*
X117741000Y-83451928D01*
X117616518Y-83464188D01*
X117496820Y-83500498D01*
X117386506Y-83559463D01*
X117289815Y-83638815D01*
X117210463Y-83735506D01*
X117151498Y-83845820D01*
X117115188Y-83965518D01*
X117102928Y-84090000D01*
X117102928Y-84264500D01*
X116744278Y-84264500D01*
X116684637Y-84175241D01*
X116484759Y-83975363D01*
X116249727Y-83818320D01*
X115988574Y-83710147D01*
X115711335Y-83655000D01*
X115428665Y-83655000D01*
X115151426Y-83710147D01*
X114890273Y-83818320D01*
X114655241Y-83975363D01*
X114455363Y-84175241D01*
X114298320Y-84410273D01*
X114190147Y-84671426D01*
X114135000Y-84948665D01*
X108717869Y-84948665D01*
X108742932Y-84888158D01*
X108800000Y-84601260D01*
X108800000Y-84308740D01*
X108742932Y-84021842D01*
X108630990Y-83751589D01*
X108468475Y-83508368D01*
X108261632Y-83301525D01*
X108088271Y-83185689D01*
X108163792Y-82943397D01*
X107315000Y-82094605D01*
X106466208Y-82943397D01*
X106541729Y-83185689D01*
X106368368Y-83301525D01*
X106161525Y-83508368D01*
X105999010Y-83751589D01*
X105887068Y-84021842D01*
X105830000Y-84308740D01*
X104355000Y-84308740D01*
X104297932Y-84021842D01*
X104185990Y-83751589D01*
X104023475Y-83508368D01*
X103816632Y-83301525D01*
X103642240Y-83185000D01*
X103816632Y-83068475D01*
X104023475Y-82861632D01*
X104185990Y-82618411D01*
X104297932Y-82348158D01*
X104355000Y-82061260D01*
X104355000Y-81983531D01*
X105824389Y-81983531D01*
X105866401Y-82273019D01*
X105964081Y-82548747D01*
X106037528Y-82686157D01*
X106286603Y-82763792D01*
X107135395Y-81915000D01*
X107494605Y-81915000D01*
X108343397Y-82763792D01*
X108592472Y-82686157D01*
X108718371Y-82422117D01*
X108790339Y-82138589D01*
X108805611Y-81846469D01*
X108763599Y-81556981D01*
X108665919Y-81281253D01*
X108592472Y-81143843D01*
X108343397Y-81066208D01*
X107494605Y-81915000D01*
X107135395Y-81915000D01*
X106286603Y-81066208D01*
X106037528Y-81143843D01*
X105911629Y-81407883D01*
X105839661Y-81691411D01*
X105824389Y-81983531D01*
X104355000Y-81983531D01*
X104355000Y-81768740D01*
X104297932Y-81481842D01*
X104185990Y-81211589D01*
X104023475Y-80968368D01*
X103891620Y-80836513D01*
X103964180Y-80814502D01*
X104074494Y-80755537D01*
X104171185Y-80676185D01*
X104250537Y-80579494D01*
X104309502Y-80469180D01*
X104345812Y-80349482D01*
X104358072Y-80225000D01*
X104355000Y-79660750D01*
X104196250Y-79502000D01*
X102997000Y-79502000D01*
X102997000Y-79522000D01*
X102743000Y-79522000D01*
X102743000Y-79502000D01*
X101543750Y-79502000D01*
X101385000Y-79660750D01*
X101381928Y-80225000D01*
X100797000Y-80225000D01*
X100797000Y-78130000D01*
X101522705Y-78130000D01*
X101489463Y-78170506D01*
G04 #@! TA.AperFunction,Conductor*
D22*
G36*
X101489463Y-78170506D02*
G01*
X101430498Y-78280820D01*
X101394188Y-78400518D01*
X101381928Y-78525000D01*
X101385000Y-79089250D01*
X101543750Y-79248000D01*
X102743000Y-79248000D01*
X102743000Y-79228000D01*
X102997000Y-79228000D01*
X102997000Y-79248000D01*
X104196250Y-79248000D01*
X104355000Y-79089250D01*
X104358072Y-78525000D01*
X104345812Y-78400518D01*
X104309502Y-78280820D01*
X104250537Y-78170506D01*
X104217295Y-78130000D01*
X106505345Y-78130000D01*
X106368368Y-78221525D01*
X106161525Y-78428368D01*
X105999010Y-78671589D01*
X105887068Y-78941842D01*
X105830000Y-79228740D01*
X105830000Y-79521260D01*
X105887068Y-79808158D01*
X105999010Y-80078411D01*
X106161525Y-80321632D01*
X106368368Y-80528475D01*
X106541729Y-80644311D01*
X106466208Y-80886603D01*
X107315000Y-81735395D01*
X108163792Y-80886603D01*
X108088271Y-80644311D01*
X108261632Y-80528475D01*
X108468475Y-80321632D01*
X108630990Y-80078411D01*
X108742932Y-79808158D01*
X108800000Y-79521260D01*
X108800000Y-79228740D01*
X108742932Y-78941842D01*
X108630990Y-78671589D01*
X108468475Y-78428368D01*
X108261632Y-78221525D01*
X108124655Y-78130000D01*
X111186339Y-78130000D01*
X111047337Y-78269002D01*
X110857463Y-78553169D01*
X110726675Y-78868919D01*
X110660000Y-79204117D01*
X110660000Y-79545883D01*
X110726675Y-79881081D01*
X110857463Y-80196831D01*
X111047337Y-80480998D01*
X111289002Y-80722663D01*
X111573169Y-80912537D01*
X111888919Y-81043325D01*
X112224117Y-81110000D01*
X112565883Y-81110000D01*
X112901081Y-81043325D01*
X113216831Y-80912537D01*
X113474501Y-80740368D01*
X113474500Y-81287497D01*
X113382795Y-81424744D01*
X113304774Y-81613102D01*
X113265000Y-81813061D01*
X113265000Y-82016939D01*
X113304774Y-82216898D01*
X113382795Y-82405256D01*
X113496063Y-82574774D01*
X113640226Y-82718937D01*
X113809744Y-82832205D01*
X113998102Y-82910226D01*
X114198061Y-82950000D01*
X114401939Y-82950000D01*
X114601898Y-82910226D01*
X114790256Y-82832205D01*
X114959774Y-82718937D01*
X115103937Y-82574774D01*
X115217205Y-82405256D01*
X115295226Y-82216898D01*
X115335000Y-82016939D01*
X115335000Y-81813061D01*
X115295226Y-81613102D01*
X115217205Y-81424744D01*
X115125500Y-81287497D01*
X115125500Y-80986932D01*
X115169837Y-80942596D01*
X115210820Y-80964502D01*
X115330518Y-81000812D01*
X115455000Y-81013072D01*
X116955000Y-81013072D01*
X117079482Y-81000812D01*
X117157500Y-80977145D01*
X117235518Y-81000812D01*
X117360000Y-81013072D01*
X118860000Y-81013072D01*
X118984482Y-81000812D01*
X119104180Y-80964502D01*
X119214494Y-80905537D01*
X119311185Y-80826185D01*
X119390537Y-80729494D01*
X119449502Y-80619180D01*
X119485812Y-80499482D01*
X119498072Y-80375000D01*
X119498072Y-80200500D01*
X120816928Y-80200500D01*
X120816928Y-80475000D01*
X120829188Y-80599482D01*
X120865498Y-80719180D01*
X120924463Y-80829494D01*
X121003815Y-80926185D01*
X121100506Y-81005537D01*
X121210820Y-81064502D01*
X121330518Y-81100812D01*
X121455000Y-81113072D01*
X123655000Y-81113072D01*
X123779482Y-81100812D01*
X123899180Y-81064502D01*
X124009494Y-81005537D01*
X124106185Y-80926185D01*
X124185537Y-80829494D01*
X124244502Y-80719180D01*
X124280812Y-80599482D01*
X124293072Y-80475000D01*
X124293072Y-78275000D01*
X124280812Y-78150518D01*
X124274588Y-78130000D01*
X124724921Y-78130000D01*
X124722854Y-95394068D01*
X124504727Y-95248320D01*
X124243574Y-95140147D01*
X123966335Y-95085000D01*
X123683665Y-95085000D01*
X123406426Y-95140147D01*
X123145273Y-95248320D01*
X122910241Y-95405363D01*
X122710363Y-95605241D01*
X122553320Y-95840273D01*
X122445147Y-96101426D01*
X122390000Y-96378665D01*
X122390000Y-96661335D01*
X122445147Y-96938574D01*
X122553320Y-97199727D01*
X122710363Y-97434759D01*
X122910241Y-97634637D01*
X123145273Y-97791680D01*
X123406426Y-97899853D01*
X123683665Y-97955000D01*
X123966335Y-97955000D01*
X124243574Y-97899853D01*
X124504727Y-97791680D01*
X124722585Y-97646113D01*
X124722005Y-102488673D01*
X124653381Y-103188551D01*
X124459512Y-103830677D01*
X124144612Y-104422917D01*
X123720680Y-104942708D01*
X123203852Y-105370266D01*
X122613829Y-105689291D01*
X121973068Y-105887640D01*
X121275088Y-105961000D01*
X104269279Y-105961000D01*
X103569449Y-105892381D01*
X102927323Y-105698512D01*
X102335083Y-105383612D01*
X101815292Y-104959680D01*
X101387734Y-104442852D01*
X101068709Y-103852829D01*
X100870360Y-103212068D01*
X100797000Y-102514088D01*
X100797000Y-101519312D01*
X100920273Y-101601680D01*
X101181426Y-101709853D01*
X101458665Y-101765000D01*
X101741335Y-101765000D01*
X102018574Y-101709853D01*
X102279727Y-101601680D01*
X102514759Y-101444637D01*
X102714637Y-101244759D01*
X102871680Y-101009727D01*
X102979853Y-100748574D01*
X103035000Y-100471335D01*
X103035000Y-100188665D01*
X107785000Y-100188665D01*
X107785000Y-100471335D01*
X107840147Y-100748574D01*
X107948320Y-101009727D01*
X108105363Y-101244759D01*
X108305241Y-101444637D01*
X108540273Y-101601680D01*
X108801426Y-101709853D01*
X109078665Y-101765000D01*
X109361335Y-101765000D01*
X109638574Y-101709853D01*
X109899727Y-101601680D01*
X110036936Y-101510000D01*
X112811928Y-101510000D01*
X112811928Y-102960000D01*
X112828992Y-103133254D01*
X112879528Y-103299850D01*
X112961595Y-103453386D01*
X113072038Y-103587962D01*
X113206614Y-103698405D01*
X113360150Y-103780472D01*
X113526746Y-103831008D01*
X113700000Y-103848072D01*
X114900000Y-103848072D01*
X115073254Y-103831008D01*
X115239850Y-103780472D01*
X115393386Y-103698405D01*
X115527962Y-103587962D01*
X115638405Y-103453386D01*
X115692777Y-103351663D01*
X115744866Y-103415134D01*
X115970987Y-103600706D01*
X116228967Y-103738599D01*
X116508890Y-103823513D01*
X116800000Y-103852185D01*
X117091111Y-103823513D01*
X117371034Y-103738599D01*
X117629014Y-103600706D01*
X117855134Y-103415134D01*
X118040706Y-103189014D01*
X118050000Y-103171626D01*
X118059294Y-103189014D01*
X118244866Y-103415134D01*
X118470987Y-103600706D01*
X118728967Y-103738599D01*
X119008890Y-103823513D01*
X119300000Y-103852185D01*
X119591111Y-103823513D01*
X119871034Y-103738599D01*
X120129014Y-103600706D01*
X120355134Y-103415134D01*
X120540706Y-103189014D01*
X120550000Y-103171626D01*
X120559294Y-103189014D01*
X120744866Y-103415134D01*
X120970987Y-103600706D01*
X121228967Y-103738599D01*
X121508890Y-103823513D01*
X121800000Y-103852185D01*
X122091111Y-103823513D01*
X122371034Y-103738599D01*
X122629014Y-103600706D01*
X122855134Y-103415134D01*
X123040706Y-103189014D01*
X123178599Y-102931033D01*
X123263513Y-102651110D01*
X123285000Y-102432949D01*
X123285000Y-102037050D01*
X123263513Y-101818889D01*
X123178599Y-101538966D01*
X123040706Y-101280986D01*
X122855134Y-101054866D01*
X122629013Y-100869294D01*
X122371033Y-100731401D01*
X122091110Y-100646487D01*
X121800000Y-100617815D01*
X121508889Y-100646487D01*
X121228966Y-100731401D01*
X120970986Y-100869294D01*
X120744866Y-101054866D01*
X120559294Y-101280987D01*
X120550000Y-101298374D01*
X120540706Y-101280986D01*
X120355134Y-101054866D01*
X120129013Y-100869294D01*
X119871033Y-100731401D01*
X119591110Y-100646487D01*
X119300000Y-100617815D01*
X119008889Y-100646487D01*
X118728966Y-100731401D01*
X118470986Y-100869294D01*
X118244866Y-101054866D01*
X118059294Y-101280987D01*
X118050000Y-101298374D01*
X118040706Y-101280986D01*
X117855134Y-101054866D01*
X117629013Y-100869294D01*
X117371033Y-100731401D01*
X117091110Y-100646487D01*
X116800000Y-100617815D01*
X116508889Y-100646487D01*
X116228966Y-100731401D01*
X115970986Y-100869294D01*
X115744866Y-101054866D01*
X115692777Y-101118337D01*
X115638405Y-101016614D01*
X115527962Y-100882038D01*
X115393386Y-100771595D01*
X115239850Y-100689528D01*
X115073254Y-100638992D01*
X114900000Y-100621928D01*
X113700000Y-100621928D01*
X113526746Y-100638992D01*
X113360150Y-100689528D01*
X113206614Y-100771595D01*
X113072038Y-100882038D01*
X112961595Y-101016614D01*
X112879528Y-101170150D01*
X112828992Y-101336746D01*
X112811928Y-101510000D01*
X110036936Y-101510000D01*
X110134759Y-101444637D01*
X110334637Y-101244759D01*
X110491680Y-101009727D01*
X110599853Y-100748574D01*
X110655000Y-100471335D01*
X110655000Y-100188665D01*
X110599853Y-99911426D01*
X110491680Y-99650273D01*
X110334637Y-99415241D01*
X110134759Y-99215363D01*
X109899727Y-99058320D01*
X109638574Y-98950147D01*
X109361335Y-98895000D01*
X109078665Y-98895000D01*
X108801426Y-98950147D01*
X108540273Y-99058320D01*
X108305241Y-99215363D01*
X108105363Y-99415241D01*
X107948320Y-99650273D01*
X107840147Y-99911426D01*
X107785000Y-100188665D01*
X103035000Y-100188665D01*
X102979853Y-99911426D01*
X102871680Y-99650273D01*
X102714637Y-99415241D01*
X102514759Y-99215363D01*
X102279727Y-99058320D01*
X102018574Y-98950147D01*
X101741335Y-98895000D01*
X101458665Y-98895000D01*
X101181426Y-98950147D01*
X100920273Y-99058320D01*
X100797000Y-99140688D01*
X100797000Y-91020000D01*
X101381928Y-91020000D01*
X101394188Y-91144482D01*
X101430498Y-91264180D01*
X101489463Y-91374494D01*
X101568815Y-91471185D01*
X101665506Y-91550537D01*
X101775820Y-91609502D01*
X101848380Y-91631513D01*
X101716525Y-91763368D01*
X101554010Y-92006589D01*
X101442068Y-92276842D01*
X101385000Y-92563740D01*
X101385000Y-92856260D01*
X101442068Y-93143158D01*
X101554010Y-93413411D01*
X101716525Y-93656632D01*
X101923368Y-93863475D01*
X102097760Y-93980000D01*
X101923368Y-94096525D01*
X101716525Y-94303368D01*
X101554010Y-94546589D01*
X101442068Y-94816842D01*
X101385000Y-95103740D01*
X101385000Y-95396260D01*
X101442068Y-95683158D01*
X101554010Y-95953411D01*
X101716525Y-96196632D01*
X101923368Y-96403475D01*
X102166589Y-96565990D01*
X102436842Y-96677932D01*
X102723740Y-96735000D01*
X103016260Y-96735000D01*
X103303158Y-96677932D01*
X103573411Y-96565990D01*
X103816632Y-96403475D01*
X103841442Y-96378665D01*
X104610000Y-96378665D01*
X104610000Y-96661335D01*
X104665147Y-96938574D01*
X104773320Y-97199727D01*
X104930363Y-97434759D01*
X105130241Y-97634637D01*
X105365273Y-97791680D01*
X105626426Y-97899853D01*
X105903665Y-97955000D01*
X106186335Y-97955000D01*
X106463574Y-97899853D01*
X106724727Y-97791680D01*
X106959759Y-97634637D01*
X107159637Y-97434759D01*
X107316680Y-97199727D01*
X107424853Y-96938574D01*
X107480000Y-96661335D01*
X107480000Y-96378665D01*
X112230000Y-96378665D01*
X112230000Y-96661335D01*
X112285147Y-96938574D01*
X112393320Y-97199727D01*
X112550363Y-97434759D01*
X112750241Y-97634637D01*
X112985273Y-97791680D01*
X113246426Y-97899853D01*
X113523665Y-97955000D01*
X113806335Y-97955000D01*
X114083574Y-97899853D01*
X114344727Y-97791680D01*
X114579759Y-97634637D01*
X114779637Y-97434759D01*
X114935000Y-97202241D01*
X115090363Y-97434759D01*
X115290241Y-97634637D01*
X115525273Y-97791680D01*
X115786426Y-97899853D01*
X116063665Y-97955000D01*
X116346335Y-97955000D01*
X116623574Y-97899853D01*
X116884727Y-97791680D01*
X117119759Y-97634637D01*
X117319637Y-97434759D01*
X117476680Y-97199727D01*
X117584853Y-96938574D01*
X117640000Y-96661335D01*
X117640000Y-96378665D01*
X117584853Y-96101426D01*
X117476680Y-95840273D01*
X117319637Y-95605241D01*
X117119759Y-95405363D01*
X116884727Y-95248320D01*
X116623574Y-95140147D01*
X116346335Y-95085000D01*
X116063665Y-95085000D01*
X115786426Y-95140147D01*
X115525273Y-95248320D01*
X115290241Y-95405363D01*
X115090363Y-95605241D01*
X114935000Y-95837759D01*
X114779637Y-95605241D01*
X114579759Y-95405363D01*
X114344727Y-95248320D01*
X114083574Y-95140147D01*
X113806335Y-95085000D01*
X113523665Y-95085000D01*
X113246426Y-95140147D01*
X112985273Y-95248320D01*
X112750241Y-95405363D01*
X112550363Y-95605241D01*
X112393320Y-95840273D01*
X112285147Y-96101426D01*
X112230000Y-96378665D01*
X107480000Y-96378665D01*
X107424853Y-96101426D01*
X107316680Y-95840273D01*
X107159637Y-95605241D01*
X106959759Y-95405363D01*
X106724727Y-95248320D01*
X106463574Y-95140147D01*
X106186335Y-95085000D01*
X105903665Y-95085000D01*
X105626426Y-95140147D01*
X105365273Y-95248320D01*
X105130241Y-95405363D01*
X104930363Y-95605241D01*
X104773320Y-95840273D01*
X104665147Y-96101426D01*
X104610000Y-96378665D01*
X103841442Y-96378665D01*
X104023475Y-96196632D01*
X104185990Y-95953411D01*
X104297932Y-95683158D01*
X104355000Y-95396260D01*
X104355000Y-95103740D01*
X104297932Y-94816842D01*
X104185990Y-94546589D01*
X104023475Y-94303368D01*
X103816632Y-94096525D01*
X103642240Y-93980000D01*
X103816632Y-93863475D01*
X104023475Y-93656632D01*
X104185990Y-93413411D01*
X104297932Y-93143158D01*
X104355000Y-92856260D01*
X104355000Y-92563740D01*
X104297932Y-92276842D01*
X104185990Y-92006589D01*
X104133973Y-91928740D01*
X108370000Y-91928740D01*
X108370000Y-92221260D01*
X108427068Y-92508158D01*
X108539010Y-92778411D01*
X108701525Y-93021632D01*
X108908368Y-93228475D01*
X109151589Y-93390990D01*
X109421842Y-93502932D01*
X109708740Y-93560000D01*
X110001260Y-93560000D01*
X110288158Y-93502932D01*
X110558411Y-93390990D01*
X110801632Y-93228475D01*
X111008475Y-93021632D01*
X111125000Y-92847240D01*
X111241525Y-93021632D01*
X111448368Y-93228475D01*
X111691589Y-93390990D01*
X111961842Y-93502932D01*
X112248740Y-93560000D01*
X112541260Y-93560000D01*
X112828158Y-93502932D01*
X113098411Y-93390990D01*
X113341632Y-93228475D01*
X113548475Y-93021632D01*
X113665000Y-92847240D01*
X113781525Y-93021632D01*
X113988368Y-93228475D01*
X114231589Y-93390990D01*
X114501842Y-93502932D01*
X114788740Y-93560000D01*
X115081260Y-93560000D01*
X115368158Y-93502932D01*
X115638411Y-93390990D01*
X115881632Y-93228475D01*
X116088475Y-93021632D01*
X116205000Y-92847240D01*
X116321525Y-93021632D01*
X116528368Y-93228475D01*
X116771589Y-93390990D01*
X117041842Y-93502932D01*
X117328740Y-93560000D01*
X117621260Y-93560000D01*
X117908158Y-93502932D01*
X118178411Y-93390990D01*
X118421632Y-93228475D01*
X118628475Y-93021632D01*
X118745000Y-92847240D01*
X118861525Y-93021632D01*
X119068368Y-93228475D01*
X119311589Y-93390990D01*
X119581842Y-93502932D01*
X119868740Y-93560000D01*
X120161260Y-93560000D01*
X120448158Y-93502932D01*
X120718411Y-93390990D01*
X120961632Y-93228475D01*
X121168475Y-93021632D01*
X121285000Y-92847240D01*
X121401525Y-93021632D01*
X121608368Y-93228475D01*
X121851589Y-93390990D01*
X122121842Y-93502932D01*
X122408740Y-93560000D01*
X122701260Y-93560000D01*
X122988158Y-93502932D01*
X123258411Y-93390990D01*
X123501632Y-93228475D01*
X123708475Y-93021632D01*
X123870990Y-92778411D01*
X123982932Y-92508158D01*
X124040000Y-92221260D01*
X124040000Y-91928740D01*
X123982932Y-91641842D01*
X123870990Y-91371589D01*
X123708475Y-91128368D01*
X123501632Y-90921525D01*
X123258411Y-90759010D01*
X122988158Y-90647068D01*
X122701260Y-90590000D01*
X122408740Y-90590000D01*
X122121842Y-90647068D01*
X121851589Y-90759010D01*
X121608368Y-90921525D01*
X121401525Y-91128368D01*
X121285000Y-91302760D01*
X121168475Y-91128368D01*
X120961632Y-90921525D01*
X120718411Y-90759010D01*
X120448158Y-90647068D01*
X120161260Y-90590000D01*
X119868740Y-90590000D01*
X119581842Y-90647068D01*
X119311589Y-90759010D01*
X119068368Y-90921525D01*
X118861525Y-91128368D01*
X118745000Y-91302760D01*
X118628475Y-91128368D01*
X118421632Y-90921525D01*
X118178411Y-90759010D01*
X117908158Y-90647068D01*
X117621260Y-90590000D01*
X117328740Y-90590000D01*
X117041842Y-90647068D01*
X116771589Y-90759010D01*
X116528368Y-90921525D01*
X116321525Y-91128368D01*
X116205000Y-91302760D01*
X116088475Y-91128368D01*
X115881632Y-90921525D01*
X115638411Y-90759010D01*
X115368158Y-90647068D01*
X115081260Y-90590000D01*
X114788740Y-90590000D01*
X114501842Y-90647068D01*
X114231589Y-90759010D01*
X113988368Y-90921525D01*
X113781525Y-91128368D01*
X113665000Y-91302760D01*
X113548475Y-91128368D01*
X113341632Y-90921525D01*
X113098411Y-90759010D01*
X112828158Y-90647068D01*
X112541260Y-90590000D01*
X112248740Y-90590000D01*
X111961842Y-90647068D01*
X111691589Y-90759010D01*
X111448368Y-90921525D01*
X111241525Y-91128368D01*
X111125000Y-91302760D01*
X111008475Y-91128368D01*
X110801632Y-90921525D01*
X110558411Y-90759010D01*
X110288158Y-90647068D01*
X110001260Y-90590000D01*
X109708740Y-90590000D01*
X109421842Y-90647068D01*
X109151589Y-90759010D01*
X108908368Y-90921525D01*
X108701525Y-91128368D01*
X108539010Y-91371589D01*
X108427068Y-91641842D01*
X108370000Y-91928740D01*
X104133973Y-91928740D01*
X104023475Y-91763368D01*
X103891620Y-91631513D01*
X103964180Y-91609502D01*
X104074494Y-91550537D01*
X104171185Y-91471185D01*
X104250537Y-91374494D01*
X104309502Y-91264180D01*
X104345812Y-91144482D01*
X104358072Y-91020000D01*
X104355000Y-90455750D01*
X104196250Y-90297000D01*
X102997000Y-90297000D01*
X102997000Y-90317000D01*
X102743000Y-90317000D01*
X102743000Y-90297000D01*
X101543750Y-90297000D01*
X101385000Y-90455750D01*
X101381928Y-91020000D01*
X100797000Y-91020000D01*
X100797000Y-89320000D01*
X101381928Y-89320000D01*
X101385000Y-89884250D01*
X101543750Y-90043000D01*
X102743000Y-90043000D01*
X102743000Y-88843750D01*
X102997000Y-88843750D01*
X102997000Y-90043000D01*
X104196250Y-90043000D01*
X104355000Y-89884250D01*
X104358072Y-89320000D01*
X104345812Y-89195518D01*
X104309502Y-89075820D01*
X104250537Y-88965506D01*
X104171185Y-88868815D01*
X104074494Y-88789463D01*
X103964180Y-88730498D01*
X103844482Y-88694188D01*
X103720000Y-88681928D01*
X103155750Y-88685000D01*
X102997000Y-88843750D01*
X102743000Y-88843750D01*
X102584250Y-88685000D01*
X102020000Y-88681928D01*
X101895518Y-88694188D01*
X101775820Y-88730498D01*
X101665506Y-88789463D01*
X101568815Y-88868815D01*
X101489463Y-88965506D01*
X101430498Y-89075820D01*
X101394188Y-89195518D01*
X101381928Y-89320000D01*
X100797000Y-89320000D01*
X100797000Y-88123665D01*
X114135000Y-88123665D01*
X114135000Y-88406335D01*
X114190147Y-88683574D01*
X114298320Y-88944727D01*
X114455363Y-89179759D01*
X114655241Y-89379637D01*
X114890273Y-89536680D01*
X115151426Y-89644853D01*
X115428665Y-89700000D01*
X115711335Y-89700000D01*
X115988574Y-89644853D01*
X116249727Y-89536680D01*
X116484759Y-89379637D01*
X116684637Y-89179759D01*
X116841680Y-88944727D01*
X116949853Y-88683574D01*
X116963684Y-88614039D01*
X121798096Y-88614039D01*
X121838754Y-88748087D01*
X121958963Y-89002420D01*
X122126481Y-89228414D01*
X122334869Y-89417385D01*
X122576119Y-89562070D01*
X122840960Y-89656909D01*
X123063000Y-89535624D01*
X123063000Y-88392000D01*
X123317000Y-88392000D01*
X123317000Y-89535624D01*
X123539040Y-89656909D01*
X123803881Y-89562070D01*
X124045131Y-89417385D01*
X124253519Y-89228414D01*
X124421037Y-89002420D01*
X124541246Y-88748087D01*
X124581904Y-88614039D01*
X124459915Y-88392000D01*
X123317000Y-88392000D01*
X123063000Y-88392000D01*
X121920085Y-88392000D01*
X121798096Y-88614039D01*
X116963684Y-88614039D01*
X117005000Y-88406335D01*
X117005000Y-88123665D01*
X116963685Y-87915961D01*
X121798096Y-87915961D01*
X121920085Y-88138000D01*
X123063000Y-88138000D01*
X123063000Y-86994376D01*
X123317000Y-86994376D01*
X123317000Y-88138000D01*
X124459915Y-88138000D01*
X124581904Y-87915961D01*
X124541246Y-87781913D01*
X124421037Y-87527580D01*
X124253519Y-87301586D01*
X124045131Y-87112615D01*
X123803881Y-86967930D01*
X123539040Y-86873091D01*
X123317000Y-86994376D01*
X123063000Y-86994376D01*
X122840960Y-86873091D01*
X122576119Y-86967930D01*
X122334869Y-87112615D01*
X122126481Y-87301586D01*
X121958963Y-87527580D01*
X121838754Y-87781913D01*
X121798096Y-87915961D01*
X116963685Y-87915961D01*
X116949853Y-87846426D01*
X116841680Y-87585273D01*
X116684637Y-87350241D01*
X116484759Y-87150363D01*
X116249727Y-86993320D01*
X115988574Y-86885147D01*
X115711335Y-86830000D01*
X115428665Y-86830000D01*
X115151426Y-86885147D01*
X114890273Y-86993320D01*
X114655241Y-87150363D01*
X114455363Y-87350241D01*
X114298320Y-87585273D01*
X114190147Y-87846426D01*
X114135000Y-88123665D01*
X100797000Y-88123665D01*
X100797000Y-80225000D01*
X101381928Y-80225000D01*
X101394188Y-80349482D01*
X101430498Y-80469180D01*
X101489463Y-80579494D01*
X101568815Y-80676185D01*
X101665506Y-80755537D01*
X101775820Y-80814502D01*
X101848380Y-80836513D01*
X101716525Y-80968368D01*
X101554010Y-81211589D01*
X101442068Y-81481842D01*
X101385000Y-81768740D01*
X101385000Y-82061260D01*
X101442068Y-82348158D01*
X101554010Y-82618411D01*
X101716525Y-82861632D01*
X101923368Y-83068475D01*
X102097760Y-83185000D01*
X101923368Y-83301525D01*
X101716525Y-83508368D01*
X101554010Y-83751589D01*
X101442068Y-84021842D01*
X101385000Y-84308740D01*
X101385000Y-84601260D01*
X101442068Y-84888158D01*
X101554010Y-85158411D01*
X101716525Y-85401632D01*
X101923368Y-85608475D01*
X102166589Y-85770990D01*
X102436842Y-85882932D01*
X102723740Y-85940000D01*
X103016260Y-85940000D01*
X103303158Y-85882932D01*
X103573411Y-85770990D01*
X103816632Y-85608475D01*
X104023475Y-85401632D01*
X104185990Y-85158411D01*
X104297932Y-84888158D01*
X104355000Y-84601260D01*
X104355000Y-84308740D01*
X105830000Y-84308740D01*
X105830000Y-84601260D01*
X105887068Y-84888158D01*
X105999010Y-85158411D01*
X106161525Y-85401632D01*
X106368368Y-85608475D01*
X106611589Y-85770990D01*
X106881842Y-85882932D01*
X107168740Y-85940000D01*
X107461260Y-85940000D01*
X107748158Y-85882932D01*
X108018411Y-85770990D01*
X108261632Y-85608475D01*
X108468475Y-85401632D01*
X108630990Y-85158411D01*
X108717869Y-84948665D01*
X114135000Y-84948665D01*
X114135000Y-85231335D01*
X114190147Y-85508574D01*
X114298320Y-85769727D01*
X114455363Y-86004759D01*
X114655241Y-86204637D01*
X114890273Y-86361680D01*
X115151426Y-86469853D01*
X115428665Y-86525000D01*
X115711335Y-86525000D01*
X115988574Y-86469853D01*
X116249727Y-86361680D01*
X116484759Y-86204637D01*
X116684637Y-86004759D01*
X116744278Y-85915500D01*
X117102928Y-85915500D01*
X117102928Y-86090000D01*
X117115188Y-86214482D01*
X117151498Y-86334180D01*
X117210463Y-86444494D01*
X117289815Y-86541185D01*
X117386506Y-86620537D01*
X117496820Y-86679502D01*
X117616518Y-86715812D01*
X117741000Y-86728072D01*
X119241000Y-86728072D01*
X119365482Y-86715812D01*
X119443500Y-86692145D01*
X119521518Y-86715812D01*
X119646000Y-86728072D01*
X121146000Y-86728072D01*
X121270482Y-86715812D01*
X121390180Y-86679502D01*
X121500494Y-86620537D01*
X121597185Y-86541185D01*
X121676537Y-86444494D01*
X121735502Y-86334180D01*
X121771812Y-86214482D01*
X121784072Y-86090000D01*
X121784072Y-85915500D01*
X122015722Y-85915500D01*
X122075363Y-86004759D01*
X122275241Y-86204637D01*
X122510273Y-86361680D01*
X122771426Y-86469853D01*
X123048665Y-86525000D01*
X123331335Y-86525000D01*
X123608574Y-86469853D01*
X123869727Y-86361680D01*
X124104759Y-86204637D01*
X124304637Y-86004759D01*
X124461680Y-85769727D01*
X124569853Y-85508574D01*
X124625000Y-85231335D01*
X124625000Y-84948665D01*
X124569853Y-84671426D01*
X124461680Y-84410273D01*
X124304637Y-84175241D01*
X124104759Y-83975363D01*
X123869727Y-83818320D01*
X123608574Y-83710147D01*
X123331335Y-83655000D01*
X123048665Y-83655000D01*
X122771426Y-83710147D01*
X122510273Y-83818320D01*
X122275241Y-83975363D01*
X122075363Y-84175241D01*
X122015722Y-84264500D01*
X121784072Y-84264500D01*
X121784072Y-84090000D01*
X121771812Y-83965518D01*
X121735502Y-83845820D01*
X121676537Y-83735506D01*
X121597185Y-83638815D01*
X121500494Y-83559463D01*
X121390180Y-83500498D01*
X121270482Y-83464188D01*
X121214928Y-83458717D01*
X121209556Y-83404174D01*
X121162353Y-83248566D01*
X121085699Y-83105158D01*
X121044381Y-83054811D01*
X121010226Y-82883102D01*
X120932205Y-82694744D01*
X120818937Y-82525226D01*
X120674774Y-82381063D01*
X120505256Y-82267795D01*
X120316898Y-82189774D01*
X120116939Y-82150000D01*
X119913061Y-82150000D01*
X119713102Y-82189774D01*
X119524744Y-82267795D01*
X119355226Y-82381063D01*
X119211063Y-82525226D01*
X119097795Y-82694744D01*
X119019774Y-82883102D01*
X118980000Y-83083061D01*
X118980000Y-83286939D01*
X119012818Y-83451928D01*
X117741000Y-83451928D01*
X117616518Y-83464188D01*
X117496820Y-83500498D01*
X117386506Y-83559463D01*
X117289815Y-83638815D01*
X117210463Y-83735506D01*
X117151498Y-83845820D01*
X117115188Y-83965518D01*
X117102928Y-84090000D01*
X117102928Y-84264500D01*
X116744278Y-84264500D01*
X116684637Y-84175241D01*
X116484759Y-83975363D01*
X116249727Y-83818320D01*
X115988574Y-83710147D01*
X115711335Y-83655000D01*
X115428665Y-83655000D01*
X115151426Y-83710147D01*
X114890273Y-83818320D01*
X114655241Y-83975363D01*
X114455363Y-84175241D01*
X114298320Y-84410273D01*
X114190147Y-84671426D01*
X114135000Y-84948665D01*
X108717869Y-84948665D01*
X108742932Y-84888158D01*
X108800000Y-84601260D01*
X108800000Y-84308740D01*
X108742932Y-84021842D01*
X108630990Y-83751589D01*
X108468475Y-83508368D01*
X108261632Y-83301525D01*
X108088271Y-83185689D01*
X108163792Y-82943397D01*
X107315000Y-82094605D01*
X106466208Y-82943397D01*
X106541729Y-83185689D01*
X106368368Y-83301525D01*
X106161525Y-83508368D01*
X105999010Y-83751589D01*
X105887068Y-84021842D01*
X105830000Y-84308740D01*
X104355000Y-84308740D01*
X104297932Y-84021842D01*
X104185990Y-83751589D01*
X104023475Y-83508368D01*
X103816632Y-83301525D01*
X103642240Y-83185000D01*
X103816632Y-83068475D01*
X104023475Y-82861632D01*
X104185990Y-82618411D01*
X104297932Y-82348158D01*
X104355000Y-82061260D01*
X104355000Y-81983531D01*
X105824389Y-81983531D01*
X105866401Y-82273019D01*
X105964081Y-82548747D01*
X106037528Y-82686157D01*
X106286603Y-82763792D01*
X107135395Y-81915000D01*
X107494605Y-81915000D01*
X108343397Y-82763792D01*
X108592472Y-82686157D01*
X108718371Y-82422117D01*
X108790339Y-82138589D01*
X108805611Y-81846469D01*
X108763599Y-81556981D01*
X108665919Y-81281253D01*
X108592472Y-81143843D01*
X108343397Y-81066208D01*
X107494605Y-81915000D01*
X107135395Y-81915000D01*
X106286603Y-81066208D01*
X106037528Y-81143843D01*
X105911629Y-81407883D01*
X105839661Y-81691411D01*
X105824389Y-81983531D01*
X104355000Y-81983531D01*
X104355000Y-81768740D01*
X104297932Y-81481842D01*
X104185990Y-81211589D01*
X104023475Y-80968368D01*
X103891620Y-80836513D01*
X103964180Y-80814502D01*
X104074494Y-80755537D01*
X104171185Y-80676185D01*
X104250537Y-80579494D01*
X104309502Y-80469180D01*
X104345812Y-80349482D01*
X104358072Y-80225000D01*
X104355000Y-79660750D01*
X104196250Y-79502000D01*
X102997000Y-79502000D01*
X102997000Y-79522000D01*
X102743000Y-79522000D01*
X102743000Y-79502000D01*
X101543750Y-79502000D01*
X101385000Y-79660750D01*
X101381928Y-80225000D01*
X100797000Y-80225000D01*
X100797000Y-78130000D01*
X101522705Y-78130000D01*
X101489463Y-78170506D01*
G37*
G04 #@! TD.AperFunction*
M02*
