M48
INCH,TZ
T1C0.0157
T2C0.0315
T3C0.0374
T4C0.0394
T5C0.0433
%
G90
G05
T1
X45000Y-32250
X47250Y-32750
T2
X40000Y-39500
X43000Y-39500
X45500Y-34750
X48500Y-34750
X45750Y-38000
X48750Y-38000
X41750Y-38000
X44750Y-38000
X45500Y-33500
X48500Y-33500
T3
X45000Y-40250
X45984Y-40250
X46969Y-40250
X47953Y-40250
T4
X40500Y-31250
X40500Y-32250
X40500Y-33250
X40500Y-35500
X40500Y-36500
X40500Y-37500
X42250Y-31250
X42250Y-32250
X42250Y-33250
X43250Y-36250
X44250Y-36250
X45250Y-36250
X46250Y-36250
X47250Y-36250
X48250Y-36250
T5
X44250Y-31250
X48250Y-31250
T0
M30
