G04 #@! TF.GenerationSoftware,KiCad,Pcbnew,(5.1.8)-1*
G04 #@! TF.CreationDate,2023-09-30T03:10:54+02:00*
G04 #@! TF.ProjectId,RC Exhaust System RGB,52432045-7868-4617-9573-742053797374,rev?*
G04 #@! TF.SameCoordinates,Original*
G04 #@! TF.FileFunction,Legend,Bot*
G04 #@! TF.FilePolarity,Positive*
%FSLAX46Y46*%
G04 Gerber Fmt 4.6, Leading zero omitted, Abs format (unit mm)*
G04 Created by KiCad (PCBNEW (5.1.8)-1) date 2023-09-30 03:10:54*
%MOMM*%
%LPD*%
G01*
G04 APERTURE LIST*
%ADD10C,0.100000*%
G04 APERTURE END LIST*
D10*
X79706904Y-86240000D02*
X79325952Y-85973333D01*
X79706904Y-85782857D02*
X78906904Y-85782857D01*
X78906904Y-86087619D01*
X78945000Y-86163809D01*
X78983095Y-86201904D01*
X79059285Y-86240000D01*
X79173571Y-86240000D01*
X79249761Y-86201904D01*
X79287857Y-86163809D01*
X79325952Y-86087619D01*
X79325952Y-85782857D01*
X79630714Y-87040000D02*
X79668809Y-87001904D01*
X79706904Y-86887619D01*
X79706904Y-86811428D01*
X79668809Y-86697142D01*
X79592619Y-86620952D01*
X79516428Y-86582857D01*
X79364047Y-86544761D01*
X79249761Y-86544761D01*
X79097380Y-86582857D01*
X79021190Y-86620952D01*
X78945000Y-86697142D01*
X78906904Y-86811428D01*
X78906904Y-86887619D01*
X78945000Y-87001904D01*
X78983095Y-87040000D01*
X79287857Y-87992380D02*
X79287857Y-88259047D01*
X79706904Y-88373333D02*
X79706904Y-87992380D01*
X78906904Y-87992380D01*
X78906904Y-88373333D01*
X79706904Y-88640000D02*
X79173571Y-89059047D01*
X79173571Y-88640000D02*
X79706904Y-89059047D01*
X79706904Y-89363809D02*
X78906904Y-89363809D01*
X79706904Y-89706666D02*
X79287857Y-89706666D01*
X79211666Y-89668571D01*
X79173571Y-89592380D01*
X79173571Y-89478095D01*
X79211666Y-89401904D01*
X79249761Y-89363809D01*
X79706904Y-90430476D02*
X79287857Y-90430476D01*
X79211666Y-90392380D01*
X79173571Y-90316190D01*
X79173571Y-90163809D01*
X79211666Y-90087619D01*
X79668809Y-90430476D02*
X79706904Y-90354285D01*
X79706904Y-90163809D01*
X79668809Y-90087619D01*
X79592619Y-90049523D01*
X79516428Y-90049523D01*
X79440238Y-90087619D01*
X79402142Y-90163809D01*
X79402142Y-90354285D01*
X79364047Y-90430476D01*
X79173571Y-91154285D02*
X79706904Y-91154285D01*
X79173571Y-90811428D02*
X79592619Y-90811428D01*
X79668809Y-90849523D01*
X79706904Y-90925714D01*
X79706904Y-91040000D01*
X79668809Y-91116190D01*
X79630714Y-91154285D01*
X79668809Y-91497142D02*
X79706904Y-91573333D01*
X79706904Y-91725714D01*
X79668809Y-91801904D01*
X79592619Y-91840000D01*
X79554523Y-91840000D01*
X79478333Y-91801904D01*
X79440238Y-91725714D01*
X79440238Y-91611428D01*
X79402142Y-91535238D01*
X79325952Y-91497142D01*
X79287857Y-91497142D01*
X79211666Y-91535238D01*
X79173571Y-91611428D01*
X79173571Y-91725714D01*
X79211666Y-91801904D01*
X79173571Y-92068571D02*
X79173571Y-92373333D01*
X78906904Y-92182857D02*
X79592619Y-92182857D01*
X79668809Y-92220952D01*
X79706904Y-92297142D01*
X79706904Y-92373333D01*
X79668809Y-93211428D02*
X79706904Y-93325714D01*
X79706904Y-93516190D01*
X79668809Y-93592380D01*
X79630714Y-93630476D01*
X79554523Y-93668571D01*
X79478333Y-93668571D01*
X79402142Y-93630476D01*
X79364047Y-93592380D01*
X79325952Y-93516190D01*
X79287857Y-93363809D01*
X79249761Y-93287619D01*
X79211666Y-93249523D01*
X79135476Y-93211428D01*
X79059285Y-93211428D01*
X78983095Y-93249523D01*
X78945000Y-93287619D01*
X78906904Y-93363809D01*
X78906904Y-93554285D01*
X78945000Y-93668571D01*
X79173571Y-93935238D02*
X79706904Y-94125714D01*
X79173571Y-94316190D02*
X79706904Y-94125714D01*
X79897380Y-94049523D01*
X79935476Y-94011428D01*
X79973571Y-93935238D01*
X79668809Y-94582857D02*
X79706904Y-94659047D01*
X79706904Y-94811428D01*
X79668809Y-94887619D01*
X79592619Y-94925714D01*
X79554523Y-94925714D01*
X79478333Y-94887619D01*
X79440238Y-94811428D01*
X79440238Y-94697142D01*
X79402142Y-94620952D01*
X79325952Y-94582857D01*
X79287857Y-94582857D01*
X79211666Y-94620952D01*
X79173571Y-94697142D01*
X79173571Y-94811428D01*
X79211666Y-94887619D01*
X79173571Y-95154285D02*
X79173571Y-95459047D01*
X78906904Y-95268571D02*
X79592619Y-95268571D01*
X79668809Y-95306666D01*
X79706904Y-95382857D01*
X79706904Y-95459047D01*
X79668809Y-96030476D02*
X79706904Y-95954285D01*
X79706904Y-95801904D01*
X79668809Y-95725714D01*
X79592619Y-95687619D01*
X79287857Y-95687619D01*
X79211666Y-95725714D01*
X79173571Y-95801904D01*
X79173571Y-95954285D01*
X79211666Y-96030476D01*
X79287857Y-96068571D01*
X79364047Y-96068571D01*
X79440238Y-95687619D01*
X79706904Y-96411428D02*
X79173571Y-96411428D01*
X79249761Y-96411428D02*
X79211666Y-96449523D01*
X79173571Y-96525714D01*
X79173571Y-96640000D01*
X79211666Y-96716190D01*
X79287857Y-96754285D01*
X79706904Y-96754285D01*
X79287857Y-96754285D02*
X79211666Y-96792380D01*
X79173571Y-96868571D01*
X79173571Y-96982857D01*
X79211666Y-97059047D01*
X79287857Y-97097142D01*
X79706904Y-97097142D01*
X80206904Y-89782857D02*
X80359285Y-89782857D01*
X80206904Y-90087619D02*
X80359285Y-90087619D01*
X81006904Y-90887619D02*
X80625952Y-90620952D01*
X81006904Y-90430476D02*
X80206904Y-90430476D01*
X80206904Y-90735238D01*
X80245000Y-90811428D01*
X80283095Y-90849523D01*
X80359285Y-90887619D01*
X80473571Y-90887619D01*
X80549761Y-90849523D01*
X80587857Y-90811428D01*
X80625952Y-90735238D01*
X80625952Y-90430476D01*
X80245000Y-91649523D02*
X80206904Y-91573333D01*
X80206904Y-91459047D01*
X80245000Y-91344761D01*
X80321190Y-91268571D01*
X80397380Y-91230476D01*
X80549761Y-91192380D01*
X80664047Y-91192380D01*
X80816428Y-91230476D01*
X80892619Y-91268571D01*
X80968809Y-91344761D01*
X81006904Y-91459047D01*
X81006904Y-91535238D01*
X80968809Y-91649523D01*
X80930714Y-91687619D01*
X80664047Y-91687619D01*
X80664047Y-91535238D01*
X80587857Y-92297142D02*
X80625952Y-92411428D01*
X80664047Y-92449523D01*
X80740238Y-92487619D01*
X80854523Y-92487619D01*
X80930714Y-92449523D01*
X80968809Y-92411428D01*
X81006904Y-92335238D01*
X81006904Y-92030476D01*
X80206904Y-92030476D01*
X80206904Y-92297142D01*
X80245000Y-92373333D01*
X80283095Y-92411428D01*
X80359285Y-92449523D01*
X80435476Y-92449523D01*
X80511666Y-92411428D01*
X80549761Y-92373333D01*
X80587857Y-92297142D01*
X80587857Y-92030476D01*
X80206904Y-92792380D02*
X80359285Y-92792380D01*
X80206904Y-93097142D02*
X80359285Y-93097142D01*
X82306904Y-90201904D02*
X81925952Y-89935238D01*
X82306904Y-89744761D02*
X81506904Y-89744761D01*
X81506904Y-90049523D01*
X81545000Y-90125714D01*
X81583095Y-90163809D01*
X81659285Y-90201904D01*
X81773571Y-90201904D01*
X81849761Y-90163809D01*
X81887857Y-90125714D01*
X81925952Y-90049523D01*
X81925952Y-89744761D01*
X82268809Y-90849523D02*
X82306904Y-90773333D01*
X82306904Y-90620952D01*
X82268809Y-90544761D01*
X82192619Y-90506666D01*
X81887857Y-90506666D01*
X81811666Y-90544761D01*
X81773571Y-90620952D01*
X81773571Y-90773333D01*
X81811666Y-90849523D01*
X81887857Y-90887619D01*
X81964047Y-90887619D01*
X82040238Y-90506666D01*
X81773571Y-91154285D02*
X82306904Y-91344761D01*
X81773571Y-91535238D01*
X82230714Y-91840000D02*
X82268809Y-91878095D01*
X82306904Y-91840000D01*
X82268809Y-91801904D01*
X82230714Y-91840000D01*
X82306904Y-91840000D01*
X82078333Y-92792380D02*
X82078333Y-93173333D01*
X82306904Y-92716190D02*
X81506904Y-92982857D01*
X82306904Y-93249523D01*
M02*
