G04 #@! TF.GenerationSoftware,KiCad,Pcbnew,(5.1.8)-1*
G04 #@! TF.CreationDate,2023-09-30T03:10:54+02:00*
G04 #@! TF.ProjectId,RC Exhaust System RGB,52432045-7868-4617-9573-742053797374,rev?*
G04 #@! TF.SameCoordinates,Original*
G04 #@! TF.FileFunction,Copper,L2,Bot*
G04 #@! TF.FilePolarity,Positive*
%FSLAX46Y46*%
G04 Gerber Fmt 4.6, Leading zero omitted, Abs format (unit mm)*
G04 Created by KiCad (PCBNEW (5.1.8)-1) date 2023-09-30 03:10:54*
%MOMM*%
%LPD*%
G01*
G04 APERTURE LIST*
G04 #@! TA.AperFunction,ComponentPad*
%ADD10C,1.600000*%
G04 #@! TD*
G04 #@! TA.AperFunction,ComponentPad*
%ADD11O,1.600000X1.600000*%
G04 #@! TD*
G04 #@! TA.AperFunction,ComponentPad*
%ADD12O,1.700000X1.700000*%
G04 #@! TD*
G04 #@! TA.AperFunction,ComponentPad*
%ADD13R,1.700000X1.700000*%
G04 #@! TD*
G04 #@! TA.AperFunction,ComponentPad*
%ADD14R,1.600000X1.600000*%
G04 #@! TD*
G04 #@! TA.AperFunction,ComponentPad*
%ADD15R,1.200000X1.200000*%
G04 #@! TD*
G04 #@! TA.AperFunction,ComponentPad*
%ADD16C,1.200000*%
G04 #@! TD*
G04 #@! TA.AperFunction,ComponentPad*
%ADD17C,1.500000*%
G04 #@! TD*
G04 #@! TA.AperFunction,ComponentPad*
%ADD18R,1.500000X1.500000*%
G04 #@! TD*
G04 #@! TA.AperFunction,ComponentPad*
%ADD19O,1.700000X1.950000*%
G04 #@! TD*
G04 #@! TA.AperFunction,ViaPad*
%ADD20C,0.800000*%
G04 #@! TD*
G04 #@! TA.AperFunction,Conductor*
%ADD21C,0.381000*%
G04 #@! TD*
G04 #@! TA.AperFunction,Conductor*
%ADD22C,0.254000*%
G04 #@! TD*
G04 #@! TA.AperFunction,Conductor*
%ADD23C,0.100000*%
G04 #@! TD*
G04 APERTURE END LIST*
D10*
X84455000Y-76835000D03*
X89455000Y-76835000D03*
X78185000Y-83820000D03*
X83185000Y-83820000D03*
X76835000Y-99060000D03*
D11*
X84455000Y-99060000D03*
X88265000Y-92710000D03*
D10*
X88265000Y-100330000D03*
D12*
X88265000Y-88265000D03*
X88265000Y-85725000D03*
D13*
X88265000Y-83185000D03*
D14*
X76835000Y-87630000D03*
D11*
X84455000Y-95250000D03*
X76835000Y-90170000D03*
X84455000Y-92710000D03*
X76835000Y-92710000D03*
X84455000Y-90170000D03*
X76835000Y-95250000D03*
X84455000Y-87630000D03*
D15*
X73025000Y-76835000D03*
D16*
X73025000Y-78835000D03*
D13*
X73025000Y-83185000D03*
D12*
X73025000Y-85725000D03*
X73025000Y-88265000D03*
D17*
X79375000Y-76835000D03*
X81915000Y-76835000D03*
D18*
X76835000Y-76835000D03*
D10*
X84455000Y-102235000D03*
D11*
X76835000Y-102235000D03*
X76835000Y-80645000D03*
D10*
X84455000Y-80645000D03*
X73025000Y-92710000D03*
D11*
X73025000Y-100330000D03*
G04 #@! TA.AperFunction,ComponentPad*
G36*
G01*
X76620000Y-108040000D02*
X76620000Y-106590000D01*
G75*
G02*
X76870000Y-106340000I250000J0D01*
G01*
X78070000Y-106340000D01*
G75*
G02*
X78320000Y-106590000I0J-250000D01*
G01*
X78320000Y-108040000D01*
G75*
G02*
X78070000Y-108290000I-250000J0D01*
G01*
X76870000Y-108290000D01*
G75*
G02*
X76620000Y-108040000I0J250000D01*
G01*
G37*
G04 #@! TD.AperFunction*
D19*
X79970000Y-107315000D03*
X82470000Y-107315000D03*
X84970000Y-107315000D03*
D20*
X81915000Y-79530500D03*
X80645000Y-79530500D03*
D21*
X81915000Y-79530500D02*
X81915000Y-76835000D01*
X81759500Y-80645000D02*
X81915000Y-80645000D01*
X80645000Y-79530500D02*
X81759500Y-80645000D01*
X81915000Y-80645000D02*
X84455000Y-80645000D01*
D22*
X87662551Y-74624619D02*
X88304677Y-74818488D01*
X88896917Y-75133388D01*
X89243103Y-75415731D01*
X89104870Y-75436213D01*
X88838708Y-75531397D01*
X88713486Y-75598329D01*
X88641903Y-75842298D01*
X89455000Y-76655395D01*
X89469143Y-76641253D01*
X89648748Y-76820858D01*
X89634605Y-76835000D01*
X89648748Y-76849143D01*
X89469143Y-77028748D01*
X89455000Y-77014605D01*
X88641903Y-77827702D01*
X88713486Y-78071671D01*
X88968996Y-78192571D01*
X89243184Y-78261300D01*
X89525512Y-78275217D01*
X89805130Y-78233787D01*
X90071292Y-78138603D01*
X90196514Y-78071671D01*
X90268097Y-77827704D01*
X90384370Y-77943977D01*
X90424579Y-77903768D01*
X90435000Y-78002921D01*
X90432004Y-106933683D01*
X90363381Y-107633551D01*
X90169512Y-108275677D01*
X89854612Y-108867917D01*
X89430680Y-109387708D01*
X88913852Y-109815266D01*
X88323829Y-110134291D01*
X87683068Y-110332640D01*
X86985088Y-110406000D01*
X74424279Y-110406000D01*
X73724449Y-110337381D01*
X73082323Y-110143512D01*
X72490083Y-109828612D01*
X71970292Y-109404680D01*
X71542734Y-108887852D01*
X71223709Y-108297829D01*
X71025360Y-107657068D01*
X70952000Y-106959088D01*
X70952000Y-106590000D01*
X75981928Y-106590000D01*
X75981928Y-108040000D01*
X75998992Y-108213254D01*
X76049528Y-108379850D01*
X76131595Y-108533386D01*
X76242038Y-108667962D01*
X76376614Y-108778405D01*
X76530150Y-108860472D01*
X76696746Y-108911008D01*
X76870000Y-108928072D01*
X78070000Y-108928072D01*
X78243254Y-108911008D01*
X78409850Y-108860472D01*
X78563386Y-108778405D01*
X78697962Y-108667962D01*
X78808405Y-108533386D01*
X78862777Y-108431663D01*
X78914866Y-108495134D01*
X79140987Y-108680706D01*
X79398967Y-108818599D01*
X79678890Y-108903513D01*
X79970000Y-108932185D01*
X80261111Y-108903513D01*
X80541034Y-108818599D01*
X80799014Y-108680706D01*
X81025134Y-108495134D01*
X81210706Y-108269014D01*
X81220000Y-108251626D01*
X81229294Y-108269014D01*
X81414866Y-108495134D01*
X81640987Y-108680706D01*
X81898967Y-108818599D01*
X82178890Y-108903513D01*
X82470000Y-108932185D01*
X82761111Y-108903513D01*
X83041034Y-108818599D01*
X83299014Y-108680706D01*
X83525134Y-108495134D01*
X83710706Y-108269014D01*
X83720000Y-108251626D01*
X83729294Y-108269014D01*
X83914866Y-108495134D01*
X84140987Y-108680706D01*
X84398967Y-108818599D01*
X84678890Y-108903513D01*
X84970000Y-108932185D01*
X85261111Y-108903513D01*
X85541034Y-108818599D01*
X85799014Y-108680706D01*
X86025134Y-108495134D01*
X86210706Y-108269014D01*
X86348599Y-108011033D01*
X86433513Y-107731110D01*
X86455000Y-107512949D01*
X86455000Y-107117050D01*
X86433513Y-106898889D01*
X86348599Y-106618966D01*
X86210706Y-106360986D01*
X86025134Y-106134866D01*
X85799013Y-105949294D01*
X85541033Y-105811401D01*
X85261110Y-105726487D01*
X84970000Y-105697815D01*
X84678889Y-105726487D01*
X84398966Y-105811401D01*
X84140986Y-105949294D01*
X83914866Y-106134866D01*
X83729294Y-106360987D01*
X83720000Y-106378374D01*
X83710706Y-106360986D01*
X83525134Y-106134866D01*
X83299013Y-105949294D01*
X83041033Y-105811401D01*
X82761110Y-105726487D01*
X82470000Y-105697815D01*
X82178889Y-105726487D01*
X81898966Y-105811401D01*
X81640986Y-105949294D01*
X81414866Y-106134866D01*
X81229294Y-106360987D01*
X81220000Y-106378374D01*
X81210706Y-106360986D01*
X81025134Y-106134866D01*
X80799013Y-105949294D01*
X80541033Y-105811401D01*
X80261110Y-105726487D01*
X79970000Y-105697815D01*
X79678889Y-105726487D01*
X79398966Y-105811401D01*
X79140986Y-105949294D01*
X78914866Y-106134866D01*
X78862777Y-106198337D01*
X78808405Y-106096614D01*
X78697962Y-105962038D01*
X78563386Y-105851595D01*
X78409850Y-105769528D01*
X78243254Y-105718992D01*
X78070000Y-105701928D01*
X76870000Y-105701928D01*
X76696746Y-105718992D01*
X76530150Y-105769528D01*
X76376614Y-105851595D01*
X76242038Y-105962038D01*
X76131595Y-106096614D01*
X76049528Y-106250150D01*
X75998992Y-106416746D01*
X75981928Y-106590000D01*
X70952000Y-106590000D01*
X70952000Y-102093665D01*
X75400000Y-102093665D01*
X75400000Y-102376335D01*
X75455147Y-102653574D01*
X75563320Y-102914727D01*
X75720363Y-103149759D01*
X75920241Y-103349637D01*
X76155273Y-103506680D01*
X76416426Y-103614853D01*
X76693665Y-103670000D01*
X76976335Y-103670000D01*
X77253574Y-103614853D01*
X77514727Y-103506680D01*
X77749759Y-103349637D01*
X77949637Y-103149759D01*
X78106680Y-102914727D01*
X78214853Y-102653574D01*
X78270000Y-102376335D01*
X78270000Y-102093665D01*
X83020000Y-102093665D01*
X83020000Y-102376335D01*
X83075147Y-102653574D01*
X83183320Y-102914727D01*
X83340363Y-103149759D01*
X83540241Y-103349637D01*
X83775273Y-103506680D01*
X84036426Y-103614853D01*
X84313665Y-103670000D01*
X84596335Y-103670000D01*
X84873574Y-103614853D01*
X85134727Y-103506680D01*
X85369759Y-103349637D01*
X85569637Y-103149759D01*
X85726680Y-102914727D01*
X85834853Y-102653574D01*
X85890000Y-102376335D01*
X85890000Y-102093665D01*
X85834853Y-101816426D01*
X85726680Y-101555273D01*
X85569637Y-101320241D01*
X85369759Y-101120363D01*
X85134727Y-100963320D01*
X84873574Y-100855147D01*
X84596335Y-100800000D01*
X84313665Y-100800000D01*
X84036426Y-100855147D01*
X83775273Y-100963320D01*
X83540241Y-101120363D01*
X83340363Y-101320241D01*
X83183320Y-101555273D01*
X83075147Y-101816426D01*
X83020000Y-102093665D01*
X78270000Y-102093665D01*
X78214853Y-101816426D01*
X78106680Y-101555273D01*
X77949637Y-101320241D01*
X77749759Y-101120363D01*
X77514727Y-100963320D01*
X77253574Y-100855147D01*
X76976335Y-100800000D01*
X76693665Y-100800000D01*
X76416426Y-100855147D01*
X76155273Y-100963320D01*
X75920241Y-101120363D01*
X75720363Y-101320241D01*
X75563320Y-101555273D01*
X75455147Y-101816426D01*
X75400000Y-102093665D01*
X70952000Y-102093665D01*
X70952000Y-100679040D01*
X71633091Y-100679040D01*
X71727930Y-100943881D01*
X71872615Y-101185131D01*
X72061586Y-101393519D01*
X72287580Y-101561037D01*
X72541913Y-101681246D01*
X72675961Y-101721904D01*
X72898000Y-101599915D01*
X72898000Y-100457000D01*
X73152000Y-100457000D01*
X73152000Y-101599915D01*
X73374039Y-101721904D01*
X73508087Y-101681246D01*
X73762420Y-101561037D01*
X73988414Y-101393519D01*
X74177385Y-101185131D01*
X74322070Y-100943881D01*
X74416909Y-100679040D01*
X74295624Y-100457000D01*
X73152000Y-100457000D01*
X72898000Y-100457000D01*
X71754376Y-100457000D01*
X71633091Y-100679040D01*
X70952000Y-100679040D01*
X70952000Y-99980960D01*
X71633091Y-99980960D01*
X71754376Y-100203000D01*
X72898000Y-100203000D01*
X72898000Y-99060085D01*
X73152000Y-99060085D01*
X73152000Y-100203000D01*
X74295624Y-100203000D01*
X74416909Y-99980960D01*
X74322070Y-99716119D01*
X74177385Y-99474869D01*
X73988414Y-99266481D01*
X73762420Y-99098963D01*
X73508087Y-98978754D01*
X73374039Y-98938096D01*
X73152000Y-99060085D01*
X72898000Y-99060085D01*
X72675961Y-98938096D01*
X72541913Y-98978754D01*
X72287580Y-99098963D01*
X72061586Y-99266481D01*
X71872615Y-99474869D01*
X71727930Y-99716119D01*
X71633091Y-99980960D01*
X70952000Y-99980960D01*
X70952000Y-98918665D01*
X75400000Y-98918665D01*
X75400000Y-99201335D01*
X75455147Y-99478574D01*
X75563320Y-99739727D01*
X75720363Y-99974759D01*
X75920241Y-100174637D01*
X76155273Y-100331680D01*
X76416426Y-100439853D01*
X76693665Y-100495000D01*
X76976335Y-100495000D01*
X77253574Y-100439853D01*
X77514727Y-100331680D01*
X77749759Y-100174637D01*
X77949637Y-99974759D01*
X78106680Y-99739727D01*
X78214853Y-99478574D01*
X78270000Y-99201335D01*
X78270000Y-98918665D01*
X83020000Y-98918665D01*
X83020000Y-99201335D01*
X83075147Y-99478574D01*
X83183320Y-99739727D01*
X83340363Y-99974759D01*
X83540241Y-100174637D01*
X83775273Y-100331680D01*
X84036426Y-100439853D01*
X84313665Y-100495000D01*
X84596335Y-100495000D01*
X84873574Y-100439853D01*
X85134727Y-100331680D01*
X85348764Y-100188665D01*
X86830000Y-100188665D01*
X86830000Y-100471335D01*
X86885147Y-100748574D01*
X86993320Y-101009727D01*
X87150363Y-101244759D01*
X87350241Y-101444637D01*
X87585273Y-101601680D01*
X87846426Y-101709853D01*
X88123665Y-101765000D01*
X88406335Y-101765000D01*
X88683574Y-101709853D01*
X88944727Y-101601680D01*
X89179759Y-101444637D01*
X89379637Y-101244759D01*
X89536680Y-101009727D01*
X89644853Y-100748574D01*
X89700000Y-100471335D01*
X89700000Y-100188665D01*
X89644853Y-99911426D01*
X89536680Y-99650273D01*
X89379637Y-99415241D01*
X89179759Y-99215363D01*
X88944727Y-99058320D01*
X88683574Y-98950147D01*
X88406335Y-98895000D01*
X88123665Y-98895000D01*
X87846426Y-98950147D01*
X87585273Y-99058320D01*
X87350241Y-99215363D01*
X87150363Y-99415241D01*
X86993320Y-99650273D01*
X86885147Y-99911426D01*
X86830000Y-100188665D01*
X85348764Y-100188665D01*
X85369759Y-100174637D01*
X85569637Y-99974759D01*
X85726680Y-99739727D01*
X85834853Y-99478574D01*
X85890000Y-99201335D01*
X85890000Y-98918665D01*
X85834853Y-98641426D01*
X85726680Y-98380273D01*
X85569637Y-98145241D01*
X85369759Y-97945363D01*
X85134727Y-97788320D01*
X84873574Y-97680147D01*
X84596335Y-97625000D01*
X84313665Y-97625000D01*
X84036426Y-97680147D01*
X83775273Y-97788320D01*
X83540241Y-97945363D01*
X83340363Y-98145241D01*
X83183320Y-98380273D01*
X83075147Y-98641426D01*
X83020000Y-98918665D01*
X78270000Y-98918665D01*
X78214853Y-98641426D01*
X78106680Y-98380273D01*
X77949637Y-98145241D01*
X77749759Y-97945363D01*
X77514727Y-97788320D01*
X77253574Y-97680147D01*
X76976335Y-97625000D01*
X76693665Y-97625000D01*
X76416426Y-97680147D01*
X76155273Y-97788320D01*
X75920241Y-97945363D01*
X75720363Y-98145241D01*
X75563320Y-98380273D01*
X75455147Y-98641426D01*
X75400000Y-98918665D01*
X70952000Y-98918665D01*
X70952000Y-95599039D01*
X75443096Y-95599039D01*
X75483754Y-95733087D01*
X75603963Y-95987420D01*
X75771481Y-96213414D01*
X75979869Y-96402385D01*
X76221119Y-96547070D01*
X76485960Y-96641909D01*
X76708000Y-96520624D01*
X76708000Y-95377000D01*
X76962000Y-95377000D01*
X76962000Y-96520624D01*
X77184040Y-96641909D01*
X77448881Y-96547070D01*
X77690131Y-96402385D01*
X77898519Y-96213414D01*
X78066037Y-95987420D01*
X78186246Y-95733087D01*
X78226904Y-95599039D01*
X78104915Y-95377000D01*
X76962000Y-95377000D01*
X76708000Y-95377000D01*
X75565085Y-95377000D01*
X75443096Y-95599039D01*
X70952000Y-95599039D01*
X70952000Y-92568665D01*
X71590000Y-92568665D01*
X71590000Y-92851335D01*
X71645147Y-93128574D01*
X71753320Y-93389727D01*
X71910363Y-93624759D01*
X72110241Y-93824637D01*
X72345273Y-93981680D01*
X72606426Y-94089853D01*
X72883665Y-94145000D01*
X73166335Y-94145000D01*
X73443574Y-94089853D01*
X73704727Y-93981680D01*
X73939759Y-93824637D01*
X74139637Y-93624759D01*
X74296680Y-93389727D01*
X74404853Y-93128574D01*
X74460000Y-92851335D01*
X74460000Y-92568665D01*
X74404853Y-92291426D01*
X74296680Y-92030273D01*
X74139637Y-91795241D01*
X73939759Y-91595363D01*
X73704727Y-91438320D01*
X73443574Y-91330147D01*
X73166335Y-91275000D01*
X72883665Y-91275000D01*
X72606426Y-91330147D01*
X72345273Y-91438320D01*
X72110241Y-91595363D01*
X71910363Y-91795241D01*
X71753320Y-92030273D01*
X71645147Y-92291426D01*
X71590000Y-92568665D01*
X70952000Y-92568665D01*
X70952000Y-84035000D01*
X71536928Y-84035000D01*
X71549188Y-84159482D01*
X71585498Y-84279180D01*
X71644463Y-84389494D01*
X71723815Y-84486185D01*
X71820506Y-84565537D01*
X71930820Y-84624502D01*
X72003380Y-84646513D01*
X71871525Y-84778368D01*
X71709010Y-85021589D01*
X71597068Y-85291842D01*
X71540000Y-85578740D01*
X71540000Y-85871260D01*
X71597068Y-86158158D01*
X71709010Y-86428411D01*
X71871525Y-86671632D01*
X72078368Y-86878475D01*
X72252760Y-86995000D01*
X72078368Y-87111525D01*
X71871525Y-87318368D01*
X71709010Y-87561589D01*
X71597068Y-87831842D01*
X71540000Y-88118740D01*
X71540000Y-88411260D01*
X71597068Y-88698158D01*
X71709010Y-88968411D01*
X71871525Y-89211632D01*
X72078368Y-89418475D01*
X72321589Y-89580990D01*
X72591842Y-89692932D01*
X72878740Y-89750000D01*
X73171260Y-89750000D01*
X73458158Y-89692932D01*
X73728411Y-89580990D01*
X73971632Y-89418475D01*
X74178475Y-89211632D01*
X74340990Y-88968411D01*
X74452932Y-88698158D01*
X74510000Y-88411260D01*
X74510000Y-88118740D01*
X74452932Y-87831842D01*
X74340990Y-87561589D01*
X74178475Y-87318368D01*
X73971632Y-87111525D01*
X73797240Y-86995000D01*
X73971632Y-86878475D01*
X74020107Y-86830000D01*
X75396928Y-86830000D01*
X75396928Y-88430000D01*
X75409188Y-88554482D01*
X75445498Y-88674180D01*
X75504463Y-88784494D01*
X75583815Y-88881185D01*
X75680506Y-88960537D01*
X75790820Y-89019502D01*
X75910518Y-89055812D01*
X75918961Y-89056643D01*
X75720363Y-89255241D01*
X75563320Y-89490273D01*
X75455147Y-89751426D01*
X75400000Y-90028665D01*
X75400000Y-90311335D01*
X75455147Y-90588574D01*
X75563320Y-90849727D01*
X75720363Y-91084759D01*
X75920241Y-91284637D01*
X76152759Y-91440000D01*
X75920241Y-91595363D01*
X75720363Y-91795241D01*
X75563320Y-92030273D01*
X75455147Y-92291426D01*
X75400000Y-92568665D01*
X75400000Y-92851335D01*
X75455147Y-93128574D01*
X75563320Y-93389727D01*
X75720363Y-93624759D01*
X75920241Y-93824637D01*
X76155273Y-93981680D01*
X76165865Y-93986067D01*
X75979869Y-94097615D01*
X75771481Y-94286586D01*
X75603963Y-94512580D01*
X75483754Y-94766913D01*
X75443096Y-94900961D01*
X75565085Y-95123000D01*
X76708000Y-95123000D01*
X76708000Y-95103000D01*
X76962000Y-95103000D01*
X76962000Y-95123000D01*
X78104915Y-95123000D01*
X78226904Y-94900961D01*
X78186246Y-94766913D01*
X78066037Y-94512580D01*
X77898519Y-94286586D01*
X77690131Y-94097615D01*
X77504135Y-93986067D01*
X77514727Y-93981680D01*
X77749759Y-93824637D01*
X77949637Y-93624759D01*
X78106680Y-93389727D01*
X78214853Y-93128574D01*
X78270000Y-92851335D01*
X78270000Y-92568665D01*
X78214853Y-92291426D01*
X78106680Y-92030273D01*
X77949637Y-91795241D01*
X77749759Y-91595363D01*
X77517241Y-91440000D01*
X77749759Y-91284637D01*
X77949637Y-91084759D01*
X78106680Y-90849727D01*
X78214853Y-90588574D01*
X78270000Y-90311335D01*
X78270000Y-90028665D01*
X78214853Y-89751426D01*
X78106680Y-89490273D01*
X77949637Y-89255241D01*
X77751039Y-89056643D01*
X77759482Y-89055812D01*
X77879180Y-89019502D01*
X77989494Y-88960537D01*
X78086185Y-88881185D01*
X78165537Y-88784494D01*
X78224502Y-88674180D01*
X78260812Y-88554482D01*
X78273072Y-88430000D01*
X78273072Y-87488665D01*
X83020000Y-87488665D01*
X83020000Y-87771335D01*
X83075147Y-88048574D01*
X83183320Y-88309727D01*
X83340363Y-88544759D01*
X83540241Y-88744637D01*
X83772759Y-88900000D01*
X83540241Y-89055363D01*
X83340363Y-89255241D01*
X83183320Y-89490273D01*
X83075147Y-89751426D01*
X83020000Y-90028665D01*
X83020000Y-90311335D01*
X83075147Y-90588574D01*
X83183320Y-90849727D01*
X83340363Y-91084759D01*
X83540241Y-91284637D01*
X83772759Y-91440000D01*
X83540241Y-91595363D01*
X83340363Y-91795241D01*
X83183320Y-92030273D01*
X83075147Y-92291426D01*
X83020000Y-92568665D01*
X83020000Y-92851335D01*
X83075147Y-93128574D01*
X83183320Y-93389727D01*
X83340363Y-93624759D01*
X83540241Y-93824637D01*
X83772759Y-93980000D01*
X83540241Y-94135363D01*
X83340363Y-94335241D01*
X83183320Y-94570273D01*
X83075147Y-94831426D01*
X83020000Y-95108665D01*
X83020000Y-95391335D01*
X83075147Y-95668574D01*
X83183320Y-95929727D01*
X83340363Y-96164759D01*
X83540241Y-96364637D01*
X83775273Y-96521680D01*
X84036426Y-96629853D01*
X84313665Y-96685000D01*
X84596335Y-96685000D01*
X84873574Y-96629853D01*
X85134727Y-96521680D01*
X85369759Y-96364637D01*
X85569637Y-96164759D01*
X85726680Y-95929727D01*
X85834853Y-95668574D01*
X85890000Y-95391335D01*
X85890000Y-95108665D01*
X85834853Y-94831426D01*
X85726680Y-94570273D01*
X85569637Y-94335241D01*
X85369759Y-94135363D01*
X85137241Y-93980000D01*
X85369759Y-93824637D01*
X85569637Y-93624759D01*
X85726680Y-93389727D01*
X85834853Y-93128574D01*
X85890000Y-92851335D01*
X85890000Y-92568665D01*
X86830000Y-92568665D01*
X86830000Y-92851335D01*
X86885147Y-93128574D01*
X86993320Y-93389727D01*
X87150363Y-93624759D01*
X87350241Y-93824637D01*
X87585273Y-93981680D01*
X87846426Y-94089853D01*
X88123665Y-94145000D01*
X88406335Y-94145000D01*
X88683574Y-94089853D01*
X88944727Y-93981680D01*
X89179759Y-93824637D01*
X89379637Y-93624759D01*
X89536680Y-93389727D01*
X89644853Y-93128574D01*
X89700000Y-92851335D01*
X89700000Y-92568665D01*
X89644853Y-92291426D01*
X89536680Y-92030273D01*
X89379637Y-91795241D01*
X89179759Y-91595363D01*
X88944727Y-91438320D01*
X88683574Y-91330147D01*
X88406335Y-91275000D01*
X88123665Y-91275000D01*
X87846426Y-91330147D01*
X87585273Y-91438320D01*
X87350241Y-91595363D01*
X87150363Y-91795241D01*
X86993320Y-92030273D01*
X86885147Y-92291426D01*
X86830000Y-92568665D01*
X85890000Y-92568665D01*
X85834853Y-92291426D01*
X85726680Y-92030273D01*
X85569637Y-91795241D01*
X85369759Y-91595363D01*
X85137241Y-91440000D01*
X85369759Y-91284637D01*
X85569637Y-91084759D01*
X85726680Y-90849727D01*
X85834853Y-90588574D01*
X85890000Y-90311335D01*
X85890000Y-90028665D01*
X85834853Y-89751426D01*
X85726680Y-89490273D01*
X85569637Y-89255241D01*
X85369759Y-89055363D01*
X85137241Y-88900000D01*
X85369759Y-88744637D01*
X85569637Y-88544759D01*
X85726680Y-88309727D01*
X85834853Y-88048574D01*
X85890000Y-87771335D01*
X85890000Y-87488665D01*
X85834853Y-87211426D01*
X85726680Y-86950273D01*
X85569637Y-86715241D01*
X85369759Y-86515363D01*
X85134727Y-86358320D01*
X84873574Y-86250147D01*
X84596335Y-86195000D01*
X84313665Y-86195000D01*
X84036426Y-86250147D01*
X83775273Y-86358320D01*
X83540241Y-86515363D01*
X83340363Y-86715241D01*
X83183320Y-86950273D01*
X83075147Y-87211426D01*
X83020000Y-87488665D01*
X78273072Y-87488665D01*
X78273072Y-86830000D01*
X78260812Y-86705518D01*
X78224502Y-86585820D01*
X78165537Y-86475506D01*
X78086185Y-86378815D01*
X77989494Y-86299463D01*
X77879180Y-86240498D01*
X77759482Y-86204188D01*
X77635000Y-86191928D01*
X76035000Y-86191928D01*
X75910518Y-86204188D01*
X75790820Y-86240498D01*
X75680506Y-86299463D01*
X75583815Y-86378815D01*
X75504463Y-86475506D01*
X75445498Y-86585820D01*
X75409188Y-86705518D01*
X75396928Y-86830000D01*
X74020107Y-86830000D01*
X74178475Y-86671632D01*
X74340990Y-86428411D01*
X74452932Y-86158158D01*
X74510000Y-85871260D01*
X74510000Y-85578740D01*
X74452932Y-85291842D01*
X74340990Y-85021589D01*
X74201417Y-84812702D01*
X77371903Y-84812702D01*
X77443486Y-85056671D01*
X77698996Y-85177571D01*
X77973184Y-85246300D01*
X78255512Y-85260217D01*
X78535130Y-85218787D01*
X78801292Y-85123603D01*
X78926514Y-85056671D01*
X78998097Y-84812702D01*
X78185000Y-83999605D01*
X77371903Y-84812702D01*
X74201417Y-84812702D01*
X74178475Y-84778368D01*
X74046620Y-84646513D01*
X74119180Y-84624502D01*
X74229494Y-84565537D01*
X74326185Y-84486185D01*
X74405537Y-84389494D01*
X74464502Y-84279180D01*
X74500812Y-84159482D01*
X74513072Y-84035000D01*
X74512286Y-83890512D01*
X76744783Y-83890512D01*
X76786213Y-84170130D01*
X76881397Y-84436292D01*
X76948329Y-84561514D01*
X77192298Y-84633097D01*
X78005395Y-83820000D01*
X78364605Y-83820000D01*
X79177702Y-84633097D01*
X79421671Y-84561514D01*
X79542571Y-84306004D01*
X79611300Y-84031816D01*
X79625217Y-83749488D01*
X79614724Y-83678665D01*
X81750000Y-83678665D01*
X81750000Y-83961335D01*
X81805147Y-84238574D01*
X81913320Y-84499727D01*
X82070363Y-84734759D01*
X82270241Y-84934637D01*
X82505273Y-85091680D01*
X82766426Y-85199853D01*
X83043665Y-85255000D01*
X83326335Y-85255000D01*
X83603574Y-85199853D01*
X83864727Y-85091680D01*
X84099759Y-84934637D01*
X84299637Y-84734759D01*
X84456680Y-84499727D01*
X84564853Y-84238574D01*
X84605346Y-84035000D01*
X86776928Y-84035000D01*
X86789188Y-84159482D01*
X86825498Y-84279180D01*
X86884463Y-84389494D01*
X86963815Y-84486185D01*
X87060506Y-84565537D01*
X87170820Y-84624502D01*
X87243380Y-84646513D01*
X87111525Y-84778368D01*
X86949010Y-85021589D01*
X86837068Y-85291842D01*
X86780000Y-85578740D01*
X86780000Y-85871260D01*
X86837068Y-86158158D01*
X86949010Y-86428411D01*
X87111525Y-86671632D01*
X87318368Y-86878475D01*
X87492760Y-86995000D01*
X87318368Y-87111525D01*
X87111525Y-87318368D01*
X86949010Y-87561589D01*
X86837068Y-87831842D01*
X86780000Y-88118740D01*
X86780000Y-88411260D01*
X86837068Y-88698158D01*
X86949010Y-88968411D01*
X87111525Y-89211632D01*
X87318368Y-89418475D01*
X87561589Y-89580990D01*
X87831842Y-89692932D01*
X88118740Y-89750000D01*
X88411260Y-89750000D01*
X88698158Y-89692932D01*
X88968411Y-89580990D01*
X89211632Y-89418475D01*
X89418475Y-89211632D01*
X89580990Y-88968411D01*
X89692932Y-88698158D01*
X89750000Y-88411260D01*
X89750000Y-88118740D01*
X89692932Y-87831842D01*
X89580990Y-87561589D01*
X89418475Y-87318368D01*
X89211632Y-87111525D01*
X89037240Y-86995000D01*
X89211632Y-86878475D01*
X89418475Y-86671632D01*
X89580990Y-86428411D01*
X89692932Y-86158158D01*
X89750000Y-85871260D01*
X89750000Y-85578740D01*
X89692932Y-85291842D01*
X89580990Y-85021589D01*
X89418475Y-84778368D01*
X89286620Y-84646513D01*
X89359180Y-84624502D01*
X89469494Y-84565537D01*
X89566185Y-84486185D01*
X89645537Y-84389494D01*
X89704502Y-84279180D01*
X89740812Y-84159482D01*
X89753072Y-84035000D01*
X89750000Y-83470750D01*
X89591250Y-83312000D01*
X88392000Y-83312000D01*
X88392000Y-83332000D01*
X88138000Y-83332000D01*
X88138000Y-83312000D01*
X86938750Y-83312000D01*
X86780000Y-83470750D01*
X86776928Y-84035000D01*
X84605346Y-84035000D01*
X84620000Y-83961335D01*
X84620000Y-83678665D01*
X84564853Y-83401426D01*
X84456680Y-83140273D01*
X84299637Y-82905241D01*
X84099759Y-82705363D01*
X83864727Y-82548320D01*
X83603574Y-82440147D01*
X83326335Y-82385000D01*
X83043665Y-82385000D01*
X82766426Y-82440147D01*
X82505273Y-82548320D01*
X82270241Y-82705363D01*
X82070363Y-82905241D01*
X81913320Y-83140273D01*
X81805147Y-83401426D01*
X81750000Y-83678665D01*
X79614724Y-83678665D01*
X79583787Y-83469870D01*
X79488603Y-83203708D01*
X79421671Y-83078486D01*
X79177702Y-83006903D01*
X78364605Y-83820000D01*
X78005395Y-83820000D01*
X77192298Y-83006903D01*
X76948329Y-83078486D01*
X76827429Y-83333996D01*
X76758700Y-83608184D01*
X76744783Y-83890512D01*
X74512286Y-83890512D01*
X74510000Y-83470750D01*
X74351250Y-83312000D01*
X73152000Y-83312000D01*
X73152000Y-83332000D01*
X72898000Y-83332000D01*
X72898000Y-83312000D01*
X71698750Y-83312000D01*
X71540000Y-83470750D01*
X71536928Y-84035000D01*
X70952000Y-84035000D01*
X70952000Y-82335000D01*
X71536928Y-82335000D01*
X71540000Y-82899250D01*
X71698750Y-83058000D01*
X72898000Y-83058000D01*
X72898000Y-81858750D01*
X73152000Y-81858750D01*
X73152000Y-83058000D01*
X74351250Y-83058000D01*
X74510000Y-82899250D01*
X74510391Y-82827298D01*
X77371903Y-82827298D01*
X78185000Y-83640395D01*
X78998097Y-82827298D01*
X78926514Y-82583329D01*
X78671004Y-82462429D01*
X78396816Y-82393700D01*
X78114488Y-82379783D01*
X77834870Y-82421213D01*
X77568708Y-82516397D01*
X77443486Y-82583329D01*
X77371903Y-82827298D01*
X74510391Y-82827298D01*
X74513072Y-82335000D01*
X86776928Y-82335000D01*
X86780000Y-82899250D01*
X86938750Y-83058000D01*
X88138000Y-83058000D01*
X88138000Y-81858750D01*
X88392000Y-81858750D01*
X88392000Y-83058000D01*
X89591250Y-83058000D01*
X89750000Y-82899250D01*
X89753072Y-82335000D01*
X89740812Y-82210518D01*
X89704502Y-82090820D01*
X89645537Y-81980506D01*
X89566185Y-81883815D01*
X89469494Y-81804463D01*
X89359180Y-81745498D01*
X89239482Y-81709188D01*
X89115000Y-81696928D01*
X88550750Y-81700000D01*
X88392000Y-81858750D01*
X88138000Y-81858750D01*
X87979250Y-81700000D01*
X87415000Y-81696928D01*
X87290518Y-81709188D01*
X87170820Y-81745498D01*
X87060506Y-81804463D01*
X86963815Y-81883815D01*
X86884463Y-81980506D01*
X86825498Y-82090820D01*
X86789188Y-82210518D01*
X86776928Y-82335000D01*
X74513072Y-82335000D01*
X74500812Y-82210518D01*
X74464502Y-82090820D01*
X74405537Y-81980506D01*
X74326185Y-81883815D01*
X74229494Y-81804463D01*
X74119180Y-81745498D01*
X73999482Y-81709188D01*
X73875000Y-81696928D01*
X73310750Y-81700000D01*
X73152000Y-81858750D01*
X72898000Y-81858750D01*
X72739250Y-81700000D01*
X72175000Y-81696928D01*
X72050518Y-81709188D01*
X71930820Y-81745498D01*
X71820506Y-81804463D01*
X71723815Y-81883815D01*
X71644463Y-81980506D01*
X71585498Y-82090820D01*
X71549188Y-82210518D01*
X71536928Y-82335000D01*
X70952000Y-82335000D01*
X70952000Y-80503665D01*
X75400000Y-80503665D01*
X75400000Y-80786335D01*
X75455147Y-81063574D01*
X75563320Y-81324727D01*
X75720363Y-81559759D01*
X75920241Y-81759637D01*
X76155273Y-81916680D01*
X76416426Y-82024853D01*
X76693665Y-82080000D01*
X76976335Y-82080000D01*
X77253574Y-82024853D01*
X77514727Y-81916680D01*
X77749759Y-81759637D01*
X77949637Y-81559759D01*
X78106680Y-81324727D01*
X78214853Y-81063574D01*
X78270000Y-80786335D01*
X78270000Y-80503665D01*
X78214853Y-80226426D01*
X78106680Y-79965273D01*
X77949637Y-79730241D01*
X77749759Y-79530363D01*
X77514727Y-79373320D01*
X77253574Y-79265147D01*
X76976335Y-79210000D01*
X76693665Y-79210000D01*
X76416426Y-79265147D01*
X76155273Y-79373320D01*
X75920241Y-79530363D01*
X75720363Y-79730241D01*
X75563320Y-79965273D01*
X75455147Y-80226426D01*
X75400000Y-80503665D01*
X70952000Y-80503665D01*
X70952000Y-79684764D01*
X72354841Y-79684764D01*
X72402148Y-79908348D01*
X72623516Y-80009237D01*
X72860313Y-80065000D01*
X73103438Y-80073495D01*
X73343549Y-80034395D01*
X73571418Y-79949202D01*
X73647852Y-79908348D01*
X73695159Y-79684764D01*
X73025000Y-79014605D01*
X72354841Y-79684764D01*
X70952000Y-79684764D01*
X70952000Y-78913438D01*
X71786505Y-78913438D01*
X71825605Y-79153549D01*
X71910798Y-79381418D01*
X71951652Y-79457852D01*
X72175236Y-79505159D01*
X72845395Y-78835000D01*
X72831253Y-78820858D01*
X73010858Y-78641253D01*
X73025000Y-78655395D01*
X73039143Y-78641253D01*
X73218748Y-78820858D01*
X73204605Y-78835000D01*
X73874764Y-79505159D01*
X74098348Y-79457852D01*
X74199237Y-79236484D01*
X74255000Y-78999687D01*
X74263495Y-78756562D01*
X74224395Y-78516451D01*
X74139202Y-78288582D01*
X74098348Y-78212148D01*
X73874766Y-78164842D01*
X73991872Y-78047736D01*
X73933994Y-77989858D01*
X73979494Y-77965537D01*
X74076185Y-77886185D01*
X74155537Y-77789494D01*
X74214502Y-77679180D01*
X74250812Y-77559482D01*
X74263072Y-77435000D01*
X74263072Y-76235000D01*
X74250812Y-76110518D01*
X74243072Y-76085000D01*
X75446928Y-76085000D01*
X75446928Y-77585000D01*
X75459188Y-77709482D01*
X75495498Y-77829180D01*
X75554463Y-77939494D01*
X75633815Y-78036185D01*
X75730506Y-78115537D01*
X75840820Y-78174502D01*
X75960518Y-78210812D01*
X76085000Y-78223072D01*
X77585000Y-78223072D01*
X77709482Y-78210812D01*
X77829180Y-78174502D01*
X77939494Y-78115537D01*
X78036185Y-78036185D01*
X78115537Y-77939494D01*
X78174502Y-77829180D01*
X78185782Y-77791993D01*
X78597612Y-77791993D01*
X78663137Y-78030860D01*
X78910116Y-78146760D01*
X79174960Y-78212250D01*
X79447492Y-78224812D01*
X79717238Y-78183965D01*
X79973832Y-78091277D01*
X80086863Y-78030860D01*
X80152388Y-77791993D01*
X79375000Y-77014605D01*
X78597612Y-77791993D01*
X78185782Y-77791993D01*
X78210812Y-77709482D01*
X78223072Y-77585000D01*
X78223072Y-77558914D01*
X78418007Y-77612388D01*
X79195395Y-76835000D01*
X79554605Y-76835000D01*
X80331993Y-77612388D01*
X80570860Y-77546863D01*
X80645164Y-77388523D01*
X80687629Y-77491043D01*
X80839201Y-77717886D01*
X81032114Y-77910799D01*
X81089501Y-77949144D01*
X81089500Y-78594342D01*
X80946898Y-78535274D01*
X80746939Y-78495500D01*
X80543061Y-78495500D01*
X80343102Y-78535274D01*
X80154744Y-78613295D01*
X79985226Y-78726563D01*
X79841063Y-78870726D01*
X79727795Y-79040244D01*
X79649774Y-79228602D01*
X79610000Y-79428561D01*
X79610000Y-79632439D01*
X79649774Y-79832398D01*
X79727795Y-80020756D01*
X79841063Y-80190274D01*
X79985226Y-80334437D01*
X80154744Y-80447705D01*
X80343102Y-80525726D01*
X80504996Y-80557928D01*
X81147106Y-81200039D01*
X81172959Y-81231541D01*
X81237096Y-81284177D01*
X81298657Y-81334699D01*
X81442066Y-81411353D01*
X81597674Y-81458556D01*
X81718947Y-81470500D01*
X81718949Y-81470500D01*
X81759499Y-81474494D01*
X81800050Y-81470500D01*
X83280722Y-81470500D01*
X83340363Y-81559759D01*
X83540241Y-81759637D01*
X83775273Y-81916680D01*
X84036426Y-82024853D01*
X84313665Y-82080000D01*
X84596335Y-82080000D01*
X84873574Y-82024853D01*
X85134727Y-81916680D01*
X85369759Y-81759637D01*
X85569637Y-81559759D01*
X85726680Y-81324727D01*
X85834853Y-81063574D01*
X85890000Y-80786335D01*
X85890000Y-80503665D01*
X85834853Y-80226426D01*
X85726680Y-79965273D01*
X85569637Y-79730241D01*
X85369759Y-79530363D01*
X85134727Y-79373320D01*
X84873574Y-79265147D01*
X84596335Y-79210000D01*
X84313665Y-79210000D01*
X84036426Y-79265147D01*
X83775273Y-79373320D01*
X83540241Y-79530363D01*
X83340363Y-79730241D01*
X83280722Y-79819500D01*
X82912792Y-79819500D01*
X82950000Y-79632439D01*
X82950000Y-79428561D01*
X82910226Y-79228602D01*
X82832205Y-79040244D01*
X82740500Y-78902997D01*
X82740500Y-77949143D01*
X82797886Y-77910799D01*
X82990799Y-77717886D01*
X83142371Y-77491043D01*
X83157940Y-77453455D01*
X83183320Y-77514727D01*
X83340363Y-77749759D01*
X83540241Y-77949637D01*
X83775273Y-78106680D01*
X84036426Y-78214853D01*
X84313665Y-78270000D01*
X84596335Y-78270000D01*
X84873574Y-78214853D01*
X85134727Y-78106680D01*
X85369759Y-77949637D01*
X85569637Y-77749759D01*
X85726680Y-77514727D01*
X85834853Y-77253574D01*
X85890000Y-76976335D01*
X85890000Y-76905512D01*
X88014783Y-76905512D01*
X88056213Y-77185130D01*
X88151397Y-77451292D01*
X88218329Y-77576514D01*
X88462298Y-77648097D01*
X89275395Y-76835000D01*
X88462298Y-76021903D01*
X88218329Y-76093486D01*
X88097429Y-76348996D01*
X88028700Y-76623184D01*
X88014783Y-76905512D01*
X85890000Y-76905512D01*
X85890000Y-76693665D01*
X85834853Y-76416426D01*
X85726680Y-76155273D01*
X85569637Y-75920241D01*
X85369759Y-75720363D01*
X85134727Y-75563320D01*
X84873574Y-75455147D01*
X84596335Y-75400000D01*
X84313665Y-75400000D01*
X84036426Y-75455147D01*
X83775273Y-75563320D01*
X83540241Y-75720363D01*
X83340363Y-75920241D01*
X83183320Y-76155273D01*
X83157940Y-76216545D01*
X83142371Y-76178957D01*
X82990799Y-75952114D01*
X82797886Y-75759201D01*
X82571043Y-75607629D01*
X82318989Y-75503225D01*
X82051411Y-75450000D01*
X81778589Y-75450000D01*
X81511011Y-75503225D01*
X81258957Y-75607629D01*
X81032114Y-75759201D01*
X80839201Y-75952114D01*
X80687629Y-76178957D01*
X80646489Y-76278279D01*
X80631277Y-76236168D01*
X80570860Y-76123137D01*
X80331993Y-76057612D01*
X79554605Y-76835000D01*
X79195395Y-76835000D01*
X78418007Y-76057612D01*
X78223072Y-76111086D01*
X78223072Y-76085000D01*
X78210812Y-75960518D01*
X78185783Y-75878007D01*
X78597612Y-75878007D01*
X79375000Y-76655395D01*
X80152388Y-75878007D01*
X80086863Y-75639140D01*
X79839884Y-75523240D01*
X79575040Y-75457750D01*
X79302508Y-75445188D01*
X79032762Y-75486035D01*
X78776168Y-75578723D01*
X78663137Y-75639140D01*
X78597612Y-75878007D01*
X78185783Y-75878007D01*
X78174502Y-75840820D01*
X78115537Y-75730506D01*
X78036185Y-75633815D01*
X77939494Y-75554463D01*
X77829180Y-75495498D01*
X77709482Y-75459188D01*
X77585000Y-75446928D01*
X76085000Y-75446928D01*
X75960518Y-75459188D01*
X75840820Y-75495498D01*
X75730506Y-75554463D01*
X75633815Y-75633815D01*
X75554463Y-75730506D01*
X75495498Y-75840820D01*
X75459188Y-75960518D01*
X75446928Y-76085000D01*
X74243072Y-76085000D01*
X74214502Y-75990820D01*
X74155537Y-75880506D01*
X74076185Y-75783815D01*
X73979494Y-75704463D01*
X73869180Y-75645498D01*
X73749482Y-75609188D01*
X73625000Y-75596928D01*
X72425000Y-75596928D01*
X72300518Y-75609188D01*
X72180820Y-75645498D01*
X72070506Y-75704463D01*
X71973815Y-75783815D01*
X71894463Y-75880506D01*
X71835498Y-75990820D01*
X71799188Y-76110518D01*
X71786928Y-76235000D01*
X71786928Y-77435000D01*
X71799188Y-77559482D01*
X71835498Y-77679180D01*
X71894463Y-77789494D01*
X71973815Y-77886185D01*
X72070506Y-77965537D01*
X72116006Y-77989858D01*
X72058128Y-78047736D01*
X72175234Y-78164842D01*
X71951652Y-78212148D01*
X71850763Y-78433516D01*
X71795000Y-78670313D01*
X71786505Y-78913438D01*
X70952000Y-78913438D01*
X70952000Y-78028279D01*
X71020619Y-77328449D01*
X71214488Y-76686323D01*
X71529388Y-76094083D01*
X71953322Y-75574289D01*
X72470148Y-75146734D01*
X73060172Y-74827709D01*
X73700932Y-74629360D01*
X74398921Y-74556000D01*
X86962721Y-74556000D01*
X87662551Y-74624619D01*
G04 #@! TA.AperFunction,Conductor*
D23*
G36*
X87662551Y-74624619D02*
G01*
X88304677Y-74818488D01*
X88896917Y-75133388D01*
X89243103Y-75415731D01*
X89104870Y-75436213D01*
X88838708Y-75531397D01*
X88713486Y-75598329D01*
X88641903Y-75842298D01*
X89455000Y-76655395D01*
X89469143Y-76641253D01*
X89648748Y-76820858D01*
X89634605Y-76835000D01*
X89648748Y-76849143D01*
X89469143Y-77028748D01*
X89455000Y-77014605D01*
X88641903Y-77827702D01*
X88713486Y-78071671D01*
X88968996Y-78192571D01*
X89243184Y-78261300D01*
X89525512Y-78275217D01*
X89805130Y-78233787D01*
X90071292Y-78138603D01*
X90196514Y-78071671D01*
X90268097Y-77827704D01*
X90384370Y-77943977D01*
X90424579Y-77903768D01*
X90435000Y-78002921D01*
X90432004Y-106933683D01*
X90363381Y-107633551D01*
X90169512Y-108275677D01*
X89854612Y-108867917D01*
X89430680Y-109387708D01*
X88913852Y-109815266D01*
X88323829Y-110134291D01*
X87683068Y-110332640D01*
X86985088Y-110406000D01*
X74424279Y-110406000D01*
X73724449Y-110337381D01*
X73082323Y-110143512D01*
X72490083Y-109828612D01*
X71970292Y-109404680D01*
X71542734Y-108887852D01*
X71223709Y-108297829D01*
X71025360Y-107657068D01*
X70952000Y-106959088D01*
X70952000Y-106590000D01*
X75981928Y-106590000D01*
X75981928Y-108040000D01*
X75998992Y-108213254D01*
X76049528Y-108379850D01*
X76131595Y-108533386D01*
X76242038Y-108667962D01*
X76376614Y-108778405D01*
X76530150Y-108860472D01*
X76696746Y-108911008D01*
X76870000Y-108928072D01*
X78070000Y-108928072D01*
X78243254Y-108911008D01*
X78409850Y-108860472D01*
X78563386Y-108778405D01*
X78697962Y-108667962D01*
X78808405Y-108533386D01*
X78862777Y-108431663D01*
X78914866Y-108495134D01*
X79140987Y-108680706D01*
X79398967Y-108818599D01*
X79678890Y-108903513D01*
X79970000Y-108932185D01*
X80261111Y-108903513D01*
X80541034Y-108818599D01*
X80799014Y-108680706D01*
X81025134Y-108495134D01*
X81210706Y-108269014D01*
X81220000Y-108251626D01*
X81229294Y-108269014D01*
X81414866Y-108495134D01*
X81640987Y-108680706D01*
X81898967Y-108818599D01*
X82178890Y-108903513D01*
X82470000Y-108932185D01*
X82761111Y-108903513D01*
X83041034Y-108818599D01*
X83299014Y-108680706D01*
X83525134Y-108495134D01*
X83710706Y-108269014D01*
X83720000Y-108251626D01*
X83729294Y-108269014D01*
X83914866Y-108495134D01*
X84140987Y-108680706D01*
X84398967Y-108818599D01*
X84678890Y-108903513D01*
X84970000Y-108932185D01*
X85261111Y-108903513D01*
X85541034Y-108818599D01*
X85799014Y-108680706D01*
X86025134Y-108495134D01*
X86210706Y-108269014D01*
X86348599Y-108011033D01*
X86433513Y-107731110D01*
X86455000Y-107512949D01*
X86455000Y-107117050D01*
X86433513Y-106898889D01*
X86348599Y-106618966D01*
X86210706Y-106360986D01*
X86025134Y-106134866D01*
X85799013Y-105949294D01*
X85541033Y-105811401D01*
X85261110Y-105726487D01*
X84970000Y-105697815D01*
X84678889Y-105726487D01*
X84398966Y-105811401D01*
X84140986Y-105949294D01*
X83914866Y-106134866D01*
X83729294Y-106360987D01*
X83720000Y-106378374D01*
X83710706Y-106360986D01*
X83525134Y-106134866D01*
X83299013Y-105949294D01*
X83041033Y-105811401D01*
X82761110Y-105726487D01*
X82470000Y-105697815D01*
X82178889Y-105726487D01*
X81898966Y-105811401D01*
X81640986Y-105949294D01*
X81414866Y-106134866D01*
X81229294Y-106360987D01*
X81220000Y-106378374D01*
X81210706Y-106360986D01*
X81025134Y-106134866D01*
X80799013Y-105949294D01*
X80541033Y-105811401D01*
X80261110Y-105726487D01*
X79970000Y-105697815D01*
X79678889Y-105726487D01*
X79398966Y-105811401D01*
X79140986Y-105949294D01*
X78914866Y-106134866D01*
X78862777Y-106198337D01*
X78808405Y-106096614D01*
X78697962Y-105962038D01*
X78563386Y-105851595D01*
X78409850Y-105769528D01*
X78243254Y-105718992D01*
X78070000Y-105701928D01*
X76870000Y-105701928D01*
X76696746Y-105718992D01*
X76530150Y-105769528D01*
X76376614Y-105851595D01*
X76242038Y-105962038D01*
X76131595Y-106096614D01*
X76049528Y-106250150D01*
X75998992Y-106416746D01*
X75981928Y-106590000D01*
X70952000Y-106590000D01*
X70952000Y-102093665D01*
X75400000Y-102093665D01*
X75400000Y-102376335D01*
X75455147Y-102653574D01*
X75563320Y-102914727D01*
X75720363Y-103149759D01*
X75920241Y-103349637D01*
X76155273Y-103506680D01*
X76416426Y-103614853D01*
X76693665Y-103670000D01*
X76976335Y-103670000D01*
X77253574Y-103614853D01*
X77514727Y-103506680D01*
X77749759Y-103349637D01*
X77949637Y-103149759D01*
X78106680Y-102914727D01*
X78214853Y-102653574D01*
X78270000Y-102376335D01*
X78270000Y-102093665D01*
X83020000Y-102093665D01*
X83020000Y-102376335D01*
X83075147Y-102653574D01*
X83183320Y-102914727D01*
X83340363Y-103149759D01*
X83540241Y-103349637D01*
X83775273Y-103506680D01*
X84036426Y-103614853D01*
X84313665Y-103670000D01*
X84596335Y-103670000D01*
X84873574Y-103614853D01*
X85134727Y-103506680D01*
X85369759Y-103349637D01*
X85569637Y-103149759D01*
X85726680Y-102914727D01*
X85834853Y-102653574D01*
X85890000Y-102376335D01*
X85890000Y-102093665D01*
X85834853Y-101816426D01*
X85726680Y-101555273D01*
X85569637Y-101320241D01*
X85369759Y-101120363D01*
X85134727Y-100963320D01*
X84873574Y-100855147D01*
X84596335Y-100800000D01*
X84313665Y-100800000D01*
X84036426Y-100855147D01*
X83775273Y-100963320D01*
X83540241Y-101120363D01*
X83340363Y-101320241D01*
X83183320Y-101555273D01*
X83075147Y-101816426D01*
X83020000Y-102093665D01*
X78270000Y-102093665D01*
X78214853Y-101816426D01*
X78106680Y-101555273D01*
X77949637Y-101320241D01*
X77749759Y-101120363D01*
X77514727Y-100963320D01*
X77253574Y-100855147D01*
X76976335Y-100800000D01*
X76693665Y-100800000D01*
X76416426Y-100855147D01*
X76155273Y-100963320D01*
X75920241Y-101120363D01*
X75720363Y-101320241D01*
X75563320Y-101555273D01*
X75455147Y-101816426D01*
X75400000Y-102093665D01*
X70952000Y-102093665D01*
X70952000Y-100679040D01*
X71633091Y-100679040D01*
X71727930Y-100943881D01*
X71872615Y-101185131D01*
X72061586Y-101393519D01*
X72287580Y-101561037D01*
X72541913Y-101681246D01*
X72675961Y-101721904D01*
X72898000Y-101599915D01*
X72898000Y-100457000D01*
X73152000Y-100457000D01*
X73152000Y-101599915D01*
X73374039Y-101721904D01*
X73508087Y-101681246D01*
X73762420Y-101561037D01*
X73988414Y-101393519D01*
X74177385Y-101185131D01*
X74322070Y-100943881D01*
X74416909Y-100679040D01*
X74295624Y-100457000D01*
X73152000Y-100457000D01*
X72898000Y-100457000D01*
X71754376Y-100457000D01*
X71633091Y-100679040D01*
X70952000Y-100679040D01*
X70952000Y-99980960D01*
X71633091Y-99980960D01*
X71754376Y-100203000D01*
X72898000Y-100203000D01*
X72898000Y-99060085D01*
X73152000Y-99060085D01*
X73152000Y-100203000D01*
X74295624Y-100203000D01*
X74416909Y-99980960D01*
X74322070Y-99716119D01*
X74177385Y-99474869D01*
X73988414Y-99266481D01*
X73762420Y-99098963D01*
X73508087Y-98978754D01*
X73374039Y-98938096D01*
X73152000Y-99060085D01*
X72898000Y-99060085D01*
X72675961Y-98938096D01*
X72541913Y-98978754D01*
X72287580Y-99098963D01*
X72061586Y-99266481D01*
X71872615Y-99474869D01*
X71727930Y-99716119D01*
X71633091Y-99980960D01*
X70952000Y-99980960D01*
X70952000Y-98918665D01*
X75400000Y-98918665D01*
X75400000Y-99201335D01*
X75455147Y-99478574D01*
X75563320Y-99739727D01*
X75720363Y-99974759D01*
X75920241Y-100174637D01*
X76155273Y-100331680D01*
X76416426Y-100439853D01*
X76693665Y-100495000D01*
X76976335Y-100495000D01*
X77253574Y-100439853D01*
X77514727Y-100331680D01*
X77749759Y-100174637D01*
X77949637Y-99974759D01*
X78106680Y-99739727D01*
X78214853Y-99478574D01*
X78270000Y-99201335D01*
X78270000Y-98918665D01*
X83020000Y-98918665D01*
X83020000Y-99201335D01*
X83075147Y-99478574D01*
X83183320Y-99739727D01*
X83340363Y-99974759D01*
X83540241Y-100174637D01*
X83775273Y-100331680D01*
X84036426Y-100439853D01*
X84313665Y-100495000D01*
X84596335Y-100495000D01*
X84873574Y-100439853D01*
X85134727Y-100331680D01*
X85348764Y-100188665D01*
X86830000Y-100188665D01*
X86830000Y-100471335D01*
X86885147Y-100748574D01*
X86993320Y-101009727D01*
X87150363Y-101244759D01*
X87350241Y-101444637D01*
X87585273Y-101601680D01*
X87846426Y-101709853D01*
X88123665Y-101765000D01*
X88406335Y-101765000D01*
X88683574Y-101709853D01*
X88944727Y-101601680D01*
X89179759Y-101444637D01*
X89379637Y-101244759D01*
X89536680Y-101009727D01*
X89644853Y-100748574D01*
X89700000Y-100471335D01*
X89700000Y-100188665D01*
X89644853Y-99911426D01*
X89536680Y-99650273D01*
X89379637Y-99415241D01*
X89179759Y-99215363D01*
X88944727Y-99058320D01*
X88683574Y-98950147D01*
X88406335Y-98895000D01*
X88123665Y-98895000D01*
X87846426Y-98950147D01*
X87585273Y-99058320D01*
X87350241Y-99215363D01*
X87150363Y-99415241D01*
X86993320Y-99650273D01*
X86885147Y-99911426D01*
X86830000Y-100188665D01*
X85348764Y-100188665D01*
X85369759Y-100174637D01*
X85569637Y-99974759D01*
X85726680Y-99739727D01*
X85834853Y-99478574D01*
X85890000Y-99201335D01*
X85890000Y-98918665D01*
X85834853Y-98641426D01*
X85726680Y-98380273D01*
X85569637Y-98145241D01*
X85369759Y-97945363D01*
X85134727Y-97788320D01*
X84873574Y-97680147D01*
X84596335Y-97625000D01*
X84313665Y-97625000D01*
X84036426Y-97680147D01*
X83775273Y-97788320D01*
X83540241Y-97945363D01*
X83340363Y-98145241D01*
X83183320Y-98380273D01*
X83075147Y-98641426D01*
X83020000Y-98918665D01*
X78270000Y-98918665D01*
X78214853Y-98641426D01*
X78106680Y-98380273D01*
X77949637Y-98145241D01*
X77749759Y-97945363D01*
X77514727Y-97788320D01*
X77253574Y-97680147D01*
X76976335Y-97625000D01*
X76693665Y-97625000D01*
X76416426Y-97680147D01*
X76155273Y-97788320D01*
X75920241Y-97945363D01*
X75720363Y-98145241D01*
X75563320Y-98380273D01*
X75455147Y-98641426D01*
X75400000Y-98918665D01*
X70952000Y-98918665D01*
X70952000Y-95599039D01*
X75443096Y-95599039D01*
X75483754Y-95733087D01*
X75603963Y-95987420D01*
X75771481Y-96213414D01*
X75979869Y-96402385D01*
X76221119Y-96547070D01*
X76485960Y-96641909D01*
X76708000Y-96520624D01*
X76708000Y-95377000D01*
X76962000Y-95377000D01*
X76962000Y-96520624D01*
X77184040Y-96641909D01*
X77448881Y-96547070D01*
X77690131Y-96402385D01*
X77898519Y-96213414D01*
X78066037Y-95987420D01*
X78186246Y-95733087D01*
X78226904Y-95599039D01*
X78104915Y-95377000D01*
X76962000Y-95377000D01*
X76708000Y-95377000D01*
X75565085Y-95377000D01*
X75443096Y-95599039D01*
X70952000Y-95599039D01*
X70952000Y-92568665D01*
X71590000Y-92568665D01*
X71590000Y-92851335D01*
X71645147Y-93128574D01*
X71753320Y-93389727D01*
X71910363Y-93624759D01*
X72110241Y-93824637D01*
X72345273Y-93981680D01*
X72606426Y-94089853D01*
X72883665Y-94145000D01*
X73166335Y-94145000D01*
X73443574Y-94089853D01*
X73704727Y-93981680D01*
X73939759Y-93824637D01*
X74139637Y-93624759D01*
X74296680Y-93389727D01*
X74404853Y-93128574D01*
X74460000Y-92851335D01*
X74460000Y-92568665D01*
X74404853Y-92291426D01*
X74296680Y-92030273D01*
X74139637Y-91795241D01*
X73939759Y-91595363D01*
X73704727Y-91438320D01*
X73443574Y-91330147D01*
X73166335Y-91275000D01*
X72883665Y-91275000D01*
X72606426Y-91330147D01*
X72345273Y-91438320D01*
X72110241Y-91595363D01*
X71910363Y-91795241D01*
X71753320Y-92030273D01*
X71645147Y-92291426D01*
X71590000Y-92568665D01*
X70952000Y-92568665D01*
X70952000Y-84035000D01*
X71536928Y-84035000D01*
X71549188Y-84159482D01*
X71585498Y-84279180D01*
X71644463Y-84389494D01*
X71723815Y-84486185D01*
X71820506Y-84565537D01*
X71930820Y-84624502D01*
X72003380Y-84646513D01*
X71871525Y-84778368D01*
X71709010Y-85021589D01*
X71597068Y-85291842D01*
X71540000Y-85578740D01*
X71540000Y-85871260D01*
X71597068Y-86158158D01*
X71709010Y-86428411D01*
X71871525Y-86671632D01*
X72078368Y-86878475D01*
X72252760Y-86995000D01*
X72078368Y-87111525D01*
X71871525Y-87318368D01*
X71709010Y-87561589D01*
X71597068Y-87831842D01*
X71540000Y-88118740D01*
X71540000Y-88411260D01*
X71597068Y-88698158D01*
X71709010Y-88968411D01*
X71871525Y-89211632D01*
X72078368Y-89418475D01*
X72321589Y-89580990D01*
X72591842Y-89692932D01*
X72878740Y-89750000D01*
X73171260Y-89750000D01*
X73458158Y-89692932D01*
X73728411Y-89580990D01*
X73971632Y-89418475D01*
X74178475Y-89211632D01*
X74340990Y-88968411D01*
X74452932Y-88698158D01*
X74510000Y-88411260D01*
X74510000Y-88118740D01*
X74452932Y-87831842D01*
X74340990Y-87561589D01*
X74178475Y-87318368D01*
X73971632Y-87111525D01*
X73797240Y-86995000D01*
X73971632Y-86878475D01*
X74020107Y-86830000D01*
X75396928Y-86830000D01*
X75396928Y-88430000D01*
X75409188Y-88554482D01*
X75445498Y-88674180D01*
X75504463Y-88784494D01*
X75583815Y-88881185D01*
X75680506Y-88960537D01*
X75790820Y-89019502D01*
X75910518Y-89055812D01*
X75918961Y-89056643D01*
X75720363Y-89255241D01*
X75563320Y-89490273D01*
X75455147Y-89751426D01*
X75400000Y-90028665D01*
X75400000Y-90311335D01*
X75455147Y-90588574D01*
X75563320Y-90849727D01*
X75720363Y-91084759D01*
X75920241Y-91284637D01*
X76152759Y-91440000D01*
X75920241Y-91595363D01*
X75720363Y-91795241D01*
X75563320Y-92030273D01*
X75455147Y-92291426D01*
X75400000Y-92568665D01*
X75400000Y-92851335D01*
X75455147Y-93128574D01*
X75563320Y-93389727D01*
X75720363Y-93624759D01*
X75920241Y-93824637D01*
X76155273Y-93981680D01*
X76165865Y-93986067D01*
X75979869Y-94097615D01*
X75771481Y-94286586D01*
X75603963Y-94512580D01*
X75483754Y-94766913D01*
X75443096Y-94900961D01*
X75565085Y-95123000D01*
X76708000Y-95123000D01*
X76708000Y-95103000D01*
X76962000Y-95103000D01*
X76962000Y-95123000D01*
X78104915Y-95123000D01*
X78226904Y-94900961D01*
X78186246Y-94766913D01*
X78066037Y-94512580D01*
X77898519Y-94286586D01*
X77690131Y-94097615D01*
X77504135Y-93986067D01*
X77514727Y-93981680D01*
X77749759Y-93824637D01*
X77949637Y-93624759D01*
X78106680Y-93389727D01*
X78214853Y-93128574D01*
X78270000Y-92851335D01*
X78270000Y-92568665D01*
X78214853Y-92291426D01*
X78106680Y-92030273D01*
X77949637Y-91795241D01*
X77749759Y-91595363D01*
X77517241Y-91440000D01*
X77749759Y-91284637D01*
X77949637Y-91084759D01*
X78106680Y-90849727D01*
X78214853Y-90588574D01*
X78270000Y-90311335D01*
X78270000Y-90028665D01*
X78214853Y-89751426D01*
X78106680Y-89490273D01*
X77949637Y-89255241D01*
X77751039Y-89056643D01*
X77759482Y-89055812D01*
X77879180Y-89019502D01*
X77989494Y-88960537D01*
X78086185Y-88881185D01*
X78165537Y-88784494D01*
X78224502Y-88674180D01*
X78260812Y-88554482D01*
X78273072Y-88430000D01*
X78273072Y-87488665D01*
X83020000Y-87488665D01*
X83020000Y-87771335D01*
X83075147Y-88048574D01*
X83183320Y-88309727D01*
X83340363Y-88544759D01*
X83540241Y-88744637D01*
X83772759Y-88900000D01*
X83540241Y-89055363D01*
X83340363Y-89255241D01*
X83183320Y-89490273D01*
X83075147Y-89751426D01*
X83020000Y-90028665D01*
X83020000Y-90311335D01*
X83075147Y-90588574D01*
X83183320Y-90849727D01*
X83340363Y-91084759D01*
X83540241Y-91284637D01*
X83772759Y-91440000D01*
X83540241Y-91595363D01*
X83340363Y-91795241D01*
X83183320Y-92030273D01*
X83075147Y-92291426D01*
X83020000Y-92568665D01*
X83020000Y-92851335D01*
X83075147Y-93128574D01*
X83183320Y-93389727D01*
X83340363Y-93624759D01*
X83540241Y-93824637D01*
X83772759Y-93980000D01*
X83540241Y-94135363D01*
X83340363Y-94335241D01*
X83183320Y-94570273D01*
X83075147Y-94831426D01*
X83020000Y-95108665D01*
X83020000Y-95391335D01*
X83075147Y-95668574D01*
X83183320Y-95929727D01*
X83340363Y-96164759D01*
X83540241Y-96364637D01*
X83775273Y-96521680D01*
X84036426Y-96629853D01*
X84313665Y-96685000D01*
X84596335Y-96685000D01*
X84873574Y-96629853D01*
X85134727Y-96521680D01*
X85369759Y-96364637D01*
X85569637Y-96164759D01*
X85726680Y-95929727D01*
X85834853Y-95668574D01*
X85890000Y-95391335D01*
X85890000Y-95108665D01*
X85834853Y-94831426D01*
X85726680Y-94570273D01*
X85569637Y-94335241D01*
X85369759Y-94135363D01*
X85137241Y-93980000D01*
X85369759Y-93824637D01*
X85569637Y-93624759D01*
X85726680Y-93389727D01*
X85834853Y-93128574D01*
X85890000Y-92851335D01*
X85890000Y-92568665D01*
X86830000Y-92568665D01*
X86830000Y-92851335D01*
X86885147Y-93128574D01*
X86993320Y-93389727D01*
X87150363Y-93624759D01*
X87350241Y-93824637D01*
X87585273Y-93981680D01*
X87846426Y-94089853D01*
X88123665Y-94145000D01*
X88406335Y-94145000D01*
X88683574Y-94089853D01*
X88944727Y-93981680D01*
X89179759Y-93824637D01*
X89379637Y-93624759D01*
X89536680Y-93389727D01*
X89644853Y-93128574D01*
X89700000Y-92851335D01*
X89700000Y-92568665D01*
X89644853Y-92291426D01*
X89536680Y-92030273D01*
X89379637Y-91795241D01*
X89179759Y-91595363D01*
X88944727Y-91438320D01*
X88683574Y-91330147D01*
X88406335Y-91275000D01*
X88123665Y-91275000D01*
X87846426Y-91330147D01*
X87585273Y-91438320D01*
X87350241Y-91595363D01*
X87150363Y-91795241D01*
X86993320Y-92030273D01*
X86885147Y-92291426D01*
X86830000Y-92568665D01*
X85890000Y-92568665D01*
X85834853Y-92291426D01*
X85726680Y-92030273D01*
X85569637Y-91795241D01*
X85369759Y-91595363D01*
X85137241Y-91440000D01*
X85369759Y-91284637D01*
X85569637Y-91084759D01*
X85726680Y-90849727D01*
X85834853Y-90588574D01*
X85890000Y-90311335D01*
X85890000Y-90028665D01*
X85834853Y-89751426D01*
X85726680Y-89490273D01*
X85569637Y-89255241D01*
X85369759Y-89055363D01*
X85137241Y-88900000D01*
X85369759Y-88744637D01*
X85569637Y-88544759D01*
X85726680Y-88309727D01*
X85834853Y-88048574D01*
X85890000Y-87771335D01*
X85890000Y-87488665D01*
X85834853Y-87211426D01*
X85726680Y-86950273D01*
X85569637Y-86715241D01*
X85369759Y-86515363D01*
X85134727Y-86358320D01*
X84873574Y-86250147D01*
X84596335Y-86195000D01*
X84313665Y-86195000D01*
X84036426Y-86250147D01*
X83775273Y-86358320D01*
X83540241Y-86515363D01*
X83340363Y-86715241D01*
X83183320Y-86950273D01*
X83075147Y-87211426D01*
X83020000Y-87488665D01*
X78273072Y-87488665D01*
X78273072Y-86830000D01*
X78260812Y-86705518D01*
X78224502Y-86585820D01*
X78165537Y-86475506D01*
X78086185Y-86378815D01*
X77989494Y-86299463D01*
X77879180Y-86240498D01*
X77759482Y-86204188D01*
X77635000Y-86191928D01*
X76035000Y-86191928D01*
X75910518Y-86204188D01*
X75790820Y-86240498D01*
X75680506Y-86299463D01*
X75583815Y-86378815D01*
X75504463Y-86475506D01*
X75445498Y-86585820D01*
X75409188Y-86705518D01*
X75396928Y-86830000D01*
X74020107Y-86830000D01*
X74178475Y-86671632D01*
X74340990Y-86428411D01*
X74452932Y-86158158D01*
X74510000Y-85871260D01*
X74510000Y-85578740D01*
X74452932Y-85291842D01*
X74340990Y-85021589D01*
X74201417Y-84812702D01*
X77371903Y-84812702D01*
X77443486Y-85056671D01*
X77698996Y-85177571D01*
X77973184Y-85246300D01*
X78255512Y-85260217D01*
X78535130Y-85218787D01*
X78801292Y-85123603D01*
X78926514Y-85056671D01*
X78998097Y-84812702D01*
X78185000Y-83999605D01*
X77371903Y-84812702D01*
X74201417Y-84812702D01*
X74178475Y-84778368D01*
X74046620Y-84646513D01*
X74119180Y-84624502D01*
X74229494Y-84565537D01*
X74326185Y-84486185D01*
X74405537Y-84389494D01*
X74464502Y-84279180D01*
X74500812Y-84159482D01*
X74513072Y-84035000D01*
X74512286Y-83890512D01*
X76744783Y-83890512D01*
X76786213Y-84170130D01*
X76881397Y-84436292D01*
X76948329Y-84561514D01*
X77192298Y-84633097D01*
X78005395Y-83820000D01*
X78364605Y-83820000D01*
X79177702Y-84633097D01*
X79421671Y-84561514D01*
X79542571Y-84306004D01*
X79611300Y-84031816D01*
X79625217Y-83749488D01*
X79614724Y-83678665D01*
X81750000Y-83678665D01*
X81750000Y-83961335D01*
X81805147Y-84238574D01*
X81913320Y-84499727D01*
X82070363Y-84734759D01*
X82270241Y-84934637D01*
X82505273Y-85091680D01*
X82766426Y-85199853D01*
X83043665Y-85255000D01*
X83326335Y-85255000D01*
X83603574Y-85199853D01*
X83864727Y-85091680D01*
X84099759Y-84934637D01*
X84299637Y-84734759D01*
X84456680Y-84499727D01*
X84564853Y-84238574D01*
X84605346Y-84035000D01*
X86776928Y-84035000D01*
X86789188Y-84159482D01*
X86825498Y-84279180D01*
X86884463Y-84389494D01*
X86963815Y-84486185D01*
X87060506Y-84565537D01*
X87170820Y-84624502D01*
X87243380Y-84646513D01*
X87111525Y-84778368D01*
X86949010Y-85021589D01*
X86837068Y-85291842D01*
X86780000Y-85578740D01*
X86780000Y-85871260D01*
X86837068Y-86158158D01*
X86949010Y-86428411D01*
X87111525Y-86671632D01*
X87318368Y-86878475D01*
X87492760Y-86995000D01*
X87318368Y-87111525D01*
X87111525Y-87318368D01*
X86949010Y-87561589D01*
X86837068Y-87831842D01*
X86780000Y-88118740D01*
X86780000Y-88411260D01*
X86837068Y-88698158D01*
X86949010Y-88968411D01*
X87111525Y-89211632D01*
X87318368Y-89418475D01*
X87561589Y-89580990D01*
X87831842Y-89692932D01*
X88118740Y-89750000D01*
X88411260Y-89750000D01*
X88698158Y-89692932D01*
X88968411Y-89580990D01*
X89211632Y-89418475D01*
X89418475Y-89211632D01*
X89580990Y-88968411D01*
X89692932Y-88698158D01*
X89750000Y-88411260D01*
X89750000Y-88118740D01*
X89692932Y-87831842D01*
X89580990Y-87561589D01*
X89418475Y-87318368D01*
X89211632Y-87111525D01*
X89037240Y-86995000D01*
X89211632Y-86878475D01*
X89418475Y-86671632D01*
X89580990Y-86428411D01*
X89692932Y-86158158D01*
X89750000Y-85871260D01*
X89750000Y-85578740D01*
X89692932Y-85291842D01*
X89580990Y-85021589D01*
X89418475Y-84778368D01*
X89286620Y-84646513D01*
X89359180Y-84624502D01*
X89469494Y-84565537D01*
X89566185Y-84486185D01*
X89645537Y-84389494D01*
X89704502Y-84279180D01*
X89740812Y-84159482D01*
X89753072Y-84035000D01*
X89750000Y-83470750D01*
X89591250Y-83312000D01*
X88392000Y-83312000D01*
X88392000Y-83332000D01*
X88138000Y-83332000D01*
X88138000Y-83312000D01*
X86938750Y-83312000D01*
X86780000Y-83470750D01*
X86776928Y-84035000D01*
X84605346Y-84035000D01*
X84620000Y-83961335D01*
X84620000Y-83678665D01*
X84564853Y-83401426D01*
X84456680Y-83140273D01*
X84299637Y-82905241D01*
X84099759Y-82705363D01*
X83864727Y-82548320D01*
X83603574Y-82440147D01*
X83326335Y-82385000D01*
X83043665Y-82385000D01*
X82766426Y-82440147D01*
X82505273Y-82548320D01*
X82270241Y-82705363D01*
X82070363Y-82905241D01*
X81913320Y-83140273D01*
X81805147Y-83401426D01*
X81750000Y-83678665D01*
X79614724Y-83678665D01*
X79583787Y-83469870D01*
X79488603Y-83203708D01*
X79421671Y-83078486D01*
X79177702Y-83006903D01*
X78364605Y-83820000D01*
X78005395Y-83820000D01*
X77192298Y-83006903D01*
X76948329Y-83078486D01*
X76827429Y-83333996D01*
X76758700Y-83608184D01*
X76744783Y-83890512D01*
X74512286Y-83890512D01*
X74510000Y-83470750D01*
X74351250Y-83312000D01*
X73152000Y-83312000D01*
X73152000Y-83332000D01*
X72898000Y-83332000D01*
X72898000Y-83312000D01*
X71698750Y-83312000D01*
X71540000Y-83470750D01*
X71536928Y-84035000D01*
X70952000Y-84035000D01*
X70952000Y-82335000D01*
X71536928Y-82335000D01*
X71540000Y-82899250D01*
X71698750Y-83058000D01*
X72898000Y-83058000D01*
X72898000Y-81858750D01*
X73152000Y-81858750D01*
X73152000Y-83058000D01*
X74351250Y-83058000D01*
X74510000Y-82899250D01*
X74510391Y-82827298D01*
X77371903Y-82827298D01*
X78185000Y-83640395D01*
X78998097Y-82827298D01*
X78926514Y-82583329D01*
X78671004Y-82462429D01*
X78396816Y-82393700D01*
X78114488Y-82379783D01*
X77834870Y-82421213D01*
X77568708Y-82516397D01*
X77443486Y-82583329D01*
X77371903Y-82827298D01*
X74510391Y-82827298D01*
X74513072Y-82335000D01*
X86776928Y-82335000D01*
X86780000Y-82899250D01*
X86938750Y-83058000D01*
X88138000Y-83058000D01*
X88138000Y-81858750D01*
X88392000Y-81858750D01*
X88392000Y-83058000D01*
X89591250Y-83058000D01*
X89750000Y-82899250D01*
X89753072Y-82335000D01*
X89740812Y-82210518D01*
X89704502Y-82090820D01*
X89645537Y-81980506D01*
X89566185Y-81883815D01*
X89469494Y-81804463D01*
X89359180Y-81745498D01*
X89239482Y-81709188D01*
X89115000Y-81696928D01*
X88550750Y-81700000D01*
X88392000Y-81858750D01*
X88138000Y-81858750D01*
X87979250Y-81700000D01*
X87415000Y-81696928D01*
X87290518Y-81709188D01*
X87170820Y-81745498D01*
X87060506Y-81804463D01*
X86963815Y-81883815D01*
X86884463Y-81980506D01*
X86825498Y-82090820D01*
X86789188Y-82210518D01*
X86776928Y-82335000D01*
X74513072Y-82335000D01*
X74500812Y-82210518D01*
X74464502Y-82090820D01*
X74405537Y-81980506D01*
X74326185Y-81883815D01*
X74229494Y-81804463D01*
X74119180Y-81745498D01*
X73999482Y-81709188D01*
X73875000Y-81696928D01*
X73310750Y-81700000D01*
X73152000Y-81858750D01*
X72898000Y-81858750D01*
X72739250Y-81700000D01*
X72175000Y-81696928D01*
X72050518Y-81709188D01*
X71930820Y-81745498D01*
X71820506Y-81804463D01*
X71723815Y-81883815D01*
X71644463Y-81980506D01*
X71585498Y-82090820D01*
X71549188Y-82210518D01*
X71536928Y-82335000D01*
X70952000Y-82335000D01*
X70952000Y-80503665D01*
X75400000Y-80503665D01*
X75400000Y-80786335D01*
X75455147Y-81063574D01*
X75563320Y-81324727D01*
X75720363Y-81559759D01*
X75920241Y-81759637D01*
X76155273Y-81916680D01*
X76416426Y-82024853D01*
X76693665Y-82080000D01*
X76976335Y-82080000D01*
X77253574Y-82024853D01*
X77514727Y-81916680D01*
X77749759Y-81759637D01*
X77949637Y-81559759D01*
X78106680Y-81324727D01*
X78214853Y-81063574D01*
X78270000Y-80786335D01*
X78270000Y-80503665D01*
X78214853Y-80226426D01*
X78106680Y-79965273D01*
X77949637Y-79730241D01*
X77749759Y-79530363D01*
X77514727Y-79373320D01*
X77253574Y-79265147D01*
X76976335Y-79210000D01*
X76693665Y-79210000D01*
X76416426Y-79265147D01*
X76155273Y-79373320D01*
X75920241Y-79530363D01*
X75720363Y-79730241D01*
X75563320Y-79965273D01*
X75455147Y-80226426D01*
X75400000Y-80503665D01*
X70952000Y-80503665D01*
X70952000Y-79684764D01*
X72354841Y-79684764D01*
X72402148Y-79908348D01*
X72623516Y-80009237D01*
X72860313Y-80065000D01*
X73103438Y-80073495D01*
X73343549Y-80034395D01*
X73571418Y-79949202D01*
X73647852Y-79908348D01*
X73695159Y-79684764D01*
X73025000Y-79014605D01*
X72354841Y-79684764D01*
X70952000Y-79684764D01*
X70952000Y-78913438D01*
X71786505Y-78913438D01*
X71825605Y-79153549D01*
X71910798Y-79381418D01*
X71951652Y-79457852D01*
X72175236Y-79505159D01*
X72845395Y-78835000D01*
X72831253Y-78820858D01*
X73010858Y-78641253D01*
X73025000Y-78655395D01*
X73039143Y-78641253D01*
X73218748Y-78820858D01*
X73204605Y-78835000D01*
X73874764Y-79505159D01*
X74098348Y-79457852D01*
X74199237Y-79236484D01*
X74255000Y-78999687D01*
X74263495Y-78756562D01*
X74224395Y-78516451D01*
X74139202Y-78288582D01*
X74098348Y-78212148D01*
X73874766Y-78164842D01*
X73991872Y-78047736D01*
X73933994Y-77989858D01*
X73979494Y-77965537D01*
X74076185Y-77886185D01*
X74155537Y-77789494D01*
X74214502Y-77679180D01*
X74250812Y-77559482D01*
X74263072Y-77435000D01*
X74263072Y-76235000D01*
X74250812Y-76110518D01*
X74243072Y-76085000D01*
X75446928Y-76085000D01*
X75446928Y-77585000D01*
X75459188Y-77709482D01*
X75495498Y-77829180D01*
X75554463Y-77939494D01*
X75633815Y-78036185D01*
X75730506Y-78115537D01*
X75840820Y-78174502D01*
X75960518Y-78210812D01*
X76085000Y-78223072D01*
X77585000Y-78223072D01*
X77709482Y-78210812D01*
X77829180Y-78174502D01*
X77939494Y-78115537D01*
X78036185Y-78036185D01*
X78115537Y-77939494D01*
X78174502Y-77829180D01*
X78185782Y-77791993D01*
X78597612Y-77791993D01*
X78663137Y-78030860D01*
X78910116Y-78146760D01*
X79174960Y-78212250D01*
X79447492Y-78224812D01*
X79717238Y-78183965D01*
X79973832Y-78091277D01*
X80086863Y-78030860D01*
X80152388Y-77791993D01*
X79375000Y-77014605D01*
X78597612Y-77791993D01*
X78185782Y-77791993D01*
X78210812Y-77709482D01*
X78223072Y-77585000D01*
X78223072Y-77558914D01*
X78418007Y-77612388D01*
X79195395Y-76835000D01*
X79554605Y-76835000D01*
X80331993Y-77612388D01*
X80570860Y-77546863D01*
X80645164Y-77388523D01*
X80687629Y-77491043D01*
X80839201Y-77717886D01*
X81032114Y-77910799D01*
X81089501Y-77949144D01*
X81089500Y-78594342D01*
X80946898Y-78535274D01*
X80746939Y-78495500D01*
X80543061Y-78495500D01*
X80343102Y-78535274D01*
X80154744Y-78613295D01*
X79985226Y-78726563D01*
X79841063Y-78870726D01*
X79727795Y-79040244D01*
X79649774Y-79228602D01*
X79610000Y-79428561D01*
X79610000Y-79632439D01*
X79649774Y-79832398D01*
X79727795Y-80020756D01*
X79841063Y-80190274D01*
X79985226Y-80334437D01*
X80154744Y-80447705D01*
X80343102Y-80525726D01*
X80504996Y-80557928D01*
X81147106Y-81200039D01*
X81172959Y-81231541D01*
X81237096Y-81284177D01*
X81298657Y-81334699D01*
X81442066Y-81411353D01*
X81597674Y-81458556D01*
X81718947Y-81470500D01*
X81718949Y-81470500D01*
X81759499Y-81474494D01*
X81800050Y-81470500D01*
X83280722Y-81470500D01*
X83340363Y-81559759D01*
X83540241Y-81759637D01*
X83775273Y-81916680D01*
X84036426Y-82024853D01*
X84313665Y-82080000D01*
X84596335Y-82080000D01*
X84873574Y-82024853D01*
X85134727Y-81916680D01*
X85369759Y-81759637D01*
X85569637Y-81559759D01*
X85726680Y-81324727D01*
X85834853Y-81063574D01*
X85890000Y-80786335D01*
X85890000Y-80503665D01*
X85834853Y-80226426D01*
X85726680Y-79965273D01*
X85569637Y-79730241D01*
X85369759Y-79530363D01*
X85134727Y-79373320D01*
X84873574Y-79265147D01*
X84596335Y-79210000D01*
X84313665Y-79210000D01*
X84036426Y-79265147D01*
X83775273Y-79373320D01*
X83540241Y-79530363D01*
X83340363Y-79730241D01*
X83280722Y-79819500D01*
X82912792Y-79819500D01*
X82950000Y-79632439D01*
X82950000Y-79428561D01*
X82910226Y-79228602D01*
X82832205Y-79040244D01*
X82740500Y-78902997D01*
X82740500Y-77949143D01*
X82797886Y-77910799D01*
X82990799Y-77717886D01*
X83142371Y-77491043D01*
X83157940Y-77453455D01*
X83183320Y-77514727D01*
X83340363Y-77749759D01*
X83540241Y-77949637D01*
X83775273Y-78106680D01*
X84036426Y-78214853D01*
X84313665Y-78270000D01*
X84596335Y-78270000D01*
X84873574Y-78214853D01*
X85134727Y-78106680D01*
X85369759Y-77949637D01*
X85569637Y-77749759D01*
X85726680Y-77514727D01*
X85834853Y-77253574D01*
X85890000Y-76976335D01*
X85890000Y-76905512D01*
X88014783Y-76905512D01*
X88056213Y-77185130D01*
X88151397Y-77451292D01*
X88218329Y-77576514D01*
X88462298Y-77648097D01*
X89275395Y-76835000D01*
X88462298Y-76021903D01*
X88218329Y-76093486D01*
X88097429Y-76348996D01*
X88028700Y-76623184D01*
X88014783Y-76905512D01*
X85890000Y-76905512D01*
X85890000Y-76693665D01*
X85834853Y-76416426D01*
X85726680Y-76155273D01*
X85569637Y-75920241D01*
X85369759Y-75720363D01*
X85134727Y-75563320D01*
X84873574Y-75455147D01*
X84596335Y-75400000D01*
X84313665Y-75400000D01*
X84036426Y-75455147D01*
X83775273Y-75563320D01*
X83540241Y-75720363D01*
X83340363Y-75920241D01*
X83183320Y-76155273D01*
X83157940Y-76216545D01*
X83142371Y-76178957D01*
X82990799Y-75952114D01*
X82797886Y-75759201D01*
X82571043Y-75607629D01*
X82318989Y-75503225D01*
X82051411Y-75450000D01*
X81778589Y-75450000D01*
X81511011Y-75503225D01*
X81258957Y-75607629D01*
X81032114Y-75759201D01*
X80839201Y-75952114D01*
X80687629Y-76178957D01*
X80646489Y-76278279D01*
X80631277Y-76236168D01*
X80570860Y-76123137D01*
X80331993Y-76057612D01*
X79554605Y-76835000D01*
X79195395Y-76835000D01*
X78418007Y-76057612D01*
X78223072Y-76111086D01*
X78223072Y-76085000D01*
X78210812Y-75960518D01*
X78185783Y-75878007D01*
X78597612Y-75878007D01*
X79375000Y-76655395D01*
X80152388Y-75878007D01*
X80086863Y-75639140D01*
X79839884Y-75523240D01*
X79575040Y-75457750D01*
X79302508Y-75445188D01*
X79032762Y-75486035D01*
X78776168Y-75578723D01*
X78663137Y-75639140D01*
X78597612Y-75878007D01*
X78185783Y-75878007D01*
X78174502Y-75840820D01*
X78115537Y-75730506D01*
X78036185Y-75633815D01*
X77939494Y-75554463D01*
X77829180Y-75495498D01*
X77709482Y-75459188D01*
X77585000Y-75446928D01*
X76085000Y-75446928D01*
X75960518Y-75459188D01*
X75840820Y-75495498D01*
X75730506Y-75554463D01*
X75633815Y-75633815D01*
X75554463Y-75730506D01*
X75495498Y-75840820D01*
X75459188Y-75960518D01*
X75446928Y-76085000D01*
X74243072Y-76085000D01*
X74214502Y-75990820D01*
X74155537Y-75880506D01*
X74076185Y-75783815D01*
X73979494Y-75704463D01*
X73869180Y-75645498D01*
X73749482Y-75609188D01*
X73625000Y-75596928D01*
X72425000Y-75596928D01*
X72300518Y-75609188D01*
X72180820Y-75645498D01*
X72070506Y-75704463D01*
X71973815Y-75783815D01*
X71894463Y-75880506D01*
X71835498Y-75990820D01*
X71799188Y-76110518D01*
X71786928Y-76235000D01*
X71786928Y-77435000D01*
X71799188Y-77559482D01*
X71835498Y-77679180D01*
X71894463Y-77789494D01*
X71973815Y-77886185D01*
X72070506Y-77965537D01*
X72116006Y-77989858D01*
X72058128Y-78047736D01*
X72175234Y-78164842D01*
X71951652Y-78212148D01*
X71850763Y-78433516D01*
X71795000Y-78670313D01*
X71786505Y-78913438D01*
X70952000Y-78913438D01*
X70952000Y-78028279D01*
X71020619Y-77328449D01*
X71214488Y-76686323D01*
X71529388Y-76094083D01*
X71953322Y-75574289D01*
X72470148Y-75146734D01*
X73060172Y-74827709D01*
X73700932Y-74629360D01*
X74398921Y-74556000D01*
X86962721Y-74556000D01*
X87662551Y-74624619D01*
G37*
G04 #@! TD.AperFunction*
M02*
