M48
INCH,TZ
T1C0.0157
T2C0.0236
T3C0.0315
T4C0.0374
T5C0.0394
%
G90
G05
T1
X31750Y-31311
X32250Y-31311
T2
X28750Y-30250
X28750Y-31037
T3
X34750Y-36500
X34750Y-39500
X28750Y-36500
X28750Y-39500
X30781Y-33000
X32750Y-33000
X30250Y-40250
X33250Y-40250
X30250Y-39000
X33250Y-39000
X30250Y-34500
X30250Y-35500
X30250Y-36500
X30250Y-37500
X33250Y-34500
X33250Y-35500
X33250Y-36500
X33250Y-37500
X33250Y-30250
X35219Y-30250
X30250Y-31750
X33250Y-31750
X30250Y-30250
X31250Y-30250
X32250Y-30250
T4
X30500Y-42250
X31484Y-42250
X32469Y-42250
X33453Y-42250
T5
X28750Y-32750
X28750Y-33750
X28750Y-34750
X34750Y-32750
X34750Y-33750
X34750Y-34750
T0
M30
