G04 #@! TF.GenerationSoftware,KiCad,Pcbnew,(5.1.8)-1*
G04 #@! TF.CreationDate,2023-09-30T03:10:54+02:00*
G04 #@! TF.ProjectId,RC Exhaust System RGB,52432045-7868-4617-9573-742053797374,rev?*
G04 #@! TF.SameCoordinates,Original*
G04 #@! TF.FileFunction,Legend,Top*
G04 #@! TF.FilePolarity,Positive*
%FSLAX46Y46*%
G04 Gerber Fmt 4.6, Leading zero omitted, Abs format (unit mm)*
G04 Created by KiCad (PCBNEW (5.1.8)-1) date 2023-09-30 03:10:54*
%MOMM*%
%LPD*%
G01*
G04 APERTURE LIST*
%ADD10C,0.100000*%
%ADD11C,0.120000*%
%ADD12C,0.150000*%
G04 APERTURE END LIST*
D10*
X78302142Y-91573333D02*
X78683095Y-91573333D01*
X78225952Y-91801904D02*
X78492619Y-91001904D01*
X78759285Y-91801904D01*
X78911666Y-91001904D02*
X79368809Y-91001904D01*
X79140238Y-91801904D02*
X79140238Y-91001904D01*
X79521190Y-91268571D02*
X79825952Y-91268571D01*
X79635476Y-91001904D02*
X79635476Y-91687619D01*
X79673571Y-91763809D01*
X79749761Y-91801904D01*
X79825952Y-91801904D01*
X80092619Y-91801904D02*
X80092619Y-91268571D01*
X80092619Y-91001904D02*
X80054523Y-91040000D01*
X80092619Y-91078095D01*
X80130714Y-91040000D01*
X80092619Y-91001904D01*
X80092619Y-91078095D01*
X80473571Y-91268571D02*
X80473571Y-91801904D01*
X80473571Y-91344761D02*
X80511666Y-91306666D01*
X80587857Y-91268571D01*
X80702142Y-91268571D01*
X80778333Y-91306666D01*
X80816428Y-91382857D01*
X80816428Y-91801904D01*
X81121190Y-91268571D02*
X81311666Y-91801904D01*
X81502142Y-91268571D02*
X81311666Y-91801904D01*
X81235476Y-91992380D01*
X81197380Y-92030476D01*
X81121190Y-92068571D01*
X81921190Y-91344761D02*
X81845000Y-91306666D01*
X81806904Y-91268571D01*
X81768809Y-91192380D01*
X81768809Y-91154285D01*
X81806904Y-91078095D01*
X81845000Y-91040000D01*
X81921190Y-91001904D01*
X82073571Y-91001904D01*
X82149761Y-91040000D01*
X82187857Y-91078095D01*
X82225952Y-91154285D01*
X82225952Y-91192380D01*
X82187857Y-91268571D01*
X82149761Y-91306666D01*
X82073571Y-91344761D01*
X81921190Y-91344761D01*
X81845000Y-91382857D01*
X81806904Y-91420952D01*
X81768809Y-91497142D01*
X81768809Y-91649523D01*
X81806904Y-91725714D01*
X81845000Y-91763809D01*
X81921190Y-91801904D01*
X82073571Y-91801904D01*
X82149761Y-91763809D01*
X82187857Y-91725714D01*
X82225952Y-91649523D01*
X82225952Y-91497142D01*
X82187857Y-91420952D01*
X82149761Y-91382857D01*
X82073571Y-91344761D01*
X82949761Y-91001904D02*
X82568809Y-91001904D01*
X82530714Y-91382857D01*
X82568809Y-91344761D01*
X82645000Y-91306666D01*
X82835476Y-91306666D01*
X82911666Y-91344761D01*
X82949761Y-91382857D01*
X82987857Y-91459047D01*
X82987857Y-91649523D01*
X82949761Y-91725714D01*
X82911666Y-91763809D01*
X82835476Y-91801904D01*
X82645000Y-91801904D01*
X82568809Y-91763809D01*
X82530714Y-91725714D01*
X87217380Y-90366904D02*
X87674523Y-90366904D01*
X87445952Y-91166904D02*
X87445952Y-90366904D01*
X87941190Y-91166904D02*
X87941190Y-90366904D01*
X87941190Y-90747857D02*
X88398333Y-90747857D01*
X88398333Y-91166904D02*
X88398333Y-90366904D01*
X89236428Y-91166904D02*
X88969761Y-90785952D01*
X88779285Y-91166904D02*
X88779285Y-90366904D01*
X89084047Y-90366904D01*
X89160238Y-90405000D01*
X89198333Y-90443095D01*
X89236428Y-90519285D01*
X89236428Y-90633571D01*
X89198333Y-90709761D01*
X89160238Y-90747857D01*
X89084047Y-90785952D01*
X88779285Y-90785952D01*
D11*
X90333900Y-87935500D02*
X90841900Y-87935500D01*
X90333900Y-88570500D02*
X90333900Y-88697500D01*
X90841900Y-87935500D02*
X90841900Y-88570500D01*
X90841900Y-88570500D02*
X90333900Y-88570500D01*
X90333900Y-87935500D02*
X90333900Y-87808500D01*
D10*
X90556142Y-86029761D02*
X90556142Y-85420238D01*
X90860904Y-85725000D02*
X90251380Y-85725000D01*
X90556142Y-83489761D02*
X90556142Y-82880238D01*
D11*
X70648900Y-87935500D02*
X71156900Y-87935500D01*
X70648900Y-87935500D02*
X70648900Y-87808500D01*
X71156900Y-87935500D02*
X71156900Y-88570500D01*
X71156900Y-88570500D02*
X70648900Y-88570500D01*
X70648900Y-88570500D02*
X70648900Y-88697500D01*
D10*
X70871142Y-86029761D02*
X70871142Y-85420238D01*
X71175904Y-85725000D02*
X70566380Y-85725000D01*
X70871142Y-83489761D02*
X70871142Y-82880238D01*
X71977380Y-90366904D02*
X72434523Y-90366904D01*
X72205952Y-91166904D02*
X72205952Y-90366904D01*
X72701190Y-91166904D02*
X72701190Y-90366904D01*
X72701190Y-90747857D02*
X73158333Y-90747857D01*
X73158333Y-91166904D02*
X73158333Y-90366904D01*
X73996428Y-91166904D02*
X73729761Y-90785952D01*
X73539285Y-91166904D02*
X73539285Y-90366904D01*
X73844047Y-90366904D01*
X73920238Y-90405000D01*
X73958333Y-90443095D01*
X73996428Y-90519285D01*
X73996428Y-90633571D01*
X73958333Y-90709761D01*
X73920238Y-90747857D01*
X73844047Y-90785952D01*
X73539285Y-90785952D01*
D11*
X89425000Y-77890000D02*
X89425000Y-78205000D01*
X89425000Y-75465000D02*
X89425000Y-75780000D01*
X84485000Y-77890000D02*
X84485000Y-78205000D01*
X84485000Y-75465000D02*
X84485000Y-75780000D01*
X84485000Y-78205000D02*
X89425000Y-78205000D01*
X84485000Y-75465000D02*
X89425000Y-75465000D01*
X83155000Y-85190000D02*
X78215000Y-85190000D01*
X83155000Y-82450000D02*
X78215000Y-82450000D01*
X83155000Y-85190000D02*
X83155000Y-84875000D01*
X83155000Y-82765000D02*
X83155000Y-82450000D01*
X78215000Y-85190000D02*
X78215000Y-84875000D01*
X78215000Y-82765000D02*
X78215000Y-82450000D01*
X77375000Y-98020000D02*
X77375000Y-97690000D01*
X77375000Y-97690000D02*
X83915000Y-97690000D01*
X83915000Y-97690000D02*
X83915000Y-98020000D01*
X77375000Y-100100000D02*
X77375000Y-100430000D01*
X77375000Y-100430000D02*
X83915000Y-100430000D01*
X83915000Y-100430000D02*
X83915000Y-100100000D01*
X89635000Y-93250000D02*
X89305000Y-93250000D01*
X89635000Y-99790000D02*
X89635000Y-93250000D01*
X89305000Y-99790000D02*
X89635000Y-99790000D01*
X86895000Y-93250000D02*
X87225000Y-93250000D01*
X86895000Y-99790000D02*
X86895000Y-93250000D01*
X87225000Y-99790000D02*
X86895000Y-99790000D01*
X86935000Y-81855000D02*
X88265000Y-81855000D01*
X86935000Y-83185000D02*
X86935000Y-81855000D01*
X86935000Y-84455000D02*
X89595000Y-84455000D01*
X89595000Y-84455000D02*
X89595000Y-89595000D01*
X86935000Y-84455000D02*
X86935000Y-89595000D01*
X86935000Y-89595000D02*
X89595000Y-89595000D01*
X79645000Y-86300000D02*
X77995000Y-86300000D01*
X77995000Y-86300000D02*
X77995000Y-96580000D01*
X77995000Y-96580000D02*
X83295000Y-96580000D01*
X83295000Y-96580000D02*
X83295000Y-86300000D01*
X83295000Y-86300000D02*
X81645000Y-86300000D01*
X81645000Y-86300000D02*
G75*
G02*
X79645000Y-86300000I-1000000J0D01*
G01*
X75145000Y-77835000D02*
G75*
G03*
X75145000Y-77835000I-2120000J0D01*
G01*
X75105000Y-77835000D02*
X70945000Y-77835000D01*
X75105000Y-77875000D02*
X70945000Y-77875000D01*
X75104000Y-77915000D02*
X70946000Y-77915000D01*
X75102000Y-77955000D02*
X70948000Y-77955000D01*
X75099000Y-77995000D02*
X70951000Y-77995000D01*
X75096000Y-78035000D02*
X73865000Y-78035000D01*
X72185000Y-78035000D02*
X70954000Y-78035000D01*
X75092000Y-78075000D02*
X73865000Y-78075000D01*
X72185000Y-78075000D02*
X70958000Y-78075000D01*
X75087000Y-78115000D02*
X73865000Y-78115000D01*
X72185000Y-78115000D02*
X70963000Y-78115000D01*
X75081000Y-78155000D02*
X73865000Y-78155000D01*
X72185000Y-78155000D02*
X70969000Y-78155000D01*
X75075000Y-78195000D02*
X73865000Y-78195000D01*
X72185000Y-78195000D02*
X70975000Y-78195000D01*
X75067000Y-78235000D02*
X73865000Y-78235000D01*
X72185000Y-78235000D02*
X70983000Y-78235000D01*
X75059000Y-78275000D02*
X73865000Y-78275000D01*
X72185000Y-78275000D02*
X70991000Y-78275000D01*
X75050000Y-78315000D02*
X73865000Y-78315000D01*
X72185000Y-78315000D02*
X71000000Y-78315000D01*
X75041000Y-78355000D02*
X73865000Y-78355000D01*
X72185000Y-78355000D02*
X71009000Y-78355000D01*
X75030000Y-78395000D02*
X73865000Y-78395000D01*
X72185000Y-78395000D02*
X71020000Y-78395000D01*
X75019000Y-78435000D02*
X73865000Y-78435000D01*
X72185000Y-78435000D02*
X71031000Y-78435000D01*
X75007000Y-78475000D02*
X73865000Y-78475000D01*
X72185000Y-78475000D02*
X71043000Y-78475000D01*
X74993000Y-78515000D02*
X73865000Y-78515000D01*
X72185000Y-78515000D02*
X71057000Y-78515000D01*
X74979000Y-78556000D02*
X73865000Y-78556000D01*
X72185000Y-78556000D02*
X71071000Y-78556000D01*
X74965000Y-78596000D02*
X73865000Y-78596000D01*
X72185000Y-78596000D02*
X71085000Y-78596000D01*
X74949000Y-78636000D02*
X73865000Y-78636000D01*
X72185000Y-78636000D02*
X71101000Y-78636000D01*
X74932000Y-78676000D02*
X73865000Y-78676000D01*
X72185000Y-78676000D02*
X71118000Y-78676000D01*
X74914000Y-78716000D02*
X73865000Y-78716000D01*
X72185000Y-78716000D02*
X71136000Y-78716000D01*
X74895000Y-78756000D02*
X73865000Y-78756000D01*
X72185000Y-78756000D02*
X71155000Y-78756000D01*
X74876000Y-78796000D02*
X73865000Y-78796000D01*
X72185000Y-78796000D02*
X71174000Y-78796000D01*
X74855000Y-78836000D02*
X73865000Y-78836000D01*
X72185000Y-78836000D02*
X71195000Y-78836000D01*
X74833000Y-78876000D02*
X73865000Y-78876000D01*
X72185000Y-78876000D02*
X71217000Y-78876000D01*
X74810000Y-78916000D02*
X73865000Y-78916000D01*
X72185000Y-78916000D02*
X71240000Y-78916000D01*
X74785000Y-78956000D02*
X73865000Y-78956000D01*
X72185000Y-78956000D02*
X71265000Y-78956000D01*
X74760000Y-78996000D02*
X73865000Y-78996000D01*
X72185000Y-78996000D02*
X71290000Y-78996000D01*
X74733000Y-79036000D02*
X73865000Y-79036000D01*
X72185000Y-79036000D02*
X71317000Y-79036000D01*
X74705000Y-79076000D02*
X73865000Y-79076000D01*
X72185000Y-79076000D02*
X71345000Y-79076000D01*
X74675000Y-79116000D02*
X73865000Y-79116000D01*
X72185000Y-79116000D02*
X71375000Y-79116000D01*
X74644000Y-79156000D02*
X73865000Y-79156000D01*
X72185000Y-79156000D02*
X71406000Y-79156000D01*
X74612000Y-79196000D02*
X73865000Y-79196000D01*
X72185000Y-79196000D02*
X71438000Y-79196000D01*
X74577000Y-79236000D02*
X73865000Y-79236000D01*
X72185000Y-79236000D02*
X71473000Y-79236000D01*
X74541000Y-79276000D02*
X73865000Y-79276000D01*
X72185000Y-79276000D02*
X71509000Y-79276000D01*
X74503000Y-79316000D02*
X73865000Y-79316000D01*
X72185000Y-79316000D02*
X71547000Y-79316000D01*
X74463000Y-79356000D02*
X73865000Y-79356000D01*
X72185000Y-79356000D02*
X71587000Y-79356000D01*
X74421000Y-79396000D02*
X73865000Y-79396000D01*
X72185000Y-79396000D02*
X71629000Y-79396000D01*
X74376000Y-79436000D02*
X73865000Y-79436000D01*
X72185000Y-79436000D02*
X71674000Y-79436000D01*
X74329000Y-79476000D02*
X73865000Y-79476000D01*
X72185000Y-79476000D02*
X71721000Y-79476000D01*
X74279000Y-79516000D02*
X73865000Y-79516000D01*
X72185000Y-79516000D02*
X71771000Y-79516000D01*
X74225000Y-79556000D02*
X73865000Y-79556000D01*
X72185000Y-79556000D02*
X71825000Y-79556000D01*
X74167000Y-79596000D02*
X73865000Y-79596000D01*
X72185000Y-79596000D02*
X71883000Y-79596000D01*
X74105000Y-79636000D02*
X73865000Y-79636000D01*
X72185000Y-79636000D02*
X71945000Y-79636000D01*
X74038000Y-79676000D02*
X72012000Y-79676000D01*
X73965000Y-79716000D02*
X72085000Y-79716000D01*
X73884000Y-79756000D02*
X72166000Y-79756000D01*
X73793000Y-79796000D02*
X72257000Y-79796000D01*
X73689000Y-79836000D02*
X72361000Y-79836000D01*
X73562000Y-79876000D02*
X72488000Y-79876000D01*
X73395000Y-79916000D02*
X72655000Y-79916000D01*
X74220000Y-75565199D02*
X74220000Y-75965199D01*
X74420000Y-75765199D02*
X74020000Y-75765199D01*
X71695000Y-89595000D02*
X74355000Y-89595000D01*
X71695000Y-84455000D02*
X71695000Y-89595000D01*
X74355000Y-84455000D02*
X74355000Y-89595000D01*
X71695000Y-84455000D02*
X74355000Y-84455000D01*
X71695000Y-83185000D02*
X71695000Y-81855000D01*
X71695000Y-81855000D02*
X73025000Y-81855000D01*
X77575000Y-78685000D02*
X81175000Y-78685000D01*
X77050816Y-77957795D02*
G75*
G03*
X77575000Y-78685000I2324184J1122795D01*
G01*
X77018600Y-75736193D02*
G75*
G02*
X79375000Y-74235000I2356400J-1098807D01*
G01*
X81731400Y-75736193D02*
G75*
G03*
X79375000Y-74235000I-2356400J-1098807D01*
G01*
X81699184Y-77957795D02*
G75*
G02*
X81175000Y-78685000I-2324184J1122795D01*
G01*
X77375000Y-100865000D02*
X77375000Y-101195000D01*
X83915000Y-100865000D02*
X77375000Y-100865000D01*
X83915000Y-101195000D02*
X83915000Y-100865000D01*
X77375000Y-103605000D02*
X77375000Y-103275000D01*
X83915000Y-103605000D02*
X77375000Y-103605000D01*
X83915000Y-103275000D02*
X83915000Y-103605000D01*
X83915000Y-81685000D02*
X83915000Y-82015000D01*
X83915000Y-82015000D02*
X77375000Y-82015000D01*
X77375000Y-82015000D02*
X77375000Y-81685000D01*
X83915000Y-79605000D02*
X83915000Y-79275000D01*
X83915000Y-79275000D02*
X77375000Y-79275000D01*
X77375000Y-79275000D02*
X77375000Y-79605000D01*
X71655000Y-99790000D02*
X71985000Y-99790000D01*
X71655000Y-93250000D02*
X71655000Y-99790000D01*
X71985000Y-93250000D02*
X71655000Y-93250000D01*
X74395000Y-99790000D02*
X74065000Y-99790000D01*
X74395000Y-93250000D02*
X74395000Y-99790000D01*
X74065000Y-93250000D02*
X74395000Y-93250000D01*
X74910000Y-104855000D02*
X74910000Y-110825000D01*
X74910000Y-110825000D02*
X87530000Y-110825000D01*
X87530000Y-110825000D02*
X87530000Y-104855000D01*
X87530000Y-104855000D02*
X74910000Y-104855000D01*
X78220000Y-104865000D02*
X78220000Y-105615000D01*
X78220000Y-105615000D02*
X84220000Y-105615000D01*
X84220000Y-105615000D02*
X84220000Y-104865000D01*
X84220000Y-104865000D02*
X78220000Y-104865000D01*
X74920000Y-104865000D02*
X74920000Y-105615000D01*
X74920000Y-105615000D02*
X76720000Y-105615000D01*
X76720000Y-105615000D02*
X76720000Y-104865000D01*
X76720000Y-104865000D02*
X74920000Y-104865000D01*
X85720000Y-104865000D02*
X85720000Y-105615000D01*
X85720000Y-105615000D02*
X87520000Y-105615000D01*
X87520000Y-105615000D02*
X87520000Y-104865000D01*
X87520000Y-104865000D02*
X85720000Y-104865000D01*
X74920000Y-107115000D02*
X75670000Y-107115000D01*
X75670000Y-107115000D02*
X75670000Y-110065000D01*
X75670000Y-110065000D02*
X81220000Y-110065000D01*
X87520000Y-107115000D02*
X86770000Y-107115000D01*
X86770000Y-107115000D02*
X86770000Y-110065000D01*
X86770000Y-110065000D02*
X81220000Y-110065000D01*
X75870000Y-104565000D02*
X74620000Y-104565000D01*
X74620000Y-104565000D02*
X74620000Y-105815000D01*
D12*
X86788333Y-77192142D02*
X86740714Y-77239761D01*
X86597857Y-77287380D01*
X86502619Y-77287380D01*
X86359761Y-77239761D01*
X86264523Y-77144523D01*
X86216904Y-77049285D01*
X86169285Y-76858809D01*
X86169285Y-76715952D01*
X86216904Y-76525476D01*
X86264523Y-76430238D01*
X86359761Y-76335000D01*
X86502619Y-76287380D01*
X86597857Y-76287380D01*
X86740714Y-76335000D01*
X86788333Y-76382619D01*
X87740714Y-77287380D02*
X87169285Y-77287380D01*
X87455000Y-77287380D02*
X87455000Y-76287380D01*
X87359761Y-76430238D01*
X87264523Y-76525476D01*
X87169285Y-76573095D01*
X80518333Y-84177142D02*
X80470714Y-84224761D01*
X80327857Y-84272380D01*
X80232619Y-84272380D01*
X80089761Y-84224761D01*
X79994523Y-84129523D01*
X79946904Y-84034285D01*
X79899285Y-83843809D01*
X79899285Y-83700952D01*
X79946904Y-83510476D01*
X79994523Y-83415238D01*
X80089761Y-83320000D01*
X80232619Y-83272380D01*
X80327857Y-83272380D01*
X80470714Y-83320000D01*
X80518333Y-83367619D01*
X80851666Y-83272380D02*
X81470714Y-83272380D01*
X81137380Y-83653333D01*
X81280238Y-83653333D01*
X81375476Y-83700952D01*
X81423095Y-83748571D01*
X81470714Y-83843809D01*
X81470714Y-84081904D01*
X81423095Y-84177142D01*
X81375476Y-84224761D01*
X81280238Y-84272380D01*
X80994523Y-84272380D01*
X80899285Y-84224761D01*
X80851666Y-84177142D01*
D10*
X82188095Y-98926666D02*
X82569047Y-98660000D01*
X82188095Y-98469523D02*
X82988095Y-98469523D01*
X82988095Y-98774285D01*
X82950000Y-98850476D01*
X82911904Y-98888571D01*
X82835714Y-98926666D01*
X82721428Y-98926666D01*
X82645238Y-98888571D01*
X82607142Y-98850476D01*
X82569047Y-98774285D01*
X82569047Y-98469523D01*
X82188095Y-99688571D02*
X82188095Y-99231428D01*
X82188095Y-99460000D02*
X82988095Y-99460000D01*
X82873809Y-99383809D01*
X82797619Y-99307619D01*
X82759523Y-99231428D01*
X78384523Y-98698095D02*
X78422619Y-98660000D01*
X78498809Y-98621904D01*
X78689285Y-98621904D01*
X78765476Y-98660000D01*
X78803571Y-98698095D01*
X78841666Y-98774285D01*
X78841666Y-98850476D01*
X78803571Y-98964761D01*
X78346428Y-99421904D01*
X78841666Y-99421904D01*
X79108333Y-98621904D02*
X79641666Y-98621904D01*
X79298809Y-99421904D01*
X80098809Y-98621904D02*
X80175000Y-98621904D01*
X80251190Y-98660000D01*
X80289285Y-98698095D01*
X80327380Y-98774285D01*
X80365476Y-98926666D01*
X80365476Y-99117142D01*
X80327380Y-99269523D01*
X80289285Y-99345714D01*
X80251190Y-99383809D01*
X80175000Y-99421904D01*
X80098809Y-99421904D01*
X80022619Y-99383809D01*
X79984523Y-99345714D01*
X79946428Y-99269523D01*
X79908333Y-99117142D01*
X79908333Y-98926666D01*
X79946428Y-98774285D01*
X79984523Y-98698095D01*
X80022619Y-98660000D01*
X80098809Y-98621904D01*
X88131666Y-94976904D02*
X87865000Y-94595952D01*
X87674523Y-94976904D02*
X87674523Y-94176904D01*
X87979285Y-94176904D01*
X88055476Y-94215000D01*
X88093571Y-94253095D01*
X88131666Y-94329285D01*
X88131666Y-94443571D01*
X88093571Y-94519761D01*
X88055476Y-94557857D01*
X87979285Y-94595952D01*
X87674523Y-94595952D01*
X88436428Y-94253095D02*
X88474523Y-94215000D01*
X88550714Y-94176904D01*
X88741190Y-94176904D01*
X88817380Y-94215000D01*
X88855476Y-94253095D01*
X88893571Y-94329285D01*
X88893571Y-94405476D01*
X88855476Y-94519761D01*
X88398333Y-94976904D01*
X88893571Y-94976904D01*
X87903095Y-98780476D02*
X87865000Y-98742380D01*
X87826904Y-98666190D01*
X87826904Y-98475714D01*
X87865000Y-98399523D01*
X87903095Y-98361428D01*
X87979285Y-98323333D01*
X88055476Y-98323333D01*
X88169761Y-98361428D01*
X88626904Y-98818571D01*
X88626904Y-98323333D01*
X87826904Y-98056666D02*
X87826904Y-97523333D01*
X88626904Y-97866190D01*
X87826904Y-97066190D02*
X87826904Y-96990000D01*
X87865000Y-96913809D01*
X87903095Y-96875714D01*
X87979285Y-96837619D01*
X88131666Y-96799523D01*
X88322142Y-96799523D01*
X88474523Y-96837619D01*
X88550714Y-96875714D01*
X88588809Y-96913809D01*
X88626904Y-96990000D01*
X88626904Y-97066190D01*
X88588809Y-97142380D01*
X88550714Y-97180476D01*
X88474523Y-97218571D01*
X88322142Y-97256666D01*
X88131666Y-97256666D01*
X87979285Y-97218571D01*
X87903095Y-97180476D01*
X87865000Y-97142380D01*
X87826904Y-97066190D01*
D12*
X79883095Y-88352380D02*
X79883095Y-89161904D01*
X79930714Y-89257142D01*
X79978333Y-89304761D01*
X80073571Y-89352380D01*
X80264047Y-89352380D01*
X80359285Y-89304761D01*
X80406904Y-89257142D01*
X80454523Y-89161904D01*
X80454523Y-88352380D01*
X80883095Y-88447619D02*
X80930714Y-88400000D01*
X81025952Y-88352380D01*
X81264047Y-88352380D01*
X81359285Y-88400000D01*
X81406904Y-88447619D01*
X81454523Y-88542857D01*
X81454523Y-88638095D01*
X81406904Y-88780952D01*
X80835476Y-89352380D01*
X81454523Y-89352380D01*
D10*
X72891666Y-75215714D02*
X72853571Y-75253809D01*
X72739285Y-75291904D01*
X72663095Y-75291904D01*
X72548809Y-75253809D01*
X72472619Y-75177619D01*
X72434523Y-75101428D01*
X72396428Y-74949047D01*
X72396428Y-74834761D01*
X72434523Y-74682380D01*
X72472619Y-74606190D01*
X72548809Y-74530000D01*
X72663095Y-74491904D01*
X72739285Y-74491904D01*
X72853571Y-74530000D01*
X72891666Y-74568095D01*
X73196428Y-74568095D02*
X73234523Y-74530000D01*
X73310714Y-74491904D01*
X73501190Y-74491904D01*
X73577380Y-74530000D01*
X73615476Y-74568095D01*
X73653571Y-74644285D01*
X73653571Y-74720476D01*
X73615476Y-74834761D01*
X73158333Y-75291904D01*
X73653571Y-75291904D01*
X71520238Y-80283095D02*
X71558333Y-80245000D01*
X71634523Y-80206904D01*
X71825000Y-80206904D01*
X71901190Y-80245000D01*
X71939285Y-80283095D01*
X71977380Y-80359285D01*
X71977380Y-80435476D01*
X71939285Y-80549761D01*
X71482142Y-81006904D01*
X71977380Y-81006904D01*
X72320238Y-80930714D02*
X72358333Y-80968809D01*
X72320238Y-81006904D01*
X72282142Y-80968809D01*
X72320238Y-80930714D01*
X72320238Y-81006904D01*
X72663095Y-80283095D02*
X72701190Y-80245000D01*
X72777380Y-80206904D01*
X72967857Y-80206904D01*
X73044047Y-80245000D01*
X73082142Y-80283095D01*
X73120238Y-80359285D01*
X73120238Y-80435476D01*
X73082142Y-80549761D01*
X72625000Y-81006904D01*
X73120238Y-81006904D01*
X73805952Y-80473571D02*
X73805952Y-81006904D01*
X73463095Y-80473571D02*
X73463095Y-80892619D01*
X73501190Y-80968809D01*
X73577380Y-81006904D01*
X73691666Y-81006904D01*
X73767857Y-80968809D01*
X73805952Y-80930714D01*
X74453571Y-80587857D02*
X74186904Y-80587857D01*
X74186904Y-81006904D02*
X74186904Y-80206904D01*
X74567857Y-80206904D01*
X82111904Y-75539523D02*
X82759523Y-75539523D01*
X82835714Y-75501428D01*
X82873809Y-75463333D01*
X82911904Y-75387142D01*
X82911904Y-75234761D01*
X82873809Y-75158571D01*
X82835714Y-75120476D01*
X82759523Y-75082380D01*
X82111904Y-75082380D01*
X82911904Y-74282380D02*
X82911904Y-74739523D01*
X82911904Y-74510952D02*
X82111904Y-74510952D01*
X82226190Y-74587142D01*
X82302380Y-74663333D01*
X82340476Y-74739523D01*
X82911904Y-102368333D02*
X82530952Y-102635000D01*
X82911904Y-102825476D02*
X82111904Y-102825476D01*
X82111904Y-102520714D01*
X82150000Y-102444523D01*
X82188095Y-102406428D01*
X82264285Y-102368333D01*
X82378571Y-102368333D01*
X82454761Y-102406428D01*
X82492857Y-102444523D01*
X82530952Y-102520714D01*
X82530952Y-102825476D01*
X82111904Y-102101666D02*
X82111904Y-101606428D01*
X82416666Y-101873095D01*
X82416666Y-101758809D01*
X82454761Y-101682619D01*
X82492857Y-101644523D01*
X82569047Y-101606428D01*
X82759523Y-101606428D01*
X82835714Y-101644523D01*
X82873809Y-101682619D01*
X82911904Y-101758809D01*
X82911904Y-101987380D01*
X82873809Y-102063571D01*
X82835714Y-102101666D01*
X78384523Y-101873095D02*
X78422619Y-101835000D01*
X78498809Y-101796904D01*
X78689285Y-101796904D01*
X78765476Y-101835000D01*
X78803571Y-101873095D01*
X78841666Y-101949285D01*
X78841666Y-102025476D01*
X78803571Y-102139761D01*
X78346428Y-102596904D01*
X78841666Y-102596904D01*
X79108333Y-101796904D02*
X79641666Y-101796904D01*
X79298809Y-102596904D01*
X80098809Y-101796904D02*
X80175000Y-101796904D01*
X80251190Y-101835000D01*
X80289285Y-101873095D01*
X80327380Y-101949285D01*
X80365476Y-102101666D01*
X80365476Y-102292142D01*
X80327380Y-102444523D01*
X80289285Y-102520714D01*
X80251190Y-102558809D01*
X80175000Y-102596904D01*
X80098809Y-102596904D01*
X80022619Y-102558809D01*
X79984523Y-102520714D01*
X79946428Y-102444523D01*
X79908333Y-102292142D01*
X79908333Y-102101666D01*
X79946428Y-101949285D01*
X79984523Y-101873095D01*
X80022619Y-101835000D01*
X80098809Y-101796904D01*
X82911904Y-80778333D02*
X82530952Y-81045000D01*
X82911904Y-81235476D02*
X82111904Y-81235476D01*
X82111904Y-80930714D01*
X82150000Y-80854523D01*
X82188095Y-80816428D01*
X82264285Y-80778333D01*
X82378571Y-80778333D01*
X82454761Y-80816428D01*
X82492857Y-80854523D01*
X82530952Y-80930714D01*
X82530952Y-81235476D01*
X82378571Y-80092619D02*
X82911904Y-80092619D01*
X82073809Y-80283095D02*
X82645238Y-80473571D01*
X82645238Y-79978333D01*
X78898809Y-81006904D02*
X78441666Y-81006904D01*
X78670238Y-81006904D02*
X78670238Y-80206904D01*
X78594047Y-80321190D01*
X78517857Y-80397380D01*
X78441666Y-80435476D01*
X79394047Y-80206904D02*
X79470238Y-80206904D01*
X79546428Y-80245000D01*
X79584523Y-80283095D01*
X79622619Y-80359285D01*
X79660714Y-80511666D01*
X79660714Y-80702142D01*
X79622619Y-80854523D01*
X79584523Y-80930714D01*
X79546428Y-80968809D01*
X79470238Y-81006904D01*
X79394047Y-81006904D01*
X79317857Y-80968809D01*
X79279761Y-80930714D01*
X79241666Y-80854523D01*
X79203571Y-80702142D01*
X79203571Y-80511666D01*
X79241666Y-80359285D01*
X79279761Y-80283095D01*
X79317857Y-80245000D01*
X79394047Y-80206904D01*
X80003571Y-81006904D02*
X80003571Y-80206904D01*
X80079761Y-80702142D02*
X80308333Y-81006904D01*
X80308333Y-80473571D02*
X80003571Y-80778333D01*
X72891666Y-94976904D02*
X72625000Y-94595952D01*
X72434523Y-94976904D02*
X72434523Y-94176904D01*
X72739285Y-94176904D01*
X72815476Y-94215000D01*
X72853571Y-94253095D01*
X72891666Y-94329285D01*
X72891666Y-94443571D01*
X72853571Y-94519761D01*
X72815476Y-94557857D01*
X72739285Y-94595952D01*
X72434523Y-94595952D01*
X73615476Y-94176904D02*
X73234523Y-94176904D01*
X73196428Y-94557857D01*
X73234523Y-94519761D01*
X73310714Y-94481666D01*
X73501190Y-94481666D01*
X73577380Y-94519761D01*
X73615476Y-94557857D01*
X73653571Y-94634047D01*
X73653571Y-94824523D01*
X73615476Y-94900714D01*
X73577380Y-94938809D01*
X73501190Y-94976904D01*
X73310714Y-94976904D01*
X73234523Y-94938809D01*
X73196428Y-94900714D01*
X72663095Y-98723333D02*
X72625000Y-98685238D01*
X72586904Y-98609047D01*
X72586904Y-98418571D01*
X72625000Y-98342380D01*
X72663095Y-98304285D01*
X72739285Y-98266190D01*
X72815476Y-98266190D01*
X72929761Y-98304285D01*
X73386904Y-98761428D01*
X73386904Y-98266190D01*
X72586904Y-97770952D02*
X72586904Y-97694761D01*
X72625000Y-97618571D01*
X72663095Y-97580476D01*
X72739285Y-97542380D01*
X72891666Y-97504285D01*
X73082142Y-97504285D01*
X73234523Y-97542380D01*
X73310714Y-97580476D01*
X73348809Y-97618571D01*
X73386904Y-97694761D01*
X73386904Y-97770952D01*
X73348809Y-97847142D01*
X73310714Y-97885238D01*
X73234523Y-97923333D01*
X73082142Y-97961428D01*
X72891666Y-97961428D01*
X72739285Y-97923333D01*
X72663095Y-97885238D01*
X72625000Y-97847142D01*
X72586904Y-97770952D01*
X73386904Y-97161428D02*
X72586904Y-97161428D01*
X73082142Y-97085238D02*
X73386904Y-96856666D01*
X72853571Y-96856666D02*
X73158333Y-97161428D01*
D12*
X80481904Y-104217380D02*
X80481904Y-103217380D01*
X80720000Y-103217380D01*
X80862857Y-103265000D01*
X80958095Y-103360238D01*
X81005714Y-103455476D01*
X81053333Y-103645952D01*
X81053333Y-103788809D01*
X81005714Y-103979285D01*
X80958095Y-104074523D01*
X80862857Y-104169761D01*
X80720000Y-104217380D01*
X80481904Y-104217380D01*
X82005714Y-104217380D02*
X81434285Y-104217380D01*
X81720000Y-104217380D02*
X81720000Y-103217380D01*
X81624761Y-103360238D01*
X81529523Y-103455476D01*
X81434285Y-103503095D01*
M02*
