G04 #@! TF.GenerationSoftware,KiCad,Pcbnew,(5.1.8)-1*
G04 #@! TF.CreationDate,2023-09-30T03:10:54+02:00*
G04 #@! TF.ProjectId,RC Exhaust System RGB,52432045-7868-4617-9573-742053797374,rev?*
G04 #@! TF.SameCoordinates,Original*
G04 #@! TF.FileFunction,Copper,L1,Top*
G04 #@! TF.FilePolarity,Positive*
%FSLAX46Y46*%
G04 Gerber Fmt 4.6, Leading zero omitted, Abs format (unit mm)*
G04 Created by KiCad (PCBNEW (5.1.8)-1) date 2023-09-30 03:10:54*
%MOMM*%
%LPD*%
G01*
G04 APERTURE LIST*
G04 #@! TA.AperFunction,ComponentPad*
%ADD10C,1.600000*%
G04 #@! TD*
G04 #@! TA.AperFunction,ComponentPad*
%ADD11O,1.600000X1.600000*%
G04 #@! TD*
G04 #@! TA.AperFunction,ComponentPad*
%ADD12O,1.700000X1.700000*%
G04 #@! TD*
G04 #@! TA.AperFunction,ComponentPad*
%ADD13R,1.700000X1.700000*%
G04 #@! TD*
G04 #@! TA.AperFunction,ComponentPad*
%ADD14R,1.600000X1.600000*%
G04 #@! TD*
G04 #@! TA.AperFunction,ComponentPad*
%ADD15R,1.200000X1.200000*%
G04 #@! TD*
G04 #@! TA.AperFunction,ComponentPad*
%ADD16C,1.200000*%
G04 #@! TD*
G04 #@! TA.AperFunction,ComponentPad*
%ADD17C,1.500000*%
G04 #@! TD*
G04 #@! TA.AperFunction,ComponentPad*
%ADD18R,1.500000X1.500000*%
G04 #@! TD*
G04 #@! TA.AperFunction,ComponentPad*
%ADD19O,1.700000X1.950000*%
G04 #@! TD*
G04 #@! TA.AperFunction,ViaPad*
%ADD20C,0.800000*%
G04 #@! TD*
G04 #@! TA.AperFunction,Conductor*
%ADD21C,0.381000*%
G04 #@! TD*
G04 APERTURE END LIST*
D10*
X84455000Y-76835000D03*
X89455000Y-76835000D03*
X78185000Y-83820000D03*
X83185000Y-83820000D03*
X76835000Y-99060000D03*
D11*
X84455000Y-99060000D03*
X88265000Y-92710000D03*
D10*
X88265000Y-100330000D03*
D12*
X88265000Y-88265000D03*
X88265000Y-85725000D03*
D13*
X88265000Y-83185000D03*
D14*
X76835000Y-87630000D03*
D11*
X84455000Y-95250000D03*
X76835000Y-90170000D03*
X84455000Y-92710000D03*
X76835000Y-92710000D03*
X84455000Y-90170000D03*
X76835000Y-95250000D03*
X84455000Y-87630000D03*
D15*
X73025000Y-76835000D03*
D16*
X73025000Y-78835000D03*
D13*
X73025000Y-83185000D03*
D12*
X73025000Y-85725000D03*
X73025000Y-88265000D03*
D17*
X79375000Y-76835000D03*
X81915000Y-76835000D03*
D18*
X76835000Y-76835000D03*
D10*
X84455000Y-102235000D03*
D11*
X76835000Y-102235000D03*
X76835000Y-80645000D03*
D10*
X84455000Y-80645000D03*
X73025000Y-92710000D03*
D11*
X73025000Y-100330000D03*
G04 #@! TA.AperFunction,ComponentPad*
G36*
G01*
X76620000Y-108040000D02*
X76620000Y-106590000D01*
G75*
G02*
X76870000Y-106340000I250000J0D01*
G01*
X78070000Y-106340000D01*
G75*
G02*
X78320000Y-106590000I0J-250000D01*
G01*
X78320000Y-108040000D01*
G75*
G02*
X78070000Y-108290000I-250000J0D01*
G01*
X76870000Y-108290000D01*
G75*
G02*
X76620000Y-108040000I0J250000D01*
G01*
G37*
G04 #@! TD.AperFunction*
D19*
X79970000Y-107315000D03*
X82470000Y-107315000D03*
X84970000Y-107315000D03*
D20*
X81915000Y-79530500D03*
X80645000Y-79530500D03*
D21*
X73025000Y-76835000D02*
X73025000Y-75565000D01*
X73025000Y-75565000D02*
X73660000Y-74930000D01*
X73660000Y-74930000D02*
X81280000Y-74930000D01*
X81915000Y-75565000D02*
X81915000Y-76835000D01*
X81280000Y-74930000D02*
X81915000Y-75565000D01*
X84455000Y-85090000D02*
X83185000Y-83820000D01*
X84455000Y-87630000D02*
X84455000Y-85090000D01*
X81915000Y-80645000D02*
X81915000Y-79530500D01*
X83185000Y-81915000D02*
X81915000Y-80645000D01*
X83185000Y-83820000D02*
X83185000Y-81915000D01*
X84455000Y-87630000D02*
X86995000Y-90170000D01*
X86995000Y-90170000D02*
X89535000Y-90170000D01*
X89535000Y-90170000D02*
X90170000Y-90805000D01*
X90170000Y-90805000D02*
X90170000Y-107950000D01*
X90170000Y-107950000D02*
X88900000Y-109220000D01*
X88900000Y-109220000D02*
X80645000Y-109220000D01*
X79970000Y-108545000D02*
X79970000Y-107315000D01*
X80645000Y-109220000D02*
X79970000Y-108545000D01*
X76835000Y-76835000D02*
X76835000Y-78105000D01*
X77470000Y-78740000D02*
X83820000Y-78740000D01*
X84455000Y-78105000D02*
X84455000Y-76835000D01*
X83820000Y-78740000D02*
X84455000Y-78105000D01*
X83820000Y-78740000D02*
X89535000Y-78740000D01*
X89535000Y-78740000D02*
X90170000Y-79375000D01*
X90170000Y-79375000D02*
X90170000Y-85090000D01*
X89535000Y-85725000D02*
X88265000Y-85725000D01*
X90170000Y-85090000D02*
X89535000Y-85725000D01*
X76835000Y-78105000D02*
X76200000Y-78740000D01*
X76200000Y-78740000D02*
X77470000Y-78740000D01*
X74930000Y-78740000D02*
X76200000Y-78740000D01*
X71755000Y-80645000D02*
X73025000Y-80645000D01*
X71120000Y-85090000D02*
X71120000Y-81280000D01*
X73025000Y-80645000D02*
X74930000Y-78740000D01*
X71755000Y-85725000D02*
X71120000Y-85090000D01*
X71120000Y-81280000D02*
X71755000Y-80645000D01*
X73025000Y-85725000D02*
X71755000Y-85725000D01*
X81915000Y-90170000D02*
X84455000Y-90170000D01*
X80645000Y-91440000D02*
X81915000Y-90170000D01*
X78740000Y-86360000D02*
X78740000Y-90805000D01*
X78105000Y-85725000D02*
X78740000Y-86360000D01*
X76835000Y-85725000D02*
X78105000Y-85725000D01*
X76200000Y-85090000D02*
X76835000Y-85725000D01*
X76835000Y-81915000D02*
X76200000Y-82550000D01*
X76835000Y-80645000D02*
X76835000Y-81915000D01*
X76200000Y-82550000D02*
X76200000Y-85090000D01*
X78740000Y-90805000D02*
X79375000Y-91440000D01*
X79375000Y-91440000D02*
X80645000Y-91440000D01*
X75565000Y-91440000D02*
X78105000Y-91440000D01*
X74295000Y-92710000D02*
X75565000Y-91440000D01*
X78105000Y-91440000D02*
X79375000Y-91440000D01*
X73025000Y-92710000D02*
X74295000Y-92710000D01*
X84455000Y-95250000D02*
X84455000Y-99060000D01*
X84455000Y-92710000D02*
X88265000Y-92710000D01*
X76835000Y-99060000D02*
X78105000Y-99060000D01*
X78105000Y-99060000D02*
X78740000Y-99695000D01*
X78740000Y-99695000D02*
X78740000Y-102870000D01*
X77470000Y-104140000D02*
X77470000Y-107315000D01*
X78740000Y-102870000D02*
X77470000Y-104140000D01*
X88265000Y-88265000D02*
X86995000Y-88265000D01*
X86995000Y-88265000D02*
X86360000Y-87630000D01*
X86360000Y-87630000D02*
X86360000Y-81280000D01*
X85725000Y-80645000D02*
X84455000Y-80645000D01*
X86360000Y-81280000D02*
X85725000Y-80645000D01*
X73025000Y-88265000D02*
X74295000Y-88265000D01*
X74295000Y-88265000D02*
X74930000Y-87630000D01*
X74930000Y-87630000D02*
X74930000Y-86360000D01*
X74930000Y-86360000D02*
X74930000Y-80196672D01*
X74930000Y-80196672D02*
X75751672Y-79375000D01*
X80489500Y-79375000D02*
X80645000Y-79530500D01*
X75751672Y-79375000D02*
X80489500Y-79375000D01*
X76835000Y-92710000D02*
X74930000Y-94615000D01*
X74930000Y-94615000D02*
X74930000Y-101600000D01*
X75565000Y-102235000D02*
X76835000Y-102235000D01*
X74930000Y-101600000D02*
X75565000Y-102235000D01*
X85725000Y-100330000D02*
X88265000Y-100330000D01*
X85090000Y-100965000D02*
X85725000Y-100330000D01*
X83185000Y-100965000D02*
X85090000Y-100965000D01*
X82470000Y-101680000D02*
X83185000Y-100965000D01*
X82470000Y-107315000D02*
X82470000Y-101680000D01*
X84970000Y-107315000D02*
X84970000Y-105290000D01*
X84455000Y-104775000D02*
X84455000Y-102235000D01*
X84970000Y-105290000D02*
X84455000Y-104775000D01*
M02*
