G04 #@! TF.GenerationSoftware,KiCad,Pcbnew,(5.1.8)-1*
G04 #@! TF.CreationDate,2023-09-30T03:10:54+02:00*
G04 #@! TF.ProjectId,RC Exhaust System RGB,52432045-7868-4617-9573-742053797374,rev?*
G04 #@! TF.SameCoordinates,Original*
G04 #@! TF.FileFunction,Soldermask,Bot*
G04 #@! TF.FilePolarity,Negative*
%FSLAX46Y46*%
G04 Gerber Fmt 4.6, Leading zero omitted, Abs format (unit mm)*
G04 Created by KiCad (PCBNEW (5.1.8)-1) date 2023-09-30 03:10:54*
%MOMM*%
%LPD*%
G01*
G04 APERTURE LIST*
%ADD10C,1.600000*%
%ADD11O,1.600000X1.600000*%
%ADD12O,1.700000X1.700000*%
%ADD13R,1.700000X1.700000*%
%ADD14R,1.600000X1.600000*%
%ADD15R,1.200000X1.200000*%
%ADD16C,1.200000*%
%ADD17C,1.500000*%
%ADD18R,1.500000X1.500000*%
%ADD19O,1.700000X1.950000*%
G04 APERTURE END LIST*
D10*
X84455000Y-76835000D03*
X89455000Y-76835000D03*
X78185000Y-83820000D03*
X83185000Y-83820000D03*
X76835000Y-99060000D03*
D11*
X84455000Y-99060000D03*
X88265000Y-92710000D03*
D10*
X88265000Y-100330000D03*
D12*
X88265000Y-88265000D03*
X88265000Y-85725000D03*
D13*
X88265000Y-83185000D03*
D14*
X76835000Y-87630000D03*
D11*
X84455000Y-95250000D03*
X76835000Y-90170000D03*
X84455000Y-92710000D03*
X76835000Y-92710000D03*
X84455000Y-90170000D03*
X76835000Y-95250000D03*
X84455000Y-87630000D03*
D15*
X73025000Y-76835000D03*
D16*
X73025000Y-78835000D03*
D13*
X73025000Y-83185000D03*
D12*
X73025000Y-85725000D03*
X73025000Y-88265000D03*
D17*
X79375000Y-76835000D03*
X81915000Y-76835000D03*
D18*
X76835000Y-76835000D03*
D10*
X84455000Y-102235000D03*
D11*
X76835000Y-102235000D03*
X76835000Y-80645000D03*
D10*
X84455000Y-80645000D03*
X73025000Y-92710000D03*
D11*
X73025000Y-100330000D03*
G36*
G01*
X76620000Y-108040000D02*
X76620000Y-106590000D01*
G75*
G02*
X76870000Y-106340000I250000J0D01*
G01*
X78070000Y-106340000D01*
G75*
G02*
X78320000Y-106590000I0J-250000D01*
G01*
X78320000Y-108040000D01*
G75*
G02*
X78070000Y-108290000I-250000J0D01*
G01*
X76870000Y-108290000D01*
G75*
G02*
X76620000Y-108040000I0J250000D01*
G01*
G37*
D19*
X79970000Y-107315000D03*
X82470000Y-107315000D03*
X84970000Y-107315000D03*
M02*
